<svg width="247" height="135" viewBox="0 0 247 135" fill="none" xmlns="http://www.w3.org/2000/svg">
<path d="M4.6979 12.3359H2.5019V10.6439H0.701904V8.46593H2.5019V6.77393H4.6979V8.46593H6.4979V10.6439H4.6979V12.3359ZM14.6949 12.3359H12.4989V10.6439H10.6989V8.46593H12.4989V6.77393H14.6949V8.46593H16.4949V10.6439H14.6949V12.3359ZM24.692 12.3359H22.496V10.6439H20.696V8.46593H22.496V6.77393H24.692V8.46593H26.492V10.6439H24.692V12.3359ZM34.689 12.3359H32.493V10.6439H30.693V8.46593H32.493V6.77393H34.689V8.46593H36.489V10.6439H34.689V12.3359ZM44.686 12.3359H42.49V10.6439H40.69V8.46593H42.49V6.77393H44.686V8.46593H46.486V10.6439H44.686V12.3359ZM54.6831 12.3359H52.4871V10.6439H50.6871V8.46593H52.4871V6.77393H54.6831V8.46593H56.4831V10.6439H54.6831V12.3359ZM64.6801 12.3359H62.4841V10.6439H60.6841V8.46593H62.4841V6.77393H64.6801V8.46593H66.4801V10.6439H64.6801V12.3359ZM74.6771 12.3359H72.4811V10.6439H70.6811V8.46593H72.4811V6.77393H74.6771V8.46593H76.4771V10.6439H74.6771V12.3359ZM84.6741 12.3359H82.4781V10.6439H80.6781V8.46593H82.4781V6.77393H84.6741V8.46593H86.4742V10.6439H84.6741V12.3359ZM94.6712 12.3359H92.4752V10.6439H90.6752V8.46593H92.4752V6.77393H94.6712V8.46593H96.4712V10.6439H94.6712V12.3359ZM104.668 12.3359H102.472V10.6439H100.672V8.46593H102.472V6.77393H104.668V8.46593H106.468V10.6439H104.668V12.3359ZM114.665 12.3359H112.469V10.6439H110.669V8.46593H112.469V6.77393H114.665V8.46593H116.465V10.6439H114.665V12.3359ZM124.662 12.3359H122.466V10.6439H120.666V8.46593H122.466V6.77393H124.662V8.46593H126.462V10.6439H124.662V12.3359ZM134.659 12.3359H132.463V10.6439H130.663V8.46593H132.463V6.77393H134.659V8.46593H136.459V10.6439H134.659V12.3359ZM144.656 12.3359H142.46V10.6439H140.66V8.46593H142.46V6.77393H144.656V8.46593H146.456V10.6439H144.656V12.3359ZM154.653 12.3359H152.457V10.6439H150.657V8.46593H152.457V6.77393H154.653V8.46593H156.453V10.6439H154.653V12.3359ZM164.65 12.3359H162.454V10.6439H160.654V8.46593H162.454V6.77393H164.65V8.46593H166.45V10.6439H164.65V12.3359ZM174.648 12.3359H172.452V10.6439H170.652V8.46593H172.452V6.77393H174.648V8.46593H176.448V10.6439H174.648V12.3359ZM184.645 12.3359H182.449V10.6439H180.649V8.46593H182.449V6.77393H184.645V8.46593H186.445V10.6439H184.645V12.3359ZM194.642 12.3359H192.446V10.6439H190.646V8.46593H192.446V6.77393H194.642V8.46593H196.442V10.6439H194.642V12.3359ZM204.639 12.3359H202.443V10.6439H200.643V8.46593H202.443V6.77393H204.639V8.46593H206.439V10.6439H204.639V12.3359ZM214.636 12.3359H212.44V10.6439H210.64V8.46593H212.44V6.77393H214.636V8.46593H216.436V10.6439H214.636V12.3359ZM224.633 12.3359H222.437V10.6439H220.637V8.46593H222.437V6.77393H224.633V8.46593H226.433V10.6439H224.633V12.3359ZM234.63 12.3359H232.434V10.6439H230.634V8.46593H232.434V6.77393H234.63V8.46593H236.43V10.6439H234.63V12.3359ZM244.627 12.3359H242.431V10.6439H240.631V8.46593H242.431V6.77393H244.627V8.46593H246.427V10.6439H244.627V12.3359Z" fill="#001AED"/>
<path d="M4.6979 20.3359H2.5019V18.6439H0.701904V16.4659H2.5019V14.7739H4.6979V16.4659H6.4979V18.6439H4.6979V20.3359ZM14.6949 20.3359H12.4989V18.6439H10.6989V16.4659H12.4989V14.7739H14.6949V16.4659H16.4949V18.6439H14.6949V20.3359ZM24.692 20.3359H22.496V18.6439H20.696V16.4659H22.496V14.7739H24.692V16.4659H26.492V18.6439H24.692V20.3359ZM34.689 20.3359H32.493V18.6439H30.693V16.4659H32.493V14.7739H34.689V16.4659H36.489V18.6439H34.689V20.3359ZM44.686 20.3359H42.49V18.6439H40.69V16.4659H42.49V14.7739H44.686V16.4659H46.486V18.6439H44.686V20.3359ZM54.6831 20.3359H52.4871V18.6439H50.6871V16.4659H52.4871V14.7739H54.6831V16.4659H56.4831V18.6439H54.6831V20.3359ZM64.6801 20.3359H62.4841V18.6439H60.6841V16.4659H62.4841V14.7739H64.6801V16.4659H66.4801V18.6439H64.6801V20.3359ZM74.6771 20.3359H72.4811V18.6439H70.6811V16.4659H72.4811V14.7739H74.6771V16.4659H76.4771V18.6439H74.6771V20.3359ZM84.6741 20.3359H82.4781V18.6439H80.6781V16.4659H82.4781V14.7739H84.6741V16.4659H86.4742V18.6439H84.6741V20.3359ZM94.6712 20.3359H92.4752V18.6439H90.6752V16.4659H92.4752V14.7739H94.6712V16.4659H96.4712V18.6439H94.6712V20.3359ZM104.668 20.3359H102.472V18.6439H100.672V16.4659H102.472V14.7739H104.668V16.4659H106.468V18.6439H104.668V20.3359ZM114.665 20.3359H112.469V18.6439H110.669V16.4659H112.469V14.7739H114.665V16.4659H116.465V18.6439H114.665V20.3359ZM124.662 20.3359H122.466V18.6439H120.666V16.4659H122.466V14.7739H124.662V16.4659H126.462V18.6439H124.662V20.3359ZM134.659 20.3359H132.463V18.6439H130.663V16.4659H132.463V14.7739H134.659V16.4659H136.459V18.6439H134.659V20.3359ZM144.656 20.3359H142.46V18.6439H140.66V16.4659H142.46V14.7739H144.656V16.4659H146.456V18.6439H144.656V20.3359ZM154.653 20.3359H152.457V18.6439H150.657V16.4659H152.457V14.7739H154.653V16.4659H156.453V18.6439H154.653V20.3359ZM164.65 20.3359H162.454V18.6439H160.654V16.4659H162.454V14.7739H164.65V16.4659H166.45V18.6439H164.65V20.3359ZM174.648 20.3359H172.452V18.6439H170.652V16.4659H172.452V14.7739H174.648V16.4659H176.448V18.6439H174.648V20.3359ZM184.645 20.3359H182.449V18.6439H180.649V16.4659H182.449V14.7739H184.645V16.4659H186.445V18.6439H184.645V20.3359ZM194.642 20.3359H192.446V18.6439H190.646V16.4659H192.446V14.7739H194.642V16.4659H196.442V18.6439H194.642V20.3359ZM204.639 20.3359H202.443V18.6439H200.643V16.4659H202.443V14.7739H204.639V16.4659H206.439V18.6439H204.639V20.3359ZM214.636 20.3359H212.44V18.6439H210.64V16.4659H212.44V14.7739H214.636V16.4659H216.436V18.6439H214.636V20.3359ZM224.633 20.3359H222.437V18.6439H220.637V16.4659H222.437V14.7739H224.633V16.4659H226.433V18.6439H224.633V20.3359ZM234.63 20.3359H232.434V18.6439H230.634V16.4659H232.434V14.7739H234.63V16.4659H236.43V18.6439H234.63V20.3359ZM244.627 20.3359H242.431V18.6439H240.631V16.4659H242.431V14.7739H244.627V16.4659H246.427V18.6439H244.627V20.3359Z" fill="#001AED"/>
<path d="M4.6979 28.3359H2.5019V26.6439H0.701904V24.4659H2.5019V22.7739H4.6979V24.4659H6.4979V26.6439H4.6979V28.3359ZM14.6949 28.3359H12.4989V26.6439H10.6989V24.4659H12.4989V22.7739H14.6949V24.4659H16.4949V26.6439H14.6949V28.3359ZM24.692 28.3359H22.496V26.6439H20.696V24.4659H22.496V22.7739H24.692V24.4659H26.492V26.6439H24.692V28.3359ZM34.689 28.3359H32.493V26.6439H30.693V24.4659H32.493V22.7739H34.689V24.4659H36.489V26.6439H34.689V28.3359ZM44.686 28.3359H42.49V26.6439H40.69V24.4659H42.49V22.7739H44.686V24.4659H46.486V26.6439H44.686V28.3359ZM54.6831 28.3359H52.4871V26.6439H50.6871V24.4659H52.4871V22.7739H54.6831V24.4659H56.4831V26.6439H54.6831V28.3359ZM64.6801 28.3359H62.4841V26.6439H60.6841V24.4659H62.4841V22.7739H64.6801V24.4659H66.4801V26.6439H64.6801V28.3359ZM74.6771 28.3359H72.4811V26.6439H70.6811V24.4659H72.4811V22.7739H74.6771V24.4659H76.4771V26.6439H74.6771V28.3359ZM84.6741 28.3359H82.4781V26.6439H80.6781V24.4659H82.4781V22.7739H84.6741V24.4659H86.4742V26.6439H84.6741V28.3359ZM94.6712 28.3359H92.4752V26.6439H90.6752V24.4659H92.4752V22.7739H94.6712V24.4659H96.4712V26.6439H94.6712V28.3359ZM104.668 28.3359H102.472V26.6439H100.672V24.4659H102.472V22.7739H104.668V24.4659H106.468V26.6439H104.668V28.3359ZM114.665 28.3359H112.469V26.6439H110.669V24.4659H112.469V22.7739H114.665V24.4659H116.465V26.6439H114.665V28.3359ZM124.662 28.3359H122.466V26.6439H120.666V24.4659H122.466V22.7739H124.662V24.4659H126.462V26.6439H124.662V28.3359ZM134.659 28.3359H132.463V26.6439H130.663V24.4659H132.463V22.7739H134.659V24.4659H136.459V26.6439H134.659V28.3359ZM144.656 28.3359H142.46V26.6439H140.66V24.4659H142.46V22.7739H144.656V24.4659H146.456V26.6439H144.656V28.3359ZM154.653 28.3359H152.457V26.6439H150.657V24.4659H152.457V22.7739H154.653V24.4659H156.453V26.6439H154.653V28.3359ZM164.65 28.3359H162.454V26.6439H160.654V24.4659H162.454V22.7739H164.65V24.4659H166.45V26.6439H164.65V28.3359ZM174.648 28.3359H172.452V26.6439H170.652V24.4659H172.452V22.7739H174.648V24.4659H176.448V26.6439H174.648V28.3359ZM184.645 28.3359H182.449V26.6439H180.649V24.4659H182.449V22.7739H184.645V24.4659H186.445V26.6439H184.645V28.3359ZM194.642 28.3359H192.446V26.6439H190.646V24.4659H192.446V22.7739H194.642V24.4659H196.442V26.6439H194.642V28.3359ZM204.639 28.3359H202.443V26.6439H200.643V24.4659H202.443V22.7739H204.639V24.4659H206.439V26.6439H204.639V28.3359ZM214.636 28.3359H212.44V26.6439H210.64V24.4659H212.44V22.7739H214.636V24.4659H216.436V26.6439H214.636V28.3359ZM224.633 28.3359H222.437V26.6439H220.637V24.4659H222.437V22.7739H224.633V24.4659H226.433V26.6439H224.633V28.3359ZM234.63 28.3359H232.434V26.6439H230.634V24.4659H232.434V22.7739H234.63V24.4659H236.43V26.6439H234.63V28.3359ZM244.627 28.3359H242.431V26.6439H240.631V24.4659H242.431V22.7739H244.627V24.4659H246.427V26.6439H244.627V28.3359Z" fill="#001AED"/>
<path d="M4.6979 36.3359H2.5019V34.6439H0.701904V32.4659H2.5019V30.7739H4.6979V32.4659H6.4979V34.6439H4.6979V36.3359ZM14.6949 36.3359H12.4989V34.6439H10.6989V32.4659H12.4989V30.7739H14.6949V32.4659H16.4949V34.6439H14.6949V36.3359ZM24.692 36.3359H22.496V34.6439H20.696V32.4659H22.496V30.7739H24.692V32.4659H26.492V34.6439H24.692V36.3359ZM34.689 36.3359H32.493V34.6439H30.693V32.4659H32.493V30.7739H34.689V32.4659H36.489V34.6439H34.689V36.3359ZM44.686 36.3359H42.49V34.6439H40.69V32.4659H42.49V30.7739H44.686V32.4659H46.486V34.6439H44.686V36.3359ZM54.6831 36.3359H52.4871V34.6439H50.6871V32.4659H52.4871V30.7739H54.6831V32.4659H56.4831V34.6439H54.6831V36.3359ZM64.6801 36.3359H62.4841V34.6439H60.6841V32.4659H62.4841V30.7739H64.6801V32.4659H66.4801V34.6439H64.6801V36.3359ZM74.6771 36.3359H72.4811V34.6439H70.6811V32.4659H72.4811V30.7739H74.6771V32.4659H76.4771V34.6439H74.6771V36.3359ZM84.6741 36.3359H82.4781V34.6439H80.6781V32.4659H82.4781V30.7739H84.6741V32.4659H86.4742V34.6439H84.6741V36.3359ZM94.6712 36.3359H92.4752V34.6439H90.6752V32.4659H92.4752V30.7739H94.6712V32.4659H96.4712V34.6439H94.6712V36.3359ZM104.668 36.3359H102.472V34.6439H100.672V32.4659H102.472V30.7739H104.668V32.4659H106.468V34.6439H104.668V36.3359ZM114.665 36.3359H112.469V34.6439H110.669V32.4659H112.469V30.7739H114.665V32.4659H116.465V34.6439H114.665V36.3359ZM124.662 36.3359H122.466V34.6439H120.666V32.4659H122.466V30.7739H124.662V32.4659H126.462V34.6439H124.662V36.3359ZM134.659 36.3359H132.463V34.6439H130.663V32.4659H132.463V30.7739H134.659V32.4659H136.459V34.6439H134.659V36.3359ZM144.656 36.3359H142.46V34.6439H140.66V32.4659H142.46V30.7739H144.656V32.4659H146.456V34.6439H144.656V36.3359ZM154.653 36.3359H152.457V34.6439H150.657V32.4659H152.457V30.7739H154.653V32.4659H156.453V34.6439H154.653V36.3359ZM164.65 36.3359H162.454V34.6439H160.654V32.4659H162.454V30.7739H164.65V32.4659H166.45V34.6439H164.65V36.3359ZM174.648 36.3359H172.452V34.6439H170.652V32.4659H172.452V30.7739H174.648V32.4659H176.448V34.6439H174.648V36.3359ZM184.645 36.3359H182.449V34.6439H180.649V32.4659H182.449V30.7739H184.645V32.4659H186.445V34.6439H184.645V36.3359ZM194.642 36.3359H192.446V34.6439H190.646V32.4659H192.446V30.7739H194.642V32.4659H196.442V34.6439H194.642V36.3359ZM204.639 36.3359H202.443V34.6439H200.643V32.4659H202.443V30.7739H204.639V32.4659H206.439V34.6439H204.639V36.3359ZM214.636 36.3359H212.44V34.6439H210.64V32.4659H212.44V30.7739H214.636V32.4659H216.436V34.6439H214.636V36.3359ZM224.633 36.3359H222.437V34.6439H220.637V32.4659H222.437V30.7739H224.633V32.4659H226.433V34.6439H224.633V36.3359ZM234.63 36.3359H232.434V34.6439H230.634V32.4659H232.434V30.7739H234.63V32.4659H236.43V34.6439H234.63V36.3359ZM244.627 36.3359H242.431V34.6439H240.631V32.4659H242.431V30.7739H244.627V32.4659H246.427V34.6439H244.627V36.3359Z" fill="#001AED"/>
<path d="M4.6979 44.3359H2.5019V42.6439H0.701904V40.4659H2.5019V38.7739H4.6979V40.4659H6.4979V42.6439H4.6979V44.3359ZM14.6949 44.3359H12.4989V42.6439H10.6989V40.4659H12.4989V38.7739H14.6949V40.4659H16.4949V42.6439H14.6949V44.3359ZM24.692 44.3359H22.496V42.6439H20.696V40.4659H22.496V38.7739H24.692V40.4659H26.492V42.6439H24.692V44.3359ZM34.689 44.3359H32.493V42.6439H30.693V40.4659H32.493V38.7739H34.689V40.4659H36.489V42.6439H34.689V44.3359ZM44.686 44.3359H42.49V42.6439H40.69V40.4659H42.49V38.7739H44.686V40.4659H46.486V42.6439H44.686V44.3359ZM54.6831 44.3359H52.4871V42.6439H50.6871V40.4659H52.4871V38.7739H54.6831V40.4659H56.4831V42.6439H54.6831V44.3359ZM64.6801 44.3359H62.4841V42.6439H60.6841V40.4659H62.4841V38.7739H64.6801V40.4659H66.4801V42.6439H64.6801V44.3359ZM74.6771 44.3359H72.4811V42.6439H70.6811V40.4659H72.4811V38.7739H74.6771V40.4659H76.4771V42.6439H74.6771V44.3359ZM84.6741 44.3359H82.4781V42.6439H80.6781V40.4659H82.4781V38.7739H84.6741V40.4659H86.4742V42.6439H84.6741V44.3359ZM94.6712 44.3359H92.4752V42.6439H90.6752V40.4659H92.4752V38.7739H94.6712V40.4659H96.4712V42.6439H94.6712V44.3359ZM104.668 44.3359H102.472V42.6439H100.672V40.4659H102.472V38.7739H104.668V40.4659H106.468V42.6439H104.668V44.3359ZM114.665 44.3359H112.469V42.6439H110.669V40.4659H112.469V38.7739H114.665V40.4659H116.465V42.6439H114.665V44.3359ZM124.662 44.3359H122.466V42.6439H120.666V40.4659H122.466V38.7739H124.662V40.4659H126.462V42.6439H124.662V44.3359ZM134.659 44.3359H132.463V42.6439H130.663V40.4659H132.463V38.7739H134.659V40.4659H136.459V42.6439H134.659V44.3359ZM144.656 44.3359H142.46V42.6439H140.66V40.4659H142.46V38.7739H144.656V40.4659H146.456V42.6439H144.656V44.3359ZM154.653 44.3359H152.457V42.6439H150.657V40.4659H152.457V38.7739H154.653V40.4659H156.453V42.6439H154.653V44.3359ZM164.65 44.3359H162.454V42.6439H160.654V40.4659H162.454V38.7739H164.65V40.4659H166.45V42.6439H164.65V44.3359ZM174.648 44.3359H172.452V42.6439H170.652V40.4659H172.452V38.7739H174.648V40.4659H176.448V42.6439H174.648V44.3359ZM184.645 44.3359H182.449V42.6439H180.649V40.4659H182.449V38.7739H184.645V40.4659H186.445V42.6439H184.645V44.3359ZM194.642 44.3359H192.446V42.6439H190.646V40.4659H192.446V38.7739H194.642V40.4659H196.442V42.6439H194.642V44.3359ZM204.639 44.3359H202.443V42.6439H200.643V40.4659H202.443V38.7739H204.639V40.4659H206.439V42.6439H204.639V44.3359ZM214.636 44.3359H212.44V42.6439H210.64V40.4659H212.44V38.7739H214.636V40.4659H216.436V42.6439H214.636V44.3359ZM224.633 44.3359H222.437V42.6439H220.637V40.4659H222.437V38.7739H224.633V40.4659H226.433V42.6439H224.633V44.3359ZM234.63 44.3359H232.434V42.6439H230.634V40.4659H232.434V38.7739H234.63V40.4659H236.43V42.6439H234.63V44.3359ZM244.627 44.3359H242.431V42.6439H240.631V40.4659H242.431V38.7739H244.627V40.4659H246.427V42.6439H244.627V44.3359Z" fill="#001AED"/>
<path d="M4.6979 52.3359H2.5019V50.6439H0.701904V48.4659H2.5019V46.7739H4.6979V48.4659H6.4979V50.6439H4.6979V52.3359ZM14.6949 52.3359H12.4989V50.6439H10.6989V48.4659H12.4989V46.7739H14.6949V48.4659H16.4949V50.6439H14.6949V52.3359ZM24.692 52.3359H22.496V50.6439H20.696V48.4659H22.496V46.7739H24.692V48.4659H26.492V50.6439H24.692V52.3359ZM34.689 52.3359H32.493V50.6439H30.693V48.4659H32.493V46.7739H34.689V48.4659H36.489V50.6439H34.689V52.3359ZM44.686 52.3359H42.49V50.6439H40.69V48.4659H42.49V46.7739H44.686V48.4659H46.486V50.6439H44.686V52.3359ZM54.6831 52.3359H52.4871V50.6439H50.6871V48.4659H52.4871V46.7739H54.6831V48.4659H56.4831V50.6439H54.6831V52.3359ZM64.6801 52.3359H62.4841V50.6439H60.6841V48.4659H62.4841V46.7739H64.6801V48.4659H66.4801V50.6439H64.6801V52.3359ZM74.6771 52.3359H72.4811V50.6439H70.6811V48.4659H72.4811V46.7739H74.6771V48.4659H76.4771V50.6439H74.6771V52.3359ZM84.6741 52.3359H82.4781V50.6439H80.6781V48.4659H82.4781V46.7739H84.6741V48.4659H86.4742V50.6439H84.6741V52.3359ZM94.6712 52.3359H92.4752V50.6439H90.6752V48.4659H92.4752V46.7739H94.6712V48.4659H96.4712V50.6439H94.6712V52.3359ZM104.668 52.3359H102.472V50.6439H100.672V48.4659H102.472V46.7739H104.668V48.4659H106.468V50.6439H104.668V52.3359ZM114.665 52.3359H112.469V50.6439H110.669V48.4659H112.469V46.7739H114.665V48.4659H116.465V50.6439H114.665V52.3359ZM124.662 52.3359H122.466V50.6439H120.666V48.4659H122.466V46.7739H124.662V48.4659H126.462V50.6439H124.662V52.3359ZM134.659 52.3359H132.463V50.6439H130.663V48.4659H132.463V46.7739H134.659V48.4659H136.459V50.6439H134.659V52.3359ZM144.656 52.3359H142.46V50.6439H140.66V48.4659H142.46V46.7739H144.656V48.4659H146.456V50.6439H144.656V52.3359ZM154.653 52.3359H152.457V50.6439H150.657V48.4659H152.457V46.7739H154.653V48.4659H156.453V50.6439H154.653V52.3359ZM164.65 52.3359H162.454V50.6439H160.654V48.4659H162.454V46.7739H164.65V48.4659H166.45V50.6439H164.65V52.3359ZM174.648 52.3359H172.452V50.6439H170.652V48.4659H172.452V46.7739H174.648V48.4659H176.448V50.6439H174.648V52.3359ZM184.645 52.3359H182.449V50.6439H180.649V48.4659H182.449V46.7739H184.645V48.4659H186.445V50.6439H184.645V52.3359ZM194.642 52.3359H192.446V50.6439H190.646V48.4659H192.446V46.7739H194.642V48.4659H196.442V50.6439H194.642V52.3359ZM204.639 52.3359H202.443V50.6439H200.643V48.4659H202.443V46.7739H204.639V48.4659H206.439V50.6439H204.639V52.3359ZM214.636 52.3359H212.44V50.6439H210.64V48.4659H212.44V46.7739H214.636V48.4659H216.436V50.6439H214.636V52.3359ZM224.633 52.3359H222.437V50.6439H220.637V48.4659H222.437V46.7739H224.633V48.4659H226.433V50.6439H224.633V52.3359ZM234.63 52.3359H232.434V50.6439H230.634V48.4659H232.434V46.7739H234.63V48.4659H236.43V50.6439H234.63V52.3359ZM244.627 52.3359H242.431V50.6439H240.631V48.4659H242.431V46.7739H244.627V48.4659H246.427V50.6439H244.627V52.3359Z" fill="#001AED"/>
<path d="M4.6979 60.3359H2.5019V58.6439H0.701904V56.4659H2.5019V54.7739H4.6979V56.4659H6.4979V58.6439H4.6979V60.3359ZM14.6949 60.3359H12.4989V58.6439H10.6989V56.4659H12.4989V54.7739H14.6949V56.4659H16.4949V58.6439H14.6949V60.3359ZM24.692 60.3359H22.496V58.6439H20.696V56.4659H22.496V54.7739H24.692V56.4659H26.492V58.6439H24.692V60.3359ZM34.689 60.3359H32.493V58.6439H30.693V56.4659H32.493V54.7739H34.689V56.4659H36.489V58.6439H34.689V60.3359ZM44.686 60.3359H42.49V58.6439H40.69V56.4659H42.49V54.7739H44.686V56.4659H46.486V58.6439H44.686V60.3359ZM54.6831 60.3359H52.4871V58.6439H50.6871V56.4659H52.4871V54.7739H54.6831V56.4659H56.4831V58.6439H54.6831V60.3359ZM64.6801 60.3359H62.4841V58.6439H60.6841V56.4659H62.4841V54.7739H64.6801V56.4659H66.4801V58.6439H64.6801V60.3359ZM74.6771 60.3359H72.4811V58.6439H70.6811V56.4659H72.4811V54.7739H74.6771V56.4659H76.4771V58.6439H74.6771V60.3359ZM84.6741 60.3359H82.4781V58.6439H80.6781V56.4659H82.4781V54.7739H84.6741V56.4659H86.4742V58.6439H84.6741V60.3359ZM94.6712 60.3359H92.4752V58.6439H90.6752V56.4659H92.4752V54.7739H94.6712V56.4659H96.4712V58.6439H94.6712V60.3359ZM104.668 60.3359H102.472V58.6439H100.672V56.4659H102.472V54.7739H104.668V56.4659H106.468V58.6439H104.668V60.3359ZM114.665 60.3359H112.469V58.6439H110.669V56.4659H112.469V54.7739H114.665V56.4659H116.465V58.6439H114.665V60.3359ZM124.662 60.3359H122.466V58.6439H120.666V56.4659H122.466V54.7739H124.662V56.4659H126.462V58.6439H124.662V60.3359ZM134.659 60.3359H132.463V58.6439H130.663V56.4659H132.463V54.7739H134.659V56.4659H136.459V58.6439H134.659V60.3359ZM144.656 60.3359H142.46V58.6439H140.66V56.4659H142.46V54.7739H144.656V56.4659H146.456V58.6439H144.656V60.3359ZM154.653 60.3359H152.457V58.6439H150.657V56.4659H152.457V54.7739H154.653V56.4659H156.453V58.6439H154.653V60.3359ZM164.65 60.3359H162.454V58.6439H160.654V56.4659H162.454V54.7739H164.65V56.4659H166.45V58.6439H164.65V60.3359ZM174.648 60.3359H172.452V58.6439H170.652V56.4659H172.452V54.7739H174.648V56.4659H176.448V58.6439H174.648V60.3359ZM184.645 60.3359H182.449V58.6439H180.649V56.4659H182.449V54.7739H184.645V56.4659H186.445V58.6439H184.645V60.3359ZM194.642 60.3359H192.446V58.6439H190.646V56.4659H192.446V54.7739H194.642V56.4659H196.442V58.6439H194.642V60.3359ZM204.639 60.3359H202.443V58.6439H200.643V56.4659H202.443V54.7739H204.639V56.4659H206.439V58.6439H204.639V60.3359ZM214.636 60.3359H212.44V58.6439H210.64V56.4659H212.44V54.7739H214.636V56.4659H216.436V58.6439H214.636V60.3359ZM224.633 60.3359H222.437V58.6439H220.637V56.4659H222.437V54.7739H224.633V56.4659H226.433V58.6439H224.633V60.3359ZM234.63 60.3359H232.434V58.6439H230.634V56.4659H232.434V54.7739H234.63V56.4659H236.43V58.6439H234.63V60.3359ZM244.627 60.3359H242.431V58.6439H240.631V56.4659H242.431V54.7739H244.627V56.4659H246.427V58.6439H244.627V60.3359Z" fill="#001AED"/>
<path d="M4.6979 68.3359H2.5019V66.6439H0.701904V64.4659H2.5019V62.7739H4.6979V64.4659H6.4979V66.6439H4.6979V68.3359ZM14.6949 68.3359H12.4989V66.6439H10.6989V64.4659H12.4989V62.7739H14.6949V64.4659H16.4949V66.6439H14.6949V68.3359ZM24.692 68.3359H22.496V66.6439H20.696V64.4659H22.496V62.7739H24.692V64.4659H26.492V66.6439H24.692V68.3359ZM34.689 68.3359H32.493V66.6439H30.693V64.4659H32.493V62.7739H34.689V64.4659H36.489V66.6439H34.689V68.3359ZM44.686 68.3359H42.49V66.6439H40.69V64.4659H42.49V62.7739H44.686V64.4659H46.486V66.6439H44.686V68.3359ZM54.6831 68.3359H52.4871V66.6439H50.6871V64.4659H52.4871V62.7739H54.6831V64.4659H56.4831V66.6439H54.6831V68.3359ZM64.6801 68.3359H62.4841V66.6439H60.6841V64.4659H62.4841V62.7739H64.6801V64.4659H66.4801V66.6439H64.6801V68.3359ZM74.6771 68.3359H72.4811V66.6439H70.6811V64.4659H72.4811V62.7739H74.6771V64.4659H76.4771V66.6439H74.6771V68.3359ZM84.6741 68.3359H82.4781V66.6439H80.6781V64.4659H82.4781V62.7739H84.6741V64.4659H86.4742V66.6439H84.6741V68.3359ZM94.6712 68.3359H92.4752V66.6439H90.6752V64.4659H92.4752V62.7739H94.6712V64.4659H96.4712V66.6439H94.6712V68.3359ZM104.668 68.3359H102.472V66.6439H100.672V64.4659H102.472V62.7739H104.668V64.4659H106.468V66.6439H104.668V68.3359ZM114.665 68.3359H112.469V66.6439H110.669V64.4659H112.469V62.7739H114.665V64.4659H116.465V66.6439H114.665V68.3359ZM124.662 68.3359H122.466V66.6439H120.666V64.4659H122.466V62.7739H124.662V64.4659H126.462V66.6439H124.662V68.3359ZM134.659 68.3359H132.463V66.6439H130.663V64.4659H132.463V62.7739H134.659V64.4659H136.459V66.6439H134.659V68.3359ZM144.656 68.3359H142.46V66.6439H140.66V64.4659H142.46V62.7739H144.656V64.4659H146.456V66.6439H144.656V68.3359ZM154.653 68.3359H152.457V66.6439H150.657V64.4659H152.457V62.7739H154.653V64.4659H156.453V66.6439H154.653V68.3359ZM164.65 68.3359H162.454V66.6439H160.654V64.4659H162.454V62.7739H164.65V64.4659H166.45V66.6439H164.65V68.3359ZM174.648 68.3359H172.452V66.6439H170.652V64.4659H172.452V62.7739H174.648V64.4659H176.448V66.6439H174.648V68.3359ZM184.645 68.3359H182.449V66.6439H180.649V64.4659H182.449V62.7739H184.645V64.4659H186.445V66.6439H184.645V68.3359ZM194.642 68.3359H192.446V66.6439H190.646V64.4659H192.446V62.7739H194.642V64.4659H196.442V66.6439H194.642V68.3359ZM204.639 68.3359H202.443V66.6439H200.643V64.4659H202.443V62.7739H204.639V64.4659H206.439V66.6439H204.639V68.3359ZM214.636 68.3359H212.44V66.6439H210.64V64.4659H212.44V62.7739H214.636V64.4659H216.436V66.6439H214.636V68.3359ZM224.633 68.3359H222.437V66.6439H220.637V64.4659H222.437V62.7739H224.633V64.4659H226.433V66.6439H224.633V68.3359ZM234.63 68.3359H232.434V66.6439H230.634V64.4659H232.434V62.7739H234.63V64.4659H236.43V66.6439H234.63V68.3359ZM244.627 68.3359H242.431V66.6439H240.631V64.4659H242.431V62.7739H244.627V64.4659H246.427V66.6439H244.627V68.3359Z" fill="#001AED"/>
<path d="M4.6979 76.3359H2.5019V74.6439H0.701904V72.4659H2.5019V70.7739H4.6979V72.4659H6.4979V74.6439H4.6979V76.3359ZM14.6949 76.3359H12.4989V74.6439H10.6989V72.4659H12.4989V70.7739H14.6949V72.4659H16.4949V74.6439H14.6949V76.3359ZM24.692 76.3359H22.496V74.6439H20.696V72.4659H22.496V70.7739H24.692V72.4659H26.492V74.6439H24.692V76.3359ZM34.689 76.3359H32.493V74.6439H30.693V72.4659H32.493V70.7739H34.689V72.4659H36.489V74.6439H34.689V76.3359ZM44.686 76.3359H42.49V74.6439H40.69V72.4659H42.49V70.7739H44.686V72.4659H46.486V74.6439H44.686V76.3359ZM54.6831 76.3359H52.4871V74.6439H50.6871V72.4659H52.4871V70.7739H54.6831V72.4659H56.4831V74.6439H54.6831V76.3359ZM64.6801 76.3359H62.4841V74.6439H60.6841V72.4659H62.4841V70.7739H64.6801V72.4659H66.4801V74.6439H64.6801V76.3359ZM74.6771 76.3359H72.4811V74.6439H70.6811V72.4659H72.4811V70.7739H74.6771V72.4659H76.4771V74.6439H74.6771V76.3359ZM84.6741 76.3359H82.4781V74.6439H80.6781V72.4659H82.4781V70.7739H84.6741V72.4659H86.4742V74.6439H84.6741V76.3359ZM94.6712 76.3359H92.4752V74.6439H90.6752V72.4659H92.4752V70.7739H94.6712V72.4659H96.4712V74.6439H94.6712V76.3359ZM104.668 76.3359H102.472V74.6439H100.672V72.4659H102.472V70.7739H104.668V72.4659H106.468V74.6439H104.668V76.3359ZM114.665 76.3359H112.469V74.6439H110.669V72.4659H112.469V70.7739H114.665V72.4659H116.465V74.6439H114.665V76.3359ZM124.662 76.3359H122.466V74.6439H120.666V72.4659H122.466V70.7739H124.662V72.4659H126.462V74.6439H124.662V76.3359ZM134.659 76.3359H132.463V74.6439H130.663V72.4659H132.463V70.7739H134.659V72.4659H136.459V74.6439H134.659V76.3359ZM144.656 76.3359H142.46V74.6439H140.66V72.4659H142.46V70.7739H144.656V72.4659H146.456V74.6439H144.656V76.3359ZM154.653 76.3359H152.457V74.6439H150.657V72.4659H152.457V70.7739H154.653V72.4659H156.453V74.6439H154.653V76.3359ZM164.65 76.3359H162.454V74.6439H160.654V72.4659H162.454V70.7739H164.65V72.4659H166.45V74.6439H164.65V76.3359ZM174.648 76.3359H172.452V74.6439H170.652V72.4659H172.452V70.7739H174.648V72.4659H176.448V74.6439H174.648V76.3359ZM184.645 76.3359H182.449V74.6439H180.649V72.4659H182.449V70.7739H184.645V72.4659H186.445V74.6439H184.645V76.3359ZM194.642 76.3359H192.446V74.6439H190.646V72.4659H192.446V70.7739H194.642V72.4659H196.442V74.6439H194.642V76.3359ZM204.639 76.3359H202.443V74.6439H200.643V72.4659H202.443V70.7739H204.639V72.4659H206.439V74.6439H204.639V76.3359ZM214.636 76.3359H212.44V74.6439H210.64V72.4659H212.44V70.7739H214.636V72.4659H216.436V74.6439H214.636V76.3359ZM224.633 76.3359H222.437V74.6439H220.637V72.4659H222.437V70.7739H224.633V72.4659H226.433V74.6439H224.633V76.3359ZM234.63 76.3359H232.434V74.6439H230.634V72.4659H232.434V70.7739H234.63V72.4659H236.43V74.6439H234.63V76.3359ZM244.627 76.3359H242.431V74.6439H240.631V72.4659H242.431V70.7739H244.627V72.4659H246.427V74.6439H244.627V76.3359Z" fill="#001AED"/>
<path d="M4.6979 84.3359H2.5019V82.6439H0.701904V80.4659H2.5019V78.7739H4.6979V80.4659H6.4979V82.6439H4.6979V84.3359ZM14.6949 84.3359H12.4989V82.6439H10.6989V80.4659H12.4989V78.7739H14.6949V80.4659H16.4949V82.6439H14.6949V84.3359ZM24.692 84.3359H22.496V82.6439H20.696V80.4659H22.496V78.7739H24.692V80.4659H26.492V82.6439H24.692V84.3359ZM34.689 84.3359H32.493V82.6439H30.693V80.4659H32.493V78.7739H34.689V80.4659H36.489V82.6439H34.689V84.3359ZM44.686 84.3359H42.49V82.6439H40.69V80.4659H42.49V78.7739H44.686V80.4659H46.486V82.6439H44.686V84.3359ZM54.6831 84.3359H52.4871V82.6439H50.6871V80.4659H52.4871V78.7739H54.6831V80.4659H56.4831V82.6439H54.6831V84.3359ZM64.6801 84.3359H62.4841V82.6439H60.6841V80.4659H62.4841V78.7739H64.6801V80.4659H66.4801V82.6439H64.6801V84.3359ZM74.6771 84.3359H72.4811V82.6439H70.6811V80.4659H72.4811V78.7739H74.6771V80.4659H76.4771V82.6439H74.6771V84.3359ZM84.6741 84.3359H82.4781V82.6439H80.6781V80.4659H82.4781V78.7739H84.6741V80.4659H86.4742V82.6439H84.6741V84.3359ZM94.6712 84.3359H92.4752V82.6439H90.6752V80.4659H92.4752V78.7739H94.6712V80.4659H96.4712V82.6439H94.6712V84.3359ZM104.668 84.3359H102.472V82.6439H100.672V80.4659H102.472V78.7739H104.668V80.4659H106.468V82.6439H104.668V84.3359ZM114.665 84.3359H112.469V82.6439H110.669V80.4659H112.469V78.7739H114.665V80.4659H116.465V82.6439H114.665V84.3359ZM124.662 84.3359H122.466V82.6439H120.666V80.4659H122.466V78.7739H124.662V80.4659H126.462V82.6439H124.662V84.3359ZM134.659 84.3359H132.463V82.6439H130.663V80.4659H132.463V78.7739H134.659V80.4659H136.459V82.6439H134.659V84.3359ZM144.656 84.3359H142.46V82.6439H140.66V80.4659H142.46V78.7739H144.656V80.4659H146.456V82.6439H144.656V84.3359ZM154.653 84.3359H152.457V82.6439H150.657V80.4659H152.457V78.7739H154.653V80.4659H156.453V82.6439H154.653V84.3359ZM164.65 84.3359H162.454V82.6439H160.654V80.4659H162.454V78.7739H164.65V80.4659H166.45V82.6439H164.65V84.3359ZM174.648 84.3359H172.452V82.6439H170.652V80.4659H172.452V78.7739H174.648V80.4659H176.448V82.6439H174.648V84.3359ZM184.645 84.3359H182.449V82.6439H180.649V80.4659H182.449V78.7739H184.645V80.4659H186.445V82.6439H184.645V84.3359ZM194.642 84.3359H192.446V82.6439H190.646V80.4659H192.446V78.7739H194.642V80.4659H196.442V82.6439H194.642V84.3359ZM204.639 84.3359H202.443V82.6439H200.643V80.4659H202.443V78.7739H204.639V80.4659H206.439V82.6439H204.639V84.3359ZM214.636 84.3359H212.44V82.6439H210.64V80.4659H212.44V78.7739H214.636V80.4659H216.436V82.6439H214.636V84.3359ZM224.633 84.3359H222.437V82.6439H220.637V80.4659H222.437V78.7739H224.633V80.4659H226.433V82.6439H224.633V84.3359ZM234.63 84.3359H232.434V82.6439H230.634V80.4659H232.434V78.7739H234.63V80.4659H236.43V82.6439H234.63V84.3359ZM244.627 84.3359H242.431V82.6439H240.631V80.4659H242.431V78.7739H244.627V80.4659H246.427V82.6439H244.627V84.3359Z" fill="#001AED"/>
<path d="M4.6979 92.3359H2.5019V90.6439H0.701904V88.4659H2.5019V86.7739H4.6979V88.4659H6.4979V90.6439H4.6979V92.3359ZM14.6949 92.3359H12.4989V90.6439H10.6989V88.4659H12.4989V86.7739H14.6949V88.4659H16.4949V90.6439H14.6949V92.3359ZM24.692 92.3359H22.496V90.6439H20.696V88.4659H22.496V86.7739H24.692V88.4659H26.492V90.6439H24.692V92.3359ZM34.689 92.3359H32.493V90.6439H30.693V88.4659H32.493V86.7739H34.689V88.4659H36.489V90.6439H34.689V92.3359ZM44.686 92.3359H42.49V90.6439H40.69V88.4659H42.49V86.7739H44.686V88.4659H46.486V90.6439H44.686V92.3359ZM54.6831 92.3359H52.4871V90.6439H50.6871V88.4659H52.4871V86.7739H54.6831V88.4659H56.4831V90.6439H54.6831V92.3359ZM64.6801 92.3359H62.4841V90.6439H60.6841V88.4659H62.4841V86.7739H64.6801V88.4659H66.4801V90.6439H64.6801V92.3359ZM74.6771 92.3359H72.4811V90.6439H70.6811V88.4659H72.4811V86.7739H74.6771V88.4659H76.4771V90.6439H74.6771V92.3359ZM84.6741 92.3359H82.4781V90.6439H80.6781V88.4659H82.4781V86.7739H84.6741V88.4659H86.4742V90.6439H84.6741V92.3359ZM94.6712 92.3359H92.4752V90.6439H90.6752V88.4659H92.4752V86.7739H94.6712V88.4659H96.4712V90.6439H94.6712V92.3359ZM104.668 92.3359H102.472V90.6439H100.672V88.4659H102.472V86.7739H104.668V88.4659H106.468V90.6439H104.668V92.3359ZM114.665 92.3359H112.469V90.6439H110.669V88.4659H112.469V86.7739H114.665V88.4659H116.465V90.6439H114.665V92.3359ZM124.662 92.3359H122.466V90.6439H120.666V88.4659H122.466V86.7739H124.662V88.4659H126.462V90.6439H124.662V92.3359ZM134.659 92.3359H132.463V90.6439H130.663V88.4659H132.463V86.7739H134.659V88.4659H136.459V90.6439H134.659V92.3359ZM144.656 92.3359H142.46V90.6439H140.66V88.4659H142.46V86.7739H144.656V88.4659H146.456V90.6439H144.656V92.3359ZM154.653 92.3359H152.457V90.6439H150.657V88.4659H152.457V86.7739H154.653V88.4659H156.453V90.6439H154.653V92.3359ZM164.65 92.3359H162.454V90.6439H160.654V88.4659H162.454V86.7739H164.65V88.4659H166.45V90.6439H164.65V92.3359ZM174.648 92.3359H172.452V90.6439H170.652V88.4659H172.452V86.7739H174.648V88.4659H176.448V90.6439H174.648V92.3359ZM184.645 92.3359H182.449V90.6439H180.649V88.4659H182.449V86.7739H184.645V88.4659H186.445V90.6439H184.645V92.3359ZM194.642 92.3359H192.446V90.6439H190.646V88.4659H192.446V86.7739H194.642V88.4659H196.442V90.6439H194.642V92.3359ZM204.639 92.3359H202.443V90.6439H200.643V88.4659H202.443V86.7739H204.639V88.4659H206.439V90.6439H204.639V92.3359ZM214.636 92.3359H212.44V90.6439H210.64V88.4659H212.44V86.7739H214.636V88.4659H216.436V90.6439H214.636V92.3359ZM224.633 92.3359H222.437V90.6439H220.637V88.4659H222.437V86.7739H224.633V88.4659H226.433V90.6439H224.633V92.3359ZM234.63 92.3359H232.434V90.6439H230.634V88.4659H232.434V86.7739H234.63V88.4659H236.43V90.6439H234.63V92.3359ZM244.627 92.3359H242.431V90.6439H240.631V88.4659H242.431V86.7739H244.627V88.4659H246.427V90.6439H244.627V92.3359Z" fill="#001AED"/>
<path d="M4.6979 100.336H2.5019V98.6439H0.701904V96.4659H2.5019V94.7739H4.6979V96.4659H6.4979V98.6439H4.6979V100.336ZM14.6949 100.336H12.4989V98.6439H10.6989V96.4659H12.4989V94.7739H14.6949V96.4659H16.4949V98.6439H14.6949V100.336ZM24.692 100.336H22.496V98.6439H20.696V96.4659H22.496V94.7739H24.692V96.4659H26.492V98.6439H24.692V100.336ZM34.689 100.336H32.493V98.6439H30.693V96.4659H32.493V94.7739H34.689V96.4659H36.489V98.6439H34.689V100.336ZM44.686 100.336H42.49V98.6439H40.69V96.4659H42.49V94.7739H44.686V96.4659H46.486V98.6439H44.686V100.336ZM54.6831 100.336H52.4871V98.6439H50.6871V96.4659H52.4871V94.7739H54.6831V96.4659H56.4831V98.6439H54.6831V100.336ZM64.6801 100.336H62.4841V98.6439H60.6841V96.4659H62.4841V94.7739H64.6801V96.4659H66.4801V98.6439H64.6801V100.336ZM74.6771 100.336H72.4811V98.6439H70.6811V96.4659H72.4811V94.7739H74.6771V96.4659H76.4771V98.6439H74.6771V100.336ZM84.6741 100.336H82.4781V98.6439H80.6781V96.4659H82.4781V94.7739H84.6741V96.4659H86.4742V98.6439H84.6741V100.336ZM94.6712 100.336H92.4752V98.6439H90.6752V96.4659H92.4752V94.7739H94.6712V96.4659H96.4712V98.6439H94.6712V100.336ZM104.668 100.336H102.472V98.6439H100.672V96.4659H102.472V94.7739H104.668V96.4659H106.468V98.6439H104.668V100.336ZM114.665 100.336H112.469V98.6439H110.669V96.4659H112.469V94.7739H114.665V96.4659H116.465V98.6439H114.665V100.336ZM124.662 100.336H122.466V98.6439H120.666V96.4659H122.466V94.7739H124.662V96.4659H126.462V98.6439H124.662V100.336ZM134.659 100.336H132.463V98.6439H130.663V96.4659H132.463V94.7739H134.659V96.4659H136.459V98.6439H134.659V100.336ZM144.656 100.336H142.46V98.6439H140.66V96.4659H142.46V94.7739H144.656V96.4659H146.456V98.6439H144.656V100.336ZM154.653 100.336H152.457V98.6439H150.657V96.4659H152.457V94.7739H154.653V96.4659H156.453V98.6439H154.653V100.336ZM164.65 100.336H162.454V98.6439H160.654V96.4659H162.454V94.7739H164.65V96.4659H166.45V98.6439H164.65V100.336ZM174.648 100.336H172.452V98.6439H170.652V96.4659H172.452V94.7739H174.648V96.4659H176.448V98.6439H174.648V100.336ZM184.645 100.336H182.449V98.6439H180.649V96.4659H182.449V94.7739H184.645V96.4659H186.445V98.6439H184.645V100.336ZM194.642 100.336H192.446V98.6439H190.646V96.4659H192.446V94.7739H194.642V96.4659H196.442V98.6439H194.642V100.336ZM204.639 100.336H202.443V98.6439H200.643V96.4659H202.443V94.7739H204.639V96.4659H206.439V98.6439H204.639V100.336ZM214.636 100.336H212.44V98.6439H210.64V96.4659H212.44V94.7739H214.636V96.4659H216.436V98.6439H214.636V100.336ZM224.633 100.336H222.437V98.6439H220.637V96.4659H222.437V94.7739H224.633V96.4659H226.433V98.6439H224.633V100.336ZM234.63 100.336H232.434V98.6439H230.634V96.4659H232.434V94.7739H234.63V96.4659H236.43V98.6439H234.63V100.336ZM244.627 100.336H242.431V98.6439H240.631V96.4659H242.431V94.7739H244.627V96.4659H246.427V98.6439H244.627V100.336Z" fill="#001AED"/>
<path d="M4.6979 108.336H2.5019V106.644H0.701904V104.466H2.5019V102.774H4.6979V104.466H6.4979V106.644H4.6979V108.336ZM14.6949 108.336H12.4989V106.644H10.6989V104.466H12.4989V102.774H14.6949V104.466H16.4949V106.644H14.6949V108.336ZM24.692 108.336H22.496V106.644H20.696V104.466H22.496V102.774H24.692V104.466H26.492V106.644H24.692V108.336ZM34.689 108.336H32.493V106.644H30.693V104.466H32.493V102.774H34.689V104.466H36.489V106.644H34.689V108.336ZM44.686 108.336H42.49V106.644H40.69V104.466H42.49V102.774H44.686V104.466H46.486V106.644H44.686V108.336ZM54.6831 108.336H52.4871V106.644H50.6871V104.466H52.4871V102.774H54.6831V104.466H56.4831V106.644H54.6831V108.336ZM64.6801 108.336H62.4841V106.644H60.6841V104.466H62.4841V102.774H64.6801V104.466H66.4801V106.644H64.6801V108.336ZM74.6771 108.336H72.4811V106.644H70.6811V104.466H72.4811V102.774H74.6771V104.466H76.4771V106.644H74.6771V108.336ZM84.6741 108.336H82.4781V106.644H80.6781V104.466H82.4781V102.774H84.6741V104.466H86.4742V106.644H84.6741V108.336ZM94.6712 108.336H92.4752V106.644H90.6752V104.466H92.4752V102.774H94.6712V104.466H96.4712V106.644H94.6712V108.336ZM104.668 108.336H102.472V106.644H100.672V104.466H102.472V102.774H104.668V104.466H106.468V106.644H104.668V108.336ZM114.665 108.336H112.469V106.644H110.669V104.466H112.469V102.774H114.665V104.466H116.465V106.644H114.665V108.336ZM124.662 108.336H122.466V106.644H120.666V104.466H122.466V102.774H124.662V104.466H126.462V106.644H124.662V108.336ZM134.659 108.336H132.463V106.644H130.663V104.466H132.463V102.774H134.659V104.466H136.459V106.644H134.659V108.336ZM144.656 108.336H142.46V106.644H140.66V104.466H142.46V102.774H144.656V104.466H146.456V106.644H144.656V108.336ZM154.653 108.336H152.457V106.644H150.657V104.466H152.457V102.774H154.653V104.466H156.453V106.644H154.653V108.336ZM164.65 108.336H162.454V106.644H160.654V104.466H162.454V102.774H164.65V104.466H166.45V106.644H164.65V108.336ZM174.648 108.336H172.452V106.644H170.652V104.466H172.452V102.774H174.648V104.466H176.448V106.644H174.648V108.336ZM184.645 108.336H182.449V106.644H180.649V104.466H182.449V102.774H184.645V104.466H186.445V106.644H184.645V108.336ZM194.642 108.336H192.446V106.644H190.646V104.466H192.446V102.774H194.642V104.466H196.442V106.644H194.642V108.336ZM204.639 108.336H202.443V106.644H200.643V104.466H202.443V102.774H204.639V104.466H206.439V106.644H204.639V108.336ZM214.636 108.336H212.44V106.644H210.64V104.466H212.44V102.774H214.636V104.466H216.436V106.644H214.636V108.336ZM224.633 108.336H222.437V106.644H220.637V104.466H222.437V102.774H224.633V104.466H226.433V106.644H224.633V108.336ZM234.63 108.336H232.434V106.644H230.634V104.466H232.434V102.774H234.63V104.466H236.43V106.644H234.63V108.336ZM244.627 108.336H242.431V106.644H240.631V104.466H242.431V102.774H244.627V104.466H246.427V106.644H244.627V108.336Z" fill="#001AED"/>
<path d="M4.6979 116.336H2.5019V114.644H0.701904V112.466H2.5019V110.774H4.6979V112.466H6.4979V114.644H4.6979V116.336ZM14.6949 116.336H12.4989V114.644H10.6989V112.466H12.4989V110.774H14.6949V112.466H16.4949V114.644H14.6949V116.336ZM24.692 116.336H22.496V114.644H20.696V112.466H22.496V110.774H24.692V112.466H26.492V114.644H24.692V116.336ZM34.689 116.336H32.493V114.644H30.693V112.466H32.493V110.774H34.689V112.466H36.489V114.644H34.689V116.336ZM44.686 116.336H42.49V114.644H40.69V112.466H42.49V110.774H44.686V112.466H46.486V114.644H44.686V116.336ZM54.6831 116.336H52.4871V114.644H50.6871V112.466H52.4871V110.774H54.6831V112.466H56.4831V114.644H54.6831V116.336ZM64.6801 116.336H62.4841V114.644H60.6841V112.466H62.4841V110.774H64.6801V112.466H66.4801V114.644H64.6801V116.336ZM74.6771 116.336H72.4811V114.644H70.6811V112.466H72.4811V110.774H74.6771V112.466H76.4771V114.644H74.6771V116.336ZM84.6741 116.336H82.4781V114.644H80.6781V112.466H82.4781V110.774H84.6741V112.466H86.4742V114.644H84.6741V116.336ZM94.6712 116.336H92.4752V114.644H90.6752V112.466H92.4752V110.774H94.6712V112.466H96.4712V114.644H94.6712V116.336ZM104.668 116.336H102.472V114.644H100.672V112.466H102.472V110.774H104.668V112.466H106.468V114.644H104.668V116.336ZM114.665 116.336H112.469V114.644H110.669V112.466H112.469V110.774H114.665V112.466H116.465V114.644H114.665V116.336ZM124.662 116.336H122.466V114.644H120.666V112.466H122.466V110.774H124.662V112.466H126.462V114.644H124.662V116.336ZM134.659 116.336H132.463V114.644H130.663V112.466H132.463V110.774H134.659V112.466H136.459V114.644H134.659V116.336ZM144.656 116.336H142.46V114.644H140.66V112.466H142.46V110.774H144.656V112.466H146.456V114.644H144.656V116.336ZM154.653 116.336H152.457V114.644H150.657V112.466H152.457V110.774H154.653V112.466H156.453V114.644H154.653V116.336ZM164.65 116.336H162.454V114.644H160.654V112.466H162.454V110.774H164.65V112.466H166.45V114.644H164.65V116.336ZM174.648 116.336H172.452V114.644H170.652V112.466H172.452V110.774H174.648V112.466H176.448V114.644H174.648V116.336ZM184.645 116.336H182.449V114.644H180.649V112.466H182.449V110.774H184.645V112.466H186.445V114.644H184.645V116.336ZM194.642 116.336H192.446V114.644H190.646V112.466H192.446V110.774H194.642V112.466H196.442V114.644H194.642V116.336ZM204.639 116.336H202.443V114.644H200.643V112.466H202.443V110.774H204.639V112.466H206.439V114.644H204.639V116.336ZM214.636 116.336H212.44V114.644H210.64V112.466H212.44V110.774H214.636V112.466H216.436V114.644H214.636V116.336ZM224.633 116.336H222.437V114.644H220.637V112.466H222.437V110.774H224.633V112.466H226.433V114.644H224.633V116.336ZM234.63 116.336H232.434V114.644H230.634V112.466H232.434V110.774H234.63V112.466H236.43V114.644H234.63V116.336ZM244.627 116.336H242.431V114.644H240.631V112.466H242.431V110.774H244.627V112.466H246.427V114.644H244.627V116.336Z" fill="#001AED"/>
<path d="M4.6979 124.336H2.5019V122.644H0.701904V120.466H2.5019V118.774H4.6979V120.466H6.4979V122.644H4.6979V124.336ZM14.6949 124.336H12.4989V122.644H10.6989V120.466H12.4989V118.774H14.6949V120.466H16.4949V122.644H14.6949V124.336ZM24.692 124.336H22.496V122.644H20.696V120.466H22.496V118.774H24.692V120.466H26.492V122.644H24.692V124.336ZM34.689 124.336H32.493V122.644H30.693V120.466H32.493V118.774H34.689V120.466H36.489V122.644H34.689V124.336ZM44.686 124.336H42.49V122.644H40.69V120.466H42.49V118.774H44.686V120.466H46.486V122.644H44.686V124.336ZM54.6831 124.336H52.4871V122.644H50.6871V120.466H52.4871V118.774H54.6831V120.466H56.4831V122.644H54.6831V124.336ZM64.6801 124.336H62.4841V122.644H60.6841V120.466H62.4841V118.774H64.6801V120.466H66.4801V122.644H64.6801V124.336ZM74.6771 124.336H72.4811V122.644H70.6811V120.466H72.4811V118.774H74.6771V120.466H76.4771V122.644H74.6771V124.336ZM84.6741 124.336H82.4781V122.644H80.6781V120.466H82.4781V118.774H84.6741V120.466H86.4742V122.644H84.6741V124.336ZM94.6712 124.336H92.4752V122.644H90.6752V120.466H92.4752V118.774H94.6712V120.466H96.4712V122.644H94.6712V124.336ZM104.668 124.336H102.472V122.644H100.672V120.466H102.472V118.774H104.668V120.466H106.468V122.644H104.668V124.336ZM114.665 124.336H112.469V122.644H110.669V120.466H112.469V118.774H114.665V120.466H116.465V122.644H114.665V124.336ZM124.662 124.336H122.466V122.644H120.666V120.466H122.466V118.774H124.662V120.466H126.462V122.644H124.662V124.336ZM134.659 124.336H132.463V122.644H130.663V120.466H132.463V118.774H134.659V120.466H136.459V122.644H134.659V124.336ZM144.656 124.336H142.46V122.644H140.66V120.466H142.46V118.774H144.656V120.466H146.456V122.644H144.656V124.336ZM154.653 124.336H152.457V122.644H150.657V120.466H152.457V118.774H154.653V120.466H156.453V122.644H154.653V124.336ZM164.65 124.336H162.454V122.644H160.654V120.466H162.454V118.774H164.65V120.466H166.45V122.644H164.65V124.336ZM174.648 124.336H172.452V122.644H170.652V120.466H172.452V118.774H174.648V120.466H176.448V122.644H174.648V124.336ZM184.645 124.336H182.449V122.644H180.649V120.466H182.449V118.774H184.645V120.466H186.445V122.644H184.645V124.336ZM194.642 124.336H192.446V122.644H190.646V120.466H192.446V118.774H194.642V120.466H196.442V122.644H194.642V124.336ZM204.639 124.336H202.443V122.644H200.643V120.466H202.443V118.774H204.639V120.466H206.439V122.644H204.639V124.336ZM214.636 124.336H212.44V122.644H210.64V120.466H212.44V118.774H214.636V120.466H216.436V122.644H214.636V124.336ZM224.633 124.336H222.437V122.644H220.637V120.466H222.437V118.774H224.633V120.466H226.433V122.644H224.633V124.336ZM234.63 124.336H232.434V122.644H230.634V120.466H232.434V118.774H234.63V120.466H236.43V122.644H234.63V124.336ZM244.627 124.336H242.431V122.644H240.631V120.466H242.431V118.774H244.627V120.466H246.427V122.644H244.627V124.336Z" fill="#001AED"/>
<path d="M4.6979 132.336H2.5019V130.644H0.701904V128.466H2.5019V126.774H4.6979V128.466H6.4979V130.644H4.6979V132.336ZM14.6949 132.336H12.4989V130.644H10.6989V128.466H12.4989V126.774H14.6949V128.466H16.4949V130.644H14.6949V132.336ZM24.692 132.336H22.496V130.644H20.696V128.466H22.496V126.774H24.692V128.466H26.492V130.644H24.692V132.336ZM34.689 132.336H32.493V130.644H30.693V128.466H32.493V126.774H34.689V128.466H36.489V130.644H34.689V132.336ZM44.686 132.336H42.49V130.644H40.69V128.466H42.49V126.774H44.686V128.466H46.486V130.644H44.686V132.336ZM54.6831 132.336H52.4871V130.644H50.6871V128.466H52.4871V126.774H54.6831V128.466H56.4831V130.644H54.6831V132.336ZM64.6801 132.336H62.4841V130.644H60.6841V128.466H62.4841V126.774H64.6801V128.466H66.4801V130.644H64.6801V132.336ZM74.6771 132.336H72.4811V130.644H70.6811V128.466H72.4811V126.774H74.6771V128.466H76.4771V130.644H74.6771V132.336ZM84.6741 132.336H82.4781V130.644H80.6781V128.466H82.4781V126.774H84.6741V128.466H86.4742V130.644H84.6741V132.336ZM94.6712 132.336H92.4752V130.644H90.6752V128.466H92.4752V126.774H94.6712V128.466H96.4712V130.644H94.6712V132.336ZM104.668 132.336H102.472V130.644H100.672V128.466H102.472V126.774H104.668V128.466H106.468V130.644H104.668V132.336ZM114.665 132.336H112.469V130.644H110.669V128.466H112.469V126.774H114.665V128.466H116.465V130.644H114.665V132.336ZM124.662 132.336H122.466V130.644H120.666V128.466H122.466V126.774H124.662V128.466H126.462V130.644H124.662V132.336ZM134.659 132.336H132.463V130.644H130.663V128.466H132.463V126.774H134.659V128.466H136.459V130.644H134.659V132.336ZM144.656 132.336H142.46V130.644H140.66V128.466H142.46V126.774H144.656V128.466H146.456V130.644H144.656V132.336ZM154.653 132.336H152.457V130.644H150.657V128.466H152.457V126.774H154.653V128.466H156.453V130.644H154.653V132.336ZM164.65 132.336H162.454V130.644H160.654V128.466H162.454V126.774H164.65V128.466H166.45V130.644H164.65V132.336ZM174.648 132.336H172.452V130.644H170.652V128.466H172.452V126.774H174.648V128.466H176.448V130.644H174.648V132.336ZM184.645 132.336H182.449V130.644H180.649V128.466H182.449V126.774H184.645V128.466H186.445V130.644H184.645V132.336ZM194.642 132.336H192.446V130.644H190.646V128.466H192.446V126.774H194.642V128.466H196.442V130.644H194.642V132.336ZM204.639 132.336H202.443V130.644H200.643V128.466H202.443V126.774H204.639V128.466H206.439V130.644H204.639V132.336ZM214.636 132.336H212.44V130.644H210.64V128.466H212.44V126.774H214.636V128.466H216.436V130.644H214.636V132.336ZM224.633 132.336H222.437V130.644H220.637V128.466H222.437V126.774H224.633V128.466H226.433V130.644H224.633V132.336ZM234.63 132.336H232.434V130.644H230.634V128.466H232.434V126.774H234.63V128.466H236.43V130.644H234.63V132.336ZM244.627 132.336H242.431V130.644H240.631V128.466H242.431V126.774H244.627V128.466H246.427V130.644H244.627V132.336Z" fill="#001AED"/>
</svg>
