<svg width="40" height="544" viewBox="0 0 40 544" fill="none" xmlns="http://www.w3.org/2000/svg">
<circle cx="20" cy="20" r="6" fill="white"/>
<path d="M2 23V38H17" stroke="white" stroke-width="3"/>
<path d="M23 38L38 38L38 23" stroke="white" stroke-width="3"/>
<path d="M17 2L2 2L2 17" stroke="white" stroke-width="3"/>
<path d="M38 17L38 2L23 2" stroke="white" stroke-width="3"/>
<line x1="1" y1="72" x2="39" y2="72" stroke="white" stroke-width="2"/>
<line x1="1" y1="107" x2="39" y2="107" stroke="white" stroke-width="2"/>
<line x1="1" y1="140" x2="39" y2="140" stroke="white" stroke-width="2"/>
<line x1="1" y1="172" x2="39" y2="172" stroke="white" stroke-width="2"/>
<line x1="1" y1="207" x2="39" y2="207" stroke="white" stroke-width="2"/>
<line x1="1" y1="240" x2="39" y2="240" stroke="white" stroke-width="2"/>
<line x1="1" y1="273" x2="39" y2="273" stroke="white" stroke-width="2"/>
<line x1="1" y1="307" x2="39" y2="307" stroke="white" stroke-width="2"/>
<line x1="1" y1="340" x2="39" y2="340" stroke="white" stroke-width="2"/>
<line x1="1" y1="373" x2="39" y2="373" stroke="white" stroke-width="2"/>
<line x1="1" y1="373" x2="39" y2="373" stroke="white" stroke-width="2"/>
<line x1="1" y1="408" x2="39" y2="408" stroke="white" stroke-width="2"/>
<line x1="1" y1="442" x2="39" y2="442" stroke="white" stroke-width="2"/>
<line x1="1" y1="475" x2="39" y2="475" stroke="white" stroke-width="2"/>
<line x1="1" y1="508" x2="39" y2="508" stroke="white" stroke-width="2"/>
<line x1="1" y1="508" x2="39" y2="508" stroke="white" stroke-width="2"/>
<line x1="1" y1="543" x2="39" y2="543" stroke="white" stroke-width="2"/>
</svg>
