<svg width="1104" height="861" viewBox="0 0 1104 861" fill="none" xmlns="http://www.w3.org/2000/svg">
<g clip-path="url(#clip0)">
<path d="M71.5 0V861" stroke="#001AED"/>
<path d="M0.499794 0L0.499756 861" stroke="#001AED"/>
<path d="M145.5 0V861" stroke="#001AED"/>
<path d="M219.5 0V861" stroke="#001AED"/>
<path d="M293.5 0V861" stroke="#001AED"/>
<path d="M367.5 0V861" stroke="#001AED"/>
<path d="M441.5 0V861" stroke="#001AED"/>
<path d="M515.5 0V861" stroke="#001AED"/>
<path d="M589.5 0V861" stroke="#001AED"/>
<path d="M663.5 0V861" stroke="#001AED"/>
<path d="M737.5 0V861" stroke="#001AED"/>
<path d="M811.5 0V861" stroke="#001AED"/>
<path d="M885.5 0V861" stroke="#001AED"/>
<path d="M959.5 0V861" stroke="#001AED"/>
<path d="M1033.5 0V861" stroke="#001AED"/>
<path d="M1103.5 0V861" stroke="#001AED"/>
<path d="M1101.94 55.8877L0.0704346 56.4266" stroke="#001AED"/>
<path d="M1101.87 0.5L0.000610352 1.13952" stroke="#001AED"/>
<path d="M1102.02 113.616L0.150513 114.155" stroke="#001AED"/>
<path d="M1102.09 171.344L0.220581 171.883" stroke="#001AED"/>
<path d="M1102.17 229.072L0.300415 229.611" stroke="#001AED"/>
<path d="M1102.24 286.8L0.370483 287.339" stroke="#001AED"/>
<path d="M1102.32 344.528L0.450562 345.067" stroke="#001AED"/>
<path d="M1102.4 402.257L0.530396 402.796" stroke="#001AED"/>
<path d="M1102.47 459.985L0.600708 460.524" stroke="#001AED"/>
<path d="M1102.55 517.713L0.680542 518.252" stroke="#001AED"/>
<path d="M1102.62 575.441L0.75061 575.98" stroke="#001AED"/>
<path d="M1102.7 633.169L0.830688 633.708" stroke="#001AED"/>
<path d="M1102.78 690.897L0.910522 691.436" stroke="#001AED"/>
<path d="M1102.85 748.625L0.980591 749.164" stroke="#001AED"/>
<path d="M1102.93 806.353L1.06067 806.892" stroke="#001AED"/>
<path d="M1103 860.961L1.13049 861.5" stroke="#001AED"/>
</g>
<defs>
<clipPath id="clip0">
<rect width="1104" height="861" fill="white"/>
</clipPath>
</defs>
</svg>
