<svg width="227" height="815" viewBox="0 0 227 815" fill="none" xmlns="http://www.w3.org/2000/svg">
<path d="M10 325.5H10.5H10ZM10.5 325.5H42.5L105.5 262.5H121V231H90L10.5 310.5V325.5Z" stroke="#001AED"/>
<path d="M137.5 263.5V263V263.5ZM137.5 263V231H154L169.5 215.5H200.5V231.5L169 263H137.5Z" stroke="#001AED"/>
<path d="M90.5 310V279.5H122.5L201 358V373H168L105 310H90.5Z" stroke="#001AED"/>
<path d="M105 422V390H121V422H105Z" stroke="#001AED"/>
<path d="M120.5 327H89V343.5L58.5 374V404H75L120.5 358.5V327Z" stroke="#001AED"/>
<path d="M57.5 485V453.5H121.5L169.5 405.5V390.5H201V421.5L137.5 485H57.5Z" stroke="#001AED"/>
<path d="M10.5 580.5V595.5H41.5L105 532H119.5V502H89L10.5 580.5Z" stroke="#001AED"/>
<path d="M137.5 532.5V502H170.5L201 532.5V548.5H168.5L152.5 532.5H137.5Z" stroke="#001AED"/>
<path d="M90 580V565.5H121L137 581.5H153V612H122L90 580Z" stroke="#001AED"/>
<path d="M59 627.5V597H90L120.5 627.5V643H90L74.5 627.5H59Z" stroke="#001AED"/>
<path d="M199.5 629H171V643.5L138.5 676V706H153.5L199.5 660V629Z" stroke="#001AED"/>
<path d="M90 645H59V677H75L90 692V708L75 723V753.5H90L120.5 723V675.5L90 645Z" stroke="#001AED"/>
<path d="M74 692.5V722.5L42 755.5V787.5H27L10.5 771V738.5L42 707V692.5H74Z" stroke="#001AED"/>
<path d="M106 771V739H120.5V771H106Z" stroke="#001AED"/>
<path d="M184.5 771V739.5H201V771H184.5Z" stroke="#001AED"/>
<path d="M184 612.5V580.5H201V612.5H184Z" stroke="#001AED"/>
<path d="M57.5 169V151H89L121.5 183.5H137.5V215.5H104L57.5 169Z" stroke="#001AED"/>
<path d="M153 168H137.5V134L183.5 88H201V120L153 168Z" stroke="#001AED"/>
<path d="M10.5 41.5V41V41.5ZM10.5 41V24.5H42L121 103.5H137.5V136H105.5L10.5 41Z" stroke="#001AED"/>
<path d="M106 41.5V72.5H120.5V41.5H106Z" stroke="#001AED"/>
<path d="M185 41V72.5H201.5V41H185Z" stroke="#001AED"/>
<path d="M185 310.5C193.56 310.5 200.5 303.56 200.5 295C200.5 286.44 193.56 279.5 185 279.5C176.44 279.5 169.5 286.44 169.5 295C169.5 303.56 176.44 310.5 185 310.5Z" stroke="#001AED"/>
</svg>
