<svg width="1200" height="125" viewBox="0 0 1200 125" fill="none" xmlns="http://www.w3.org/2000/svg">
<g clip-path="url(#clip0)">
<path d="M601.216 -5.85352L528.588 128.762" stroke="black" stroke-width="15"/>
<path d="M567.506 -14.2095L485.121 128.953" stroke="black" stroke-width="15"/>
<path d="M523.061 -9.93604L440.676 133.226" stroke="black" stroke-width="15"/>
<path d="M481.869 -9.93604L399.484 133.226" stroke="black" stroke-width="15"/>
<path d="M442.844 -14.2095L360.459 128.953" stroke="black" stroke-width="15"/>
<path d="M401.652 -14.2095L319.267 128.953" stroke="black" stroke-width="15"/>
<path d="M357.208 -9.93604L274.823 133.226" stroke="black" stroke-width="15"/>
<path d="M316.015 -9.93604L233.63 133.226" stroke="black" stroke-width="15"/>
<path d="M276.991 -14.2095L194.606 128.953" stroke="black" stroke-width="15"/>
<path d="M233.63 -9.93604L151.245 133.226" stroke="black" stroke-width="15"/>
<path d="M194.606 -14.2095L112.221 128.953" stroke="black" stroke-width="15"/>
<path d="M153.414 -14.2095L71.0285 128.953" stroke="black" stroke-width="15"/>
<path d="M108.969 -9.93604L26.584 133.226" stroke="black" stroke-width="15"/>
<path d="M67.7765 -9.93604L-14.6083 133.226" stroke="black" stroke-width="15"/>
<path d="M28.7521 -14.2095L-53.6328 128.953" stroke="black" stroke-width="15"/>
<path d="M594.706 -9.11572L671.67 132.978" stroke="black" stroke-width="15"/>
<path d="M632.54 -8.23779L712.757 130.651" stroke="black" stroke-width="15"/>
<path d="M673.732 -8.23779L753.949 130.651" stroke="black" stroke-width="15"/>
<path d="M716.009 -7.16943L796.225 131.72" stroke="black" stroke-width="15"/>
<path d="M757.201 -8.23779L837.418 130.651" stroke="black" stroke-width="15"/>
<path d="M799.478 -6.10107L879.694 132.788" stroke="black" stroke-width="15"/>
<path d="M839.586 -8.23779L919.803 130.651" stroke="black" stroke-width="15"/>
<path d="M880.778 -8.23779L960.995 130.651" stroke="black" stroke-width="15"/>
<path d="M923.055 -7.16943L1003.27 131.72" stroke="black" stroke-width="15"/>
<path d="M964.247 -8.23779L1044.46 130.651" stroke="black" stroke-width="15"/>
<path d="M1006.52 -6.10107L1086.74 132.788" stroke="black" stroke-width="15"/>
<path d="M1046.63 -8.23779L1126.85 130.651" stroke="black" stroke-width="15"/>
<path d="M1088.91 -7.16943L1169.13 131.72" stroke="black" stroke-width="15"/>
<path d="M1130.1 -8.23779L1210.32 130.651" stroke="black" stroke-width="15"/>
<path d="M1172.38 -6.10107L1252.6 132.788" stroke="black" stroke-width="15"/>
<path d="M598.916 53.4185L634.12 127.938H563.712L598.916 53.4185Z" fill="black"/>
</g>
<defs>
<clipPath id="clip0">
<rect width="1200" height="125" fill="white"/>
</clipPath>
</defs>
</svg>
