<svg width="1200" height="125" viewBox="0 0 1200 125" fill="none" xmlns="http://www.w3.org/2000/svg">
<g clip-path="url(#clip0)">
<path d="M601.216 -5.85327L528.588 128.762" stroke="white" stroke-width="15"/>
<path d="M567.506 -14.2092L485.121 128.953" stroke="white" stroke-width="15"/>
<path d="M523.061 -9.93579L440.676 133.227" stroke="white" stroke-width="15"/>
<path d="M481.869 -9.93579L399.484 133.227" stroke="white" stroke-width="15"/>
<path d="M442.844 -14.2092L360.459 128.953" stroke="white" stroke-width="15"/>
<path d="M401.652 -14.2092L319.267 128.953" stroke="white" stroke-width="15"/>
<path d="M357.208 -9.93579L274.823 133.227" stroke="white" stroke-width="15"/>
<path d="M316.015 -9.93579L233.63 133.227" stroke="white" stroke-width="15"/>
<path d="M276.991 -14.2092L194.606 128.953" stroke="white" stroke-width="15"/>
<path d="M233.63 -9.93579L151.245 133.227" stroke="white" stroke-width="15"/>
<path d="M194.606 -14.2092L112.221 128.953" stroke="white" stroke-width="15"/>
<path d="M153.414 -14.2092L71.0285 128.953" stroke="white" stroke-width="15"/>
<path d="M108.969 -9.93579L26.584 133.227" stroke="white" stroke-width="15"/>
<path d="M67.7765 -9.93579L-14.6083 133.227" stroke="white" stroke-width="15"/>
<path d="M28.7521 -14.2092L-53.6328 128.953" stroke="white" stroke-width="15"/>
<path d="M594.706 -9.11523L671.67 132.979" stroke="white" stroke-width="15"/>
<path d="M632.54 -8.2373L712.757 130.652" stroke="white" stroke-width="15"/>
<path d="M673.732 -8.2373L753.949 130.652" stroke="white" stroke-width="15"/>
<path d="M716.009 -7.16895L796.225 131.72" stroke="white" stroke-width="15"/>
<path d="M757.201 -8.2373L837.418 130.652" stroke="white" stroke-width="15"/>
<path d="M799.478 -6.10059L879.694 132.789" stroke="white" stroke-width="15"/>
<path d="M839.586 -8.2373L919.803 130.652" stroke="white" stroke-width="15"/>
<path d="M880.778 -8.2373L960.995 130.652" stroke="white" stroke-width="15"/>
<path d="M923.055 -7.16895L1003.27 131.72" stroke="white" stroke-width="15"/>
<path d="M964.247 -8.2373L1044.46 130.652" stroke="white" stroke-width="15"/>
<path d="M1006.52 -6.10059L1086.74 132.789" stroke="white" stroke-width="15"/>
<path d="M1046.63 -8.2373L1126.85 130.652" stroke="white" stroke-width="15"/>
<path d="M1088.91 -7.16895L1169.13 131.72" stroke="white" stroke-width="15"/>
<path d="M1130.1 -8.2373L1210.32 130.652" stroke="white" stroke-width="15"/>
<path d="M1172.38 -6.10059L1252.6 132.789" stroke="white" stroke-width="15"/>
<path d="M598.916 53.4189L634.12 127.938H563.712L598.916 53.4189Z" fill="white"/>
</g>
<defs>
<clipPath id="clip0">
<rect width="1200" height="125" fill="white"/>
</clipPath>
</defs>
</svg>
