<svg width="40" height="544" viewBox="0 0 40 544" fill="none" xmlns="http://www.w3.org/2000/svg">
<path d="M20 26C23.3137 26 26 23.3137 26 20C26 16.6863 23.3137 14 20 14C16.6863 14 14 16.6863 14 20C14 23.3137 16.6863 26 20 26Z" fill="#001AED"/>
<path d="M2 23V38H17" stroke="#001AED" stroke-width="3"/>
<path d="M23 38H38V23" stroke="#001AED" stroke-width="3"/>
<path d="M17 2H2V17" stroke="#001AED" stroke-width="3"/>
<path d="M38 17V2H23" stroke="#001AED" stroke-width="3"/>
<path d="M1 72H39" stroke="#001AED" stroke-width="2"/>
<path d="M1 107H39" stroke="#001AED" stroke-width="2"/>
<path d="M1 140H39" stroke="#001AED" stroke-width="2"/>
<path d="M1 172H39" stroke="#001AED" stroke-width="2"/>
<path d="M1 207H39" stroke="#001AED" stroke-width="2"/>
<path d="M1 240H39" stroke="#001AED" stroke-width="2"/>
<path d="M1 273H39" stroke="#001AED" stroke-width="2"/>
<path d="M1 307H39" stroke="#001AED" stroke-width="2"/>
<path d="M1 340H39" stroke="#001AED" stroke-width="2"/>
<path d="M1 373H39" stroke="#001AED" stroke-width="2"/>
<path d="M1 373H39" stroke="#001AED" stroke-width="2"/>
<path d="M1 408H39" stroke="#001AED" stroke-width="2"/>
<path d="M1 442H39" stroke="#001AED" stroke-width="2"/>
<path d="M1 475H39" stroke="#001AED" stroke-width="2"/>
<path d="M1 508H39" stroke="#001AED" stroke-width="2"/>
<path d="M1 508H39" stroke="#001AED" stroke-width="2"/>
<path d="M1 543H39" stroke="#001AED" stroke-width="2"/>
</svg>
