<svg width="1107" height="117" viewBox="0 0 1107 117" fill="none" xmlns="http://www.w3.org/2000/svg">
<g clip-path="url(#clip0)">
<line x1="548.616" y1="-8.53199" x2="619.616" y2="124.468" stroke="white" stroke-width="15"/>
<line x1="583.518" y1="-7.71024" x2="657.518" y2="122.29" stroke="white" stroke-width="15"/>
<line x1="621.518" y1="-7.71024" x2="695.518" y2="122.29" stroke="white" stroke-width="15"/>
<line x1="660.518" y1="-6.71024" x2="734.518" y2="123.29" stroke="white" stroke-width="15"/>
<line x1="698.518" y1="-7.71024" x2="772.518" y2="122.29" stroke="white" stroke-width="15"/>
<line x1="737.518" y1="-5.71024" x2="811.518" y2="124.29" stroke="white" stroke-width="15"/>
<line x1="774.518" y1="-7.71024" x2="848.518" y2="122.29" stroke="white" stroke-width="15"/>
<line x1="812.518" y1="-7.71024" x2="886.518" y2="122.29" stroke="white" stroke-width="15"/>
<line x1="851.518" y1="-6.71024" x2="925.518" y2="123.29" stroke="white" stroke-width="15"/>
<line x1="889.518" y1="-7.71024" x2="963.518" y2="122.29" stroke="white" stroke-width="15"/>
<line x1="928.518" y1="-5.71024" x2="1002.52" y2="124.29" stroke="white" stroke-width="15"/>
<line x1="965.518" y1="-7.71024" x2="1039.52" y2="122.29" stroke="white" stroke-width="15"/>
<line x1="1004.52" y1="-6.71024" x2="1078.52" y2="123.29" stroke="white" stroke-width="15"/>
<line x1="1042.52" y1="-7.71024" x2="1116.52" y2="122.29" stroke="white" stroke-width="15"/>
<line x1="1081.52" y1="-5.71024" x2="1155.52" y2="124.29" stroke="white" stroke-width="15"/>
<line x1="-23.3837" y1="-8.53199" x2="47.6163" y2="124.468" stroke="white" stroke-width="15"/>
<line x1="-59.3837" y1="-8.53199" x2="11.6163" y2="124.468" stroke="white" stroke-width="15"/>
<line x1="11.518" y1="-7.71024" x2="85.518" y2="122.29" stroke="white" stroke-width="15"/>
<line x1="49.518" y1="-7.71024" x2="123.518" y2="122.29" stroke="white" stroke-width="15"/>
<line x1="88.518" y1="-6.71024" x2="162.518" y2="123.29" stroke="white" stroke-width="15"/>
<line x1="126.518" y1="-7.71024" x2="200.518" y2="122.29" stroke="white" stroke-width="15"/>
<line x1="165.518" y1="-5.71024" x2="239.518" y2="124.29" stroke="white" stroke-width="15"/>
<line x1="202.518" y1="-7.71024" x2="276.518" y2="122.29" stroke="white" stroke-width="15"/>
<line x1="240.518" y1="-7.71024" x2="314.518" y2="122.29" stroke="white" stroke-width="15"/>
<line x1="279.518" y1="-6.71024" x2="353.518" y2="123.29" stroke="white" stroke-width="15"/>
<line x1="317.518" y1="-7.71024" x2="391.518" y2="122.29" stroke="white" stroke-width="15"/>
<line x1="356.518" y1="-5.71024" x2="430.518" y2="124.29" stroke="white" stroke-width="15"/>
<line x1="393.518" y1="-7.71024" x2="467.518" y2="122.29" stroke="white" stroke-width="15"/>
<line x1="432.518" y1="-6.71024" x2="506.518" y2="123.29" stroke="white" stroke-width="15"/>
<line x1="470.518" y1="-7.71024" x2="544.518" y2="122.29" stroke="white" stroke-width="15"/>
<line x1="509.518" y1="-5.71024" x2="583.518" y2="124.29" stroke="white" stroke-width="15"/>
</g>
<defs>
<clipPath id="clip0">
<rect width="1107" height="117" fill="white"/>
</clipPath>
</defs>
</svg>
