<svg width="137" height="38" viewBox="0 0 137 38" fill="none" xmlns="http://www.w3.org/2000/svg">
<path d="M20.0699 3.39997H15.6959L10.4219 12.292L5.14793 3.39997H0.773926V16H4.01393V7.35997L9.25193 16H11.5919L16.8299 7.35997V16H20.0699V3.39997ZM44.0099 16H47.5919L41.0759 3.39997H36.7019L30.2039 16H33.7679L35.1179 13.318H42.6599L44.0099 16ZM36.3239 10.906L38.8979 5.79397L41.4539 10.906H36.3239ZM69.6513 3.39997H54.1713V6.11797H60.2913V16H63.5313V6.11797H69.6513V3.39997ZM83.3166 3.39997H80.0766V16H83.3166V3.39997ZM107.246 16H110.828L104.312 3.39997H99.9382L93.4402 16H97.0042L98.3542 13.318H105.896L107.246 16ZM99.5602 10.906L102.134 5.79397L104.69 10.906H99.5602ZM119.816 11.662C119.816 15.298 122.894 16.18 128.06 16.18C132.722 16.18 135.908 15.496 135.908 12.13C135.908 8.94397 132.83 8.67397 127.862 8.40397C124.19 8.18797 123.434 8.00797 123.434 7.03597C123.434 6.09997 124.19 5.79397 127.376 5.79397C130.742 5.79397 132.128 6.13597 132.128 7.52197H135.368C135.368 4.40797 132.488 3.21997 127.736 3.21997C123.02 3.21997 120.194 4.10197 120.194 6.87397C120.194 9.69997 122.372 10.564 127.862 10.816C131.948 11.014 132.668 11.194 132.668 12.238C132.668 13.228 131.642 13.606 128.24 13.606C124.136 13.606 123.056 12.994 123.056 11.662H119.816Z" fill="black"/>
<path d="M20.4979 24.026C20.4979 21.218 18.5359 19.4 15.6739 19.4H5.77393V32H9.01393V28.634H14.2339L16.2679 32H20.0839L17.7619 28.256C19.4539 27.59 20.4979 26.078 20.4979 24.026ZM9.01393 22.118H14.7739C15.7459 22.118 17.2579 22.118 17.2579 24.026C17.2579 25.916 15.7459 25.916 14.7739 25.916H9.01393V22.118ZM38.6591 32.18C44.1851 32.18 46.5791 29.858 46.5791 25.682C46.5791 21.524 44.1851 19.22 38.6591 19.22C33.1151 19.22 30.7391 21.506 30.7391 25.682C30.7391 29.876 33.1151 32.18 38.6591 32.18ZM38.6591 29.462C35.2931 29.462 33.9791 28.274 33.9791 25.682C33.9791 23.108 35.2751 21.938 38.6591 21.938C42.0431 21.938 43.3391 23.126 43.3391 25.682C43.3391 28.256 42.0251 29.462 38.6591 29.462ZM71.9049 19.4H62.6889V22.118H68.6649V25.682C68.6649 27.428 68.1789 29.462 64.3449 29.462C60.5109 29.462 60.0249 27.446 60.0249 25.682H56.7849C56.7849 30.074 59.1609 32.18 64.3449 32.18C69.5109 32.18 71.9049 30.056 71.9049 25.682V19.4ZM94.6244 32H98.2064L91.6904 19.4H87.3164L80.8184 32H84.3824L85.7324 29.318H93.2744L94.6244 32ZM86.9384 26.906L89.5124 21.794L92.0684 26.906H86.9384ZM107.194 27.662C107.194 31.298 110.272 32.18 115.438 32.18C120.1 32.18 123.286 31.496 123.286 28.13C123.286 24.944 120.208 24.674 115.24 24.404C111.568 24.188 110.812 24.008 110.812 23.036C110.812 22.1 111.568 21.794 114.754 21.794C118.12 21.794 119.506 22.136 119.506 23.522H122.746C122.746 20.408 119.866 19.22 115.114 19.22C110.398 19.22 107.572 20.102 107.572 22.874C107.572 25.7 109.75 26.564 115.24 26.816C119.326 27.014 120.046 27.194 120.046 28.238C120.046 29.228 119.02 29.606 115.618 29.606C111.514 29.606 110.434 28.994 110.434 27.662H107.194Z" fill="black"/>
</svg>
