<svg width="247" height="135" viewBox="0 0 247 135" fill="none" xmlns="http://www.w3.org/2000/svg">
<g clip-path="url(#clip0)">
<path d="M4.698 12.336H2.502V10.644H0.702V8.466H2.502V6.774H4.698V8.466H6.498V10.644H4.698V12.336ZM14.695 12.336H12.499V10.644H10.699V8.466H12.499V6.774H14.695V8.466H16.495V10.644H14.695V12.336ZM24.6921 12.336H22.4961V10.644H20.6961V8.466H22.4961V6.774H24.6921V8.466H26.4921V10.644H24.6921V12.336ZM34.6891 12.336H32.4931V10.644H30.6931V8.466H32.4931V6.774H34.6891V8.466H36.4891V10.644H34.6891V12.336ZM44.6861 12.336H42.4901V10.644H40.6901V8.466H42.4901V6.774H44.6861V8.466H46.4861V10.644H44.6861V12.336ZM54.6832 12.336H52.4872V10.644H50.6872V8.466H52.4872V6.774H54.6832V8.466H56.4832V10.644H54.6832V12.336ZM64.6802 12.336H62.4842V10.644H60.6842V8.466H62.4842V6.774H64.6802V8.466H66.4802V10.644H64.6802V12.336ZM74.6772 12.336H72.4812V10.644H70.6812V8.466H72.4812V6.774H74.6772V8.466H76.4772V10.644H74.6772V12.336ZM84.6742 12.336H82.4782V10.644H80.6782V8.466H82.4782V6.774H84.6742V8.466H86.4743V10.644H84.6742V12.336ZM94.6713 12.336H92.4753V10.644H90.6753V8.466H92.4753V6.774H94.6713V8.466H96.4713V10.644H94.6713V12.336ZM104.668 12.336H102.472V10.644H100.672V8.466H102.472V6.774H104.668V8.466H106.468V10.644H104.668V12.336ZM114.665 12.336H112.469V10.644H110.669V8.466H112.469V6.774H114.665V8.466H116.465V10.644H114.665V12.336ZM124.662 12.336H122.466V10.644H120.666V8.466H122.466V6.774H124.662V8.466H126.462V10.644H124.662V12.336ZM134.659 12.336H132.463V10.644H130.663V8.466H132.463V6.774H134.659V8.466H136.459V10.644H134.659V12.336ZM144.656 12.336H142.46V10.644H140.66V8.466H142.46V6.774H144.656V8.466H146.456V10.644H144.656V12.336ZM154.653 12.336H152.457V10.644H150.657V8.466H152.457V6.774H154.653V8.466H156.453V10.644H154.653V12.336ZM164.65 12.336H162.454V10.644H160.654V8.466H162.454V6.774H164.65V8.466H166.45V10.644H164.65V12.336ZM174.648 12.336H172.452V10.644H170.652V8.466H172.452V6.774H174.648V8.466H176.448V10.644H174.648V12.336ZM184.645 12.336H182.449V10.644H180.649V8.466H182.449V6.774H184.645V8.466H186.445V10.644H184.645V12.336ZM194.642 12.336H192.446V10.644H190.646V8.466H192.446V6.774H194.642V8.466H196.442V10.644H194.642V12.336ZM204.639 12.336H202.443V10.644H200.643V8.466H202.443V6.774H204.639V8.466H206.439V10.644H204.639V12.336ZM214.636 12.336H212.44V10.644H210.64V8.466H212.44V6.774H214.636V8.466H216.436V10.644H214.636V12.336ZM224.633 12.336H222.437V10.644H220.637V8.466H222.437V6.774H224.633V8.466H226.433V10.644H224.633V12.336ZM234.63 12.336H232.434V10.644H230.634V8.466H232.434V6.774H234.63V8.466H236.43V10.644H234.63V12.336ZM244.627 12.336H242.431V10.644H240.631V8.466H242.431V6.774H244.627V8.466H246.427V10.644H244.627V12.336Z" fill="white"/>
<path d="M4.698 20.336H2.502V18.644H0.702V16.466H2.502V14.774H4.698V16.466H6.498V18.644H4.698V20.336ZM14.695 20.336H12.499V18.644H10.699V16.466H12.499V14.774H14.695V16.466H16.495V18.644H14.695V20.336ZM24.6921 20.336H22.4961V18.644H20.6961V16.466H22.4961V14.774H24.6921V16.466H26.4921V18.644H24.6921V20.336ZM34.6891 20.336H32.4931V18.644H30.6931V16.466H32.4931V14.774H34.6891V16.466H36.4891V18.644H34.6891V20.336ZM44.6861 20.336H42.4901V18.644H40.6901V16.466H42.4901V14.774H44.6861V16.466H46.4861V18.644H44.6861V20.336ZM54.6832 20.336H52.4872V18.644H50.6872V16.466H52.4872V14.774H54.6832V16.466H56.4832V18.644H54.6832V20.336ZM64.6802 20.336H62.4842V18.644H60.6842V16.466H62.4842V14.774H64.6802V16.466H66.4802V18.644H64.6802V20.336ZM74.6772 20.336H72.4812V18.644H70.6812V16.466H72.4812V14.774H74.6772V16.466H76.4772V18.644H74.6772V20.336ZM84.6742 20.336H82.4782V18.644H80.6782V16.466H82.4782V14.774H84.6742V16.466H86.4743V18.644H84.6742V20.336ZM94.6713 20.336H92.4753V18.644H90.6753V16.466H92.4753V14.774H94.6713V16.466H96.4713V18.644H94.6713V20.336ZM104.668 20.336H102.472V18.644H100.672V16.466H102.472V14.774H104.668V16.466H106.468V18.644H104.668V20.336ZM114.665 20.336H112.469V18.644H110.669V16.466H112.469V14.774H114.665V16.466H116.465V18.644H114.665V20.336ZM124.662 20.336H122.466V18.644H120.666V16.466H122.466V14.774H124.662V16.466H126.462V18.644H124.662V20.336ZM134.659 20.336H132.463V18.644H130.663V16.466H132.463V14.774H134.659V16.466H136.459V18.644H134.659V20.336ZM144.656 20.336H142.46V18.644H140.66V16.466H142.46V14.774H144.656V16.466H146.456V18.644H144.656V20.336ZM154.653 20.336H152.457V18.644H150.657V16.466H152.457V14.774H154.653V16.466H156.453V18.644H154.653V20.336ZM164.65 20.336H162.454V18.644H160.654V16.466H162.454V14.774H164.65V16.466H166.45V18.644H164.65V20.336ZM174.648 20.336H172.452V18.644H170.652V16.466H172.452V14.774H174.648V16.466H176.448V18.644H174.648V20.336ZM184.645 20.336H182.449V18.644H180.649V16.466H182.449V14.774H184.645V16.466H186.445V18.644H184.645V20.336ZM194.642 20.336H192.446V18.644H190.646V16.466H192.446V14.774H194.642V16.466H196.442V18.644H194.642V20.336ZM204.639 20.336H202.443V18.644H200.643V16.466H202.443V14.774H204.639V16.466H206.439V18.644H204.639V20.336ZM214.636 20.336H212.44V18.644H210.64V16.466H212.44V14.774H214.636V16.466H216.436V18.644H214.636V20.336ZM224.633 20.336H222.437V18.644H220.637V16.466H222.437V14.774H224.633V16.466H226.433V18.644H224.633V20.336ZM234.63 20.336H232.434V18.644H230.634V16.466H232.434V14.774H234.63V16.466H236.43V18.644H234.63V20.336ZM244.627 20.336H242.431V18.644H240.631V16.466H242.431V14.774H244.627V16.466H246.427V18.644H244.627V20.336Z" fill="white"/>
<path d="M4.698 28.336H2.502V26.644H0.702V24.466H2.502V22.774H4.698V24.466H6.498V26.644H4.698V28.336ZM14.695 28.336H12.499V26.644H10.699V24.466H12.499V22.774H14.695V24.466H16.495V26.644H14.695V28.336ZM24.6921 28.336H22.4961V26.644H20.6961V24.466H22.4961V22.774H24.6921V24.466H26.4921V26.644H24.6921V28.336ZM34.6891 28.336H32.4931V26.644H30.6931V24.466H32.4931V22.774H34.6891V24.466H36.4891V26.644H34.6891V28.336ZM44.6861 28.336H42.4901V26.644H40.6901V24.466H42.4901V22.774H44.6861V24.466H46.4861V26.644H44.6861V28.336ZM54.6832 28.336H52.4872V26.644H50.6872V24.466H52.4872V22.774H54.6832V24.466H56.4832V26.644H54.6832V28.336ZM64.6802 28.336H62.4842V26.644H60.6842V24.466H62.4842V22.774H64.6802V24.466H66.4802V26.644H64.6802V28.336ZM74.6772 28.336H72.4812V26.644H70.6812V24.466H72.4812V22.774H74.6772V24.466H76.4772V26.644H74.6772V28.336ZM84.6742 28.336H82.4782V26.644H80.6782V24.466H82.4782V22.774H84.6742V24.466H86.4743V26.644H84.6742V28.336ZM94.6713 28.336H92.4753V26.644H90.6753V24.466H92.4753V22.774H94.6713V24.466H96.4713V26.644H94.6713V28.336ZM104.668 28.336H102.472V26.644H100.672V24.466H102.472V22.774H104.668V24.466H106.468V26.644H104.668V28.336ZM114.665 28.336H112.469V26.644H110.669V24.466H112.469V22.774H114.665V24.466H116.465V26.644H114.665V28.336ZM124.662 28.336H122.466V26.644H120.666V24.466H122.466V22.774H124.662V24.466H126.462V26.644H124.662V28.336ZM134.659 28.336H132.463V26.644H130.663V24.466H132.463V22.774H134.659V24.466H136.459V26.644H134.659V28.336ZM144.656 28.336H142.46V26.644H140.66V24.466H142.46V22.774H144.656V24.466H146.456V26.644H144.656V28.336ZM154.653 28.336H152.457V26.644H150.657V24.466H152.457V22.774H154.653V24.466H156.453V26.644H154.653V28.336ZM164.65 28.336H162.454V26.644H160.654V24.466H162.454V22.774H164.65V24.466H166.45V26.644H164.65V28.336ZM174.648 28.336H172.452V26.644H170.652V24.466H172.452V22.774H174.648V24.466H176.448V26.644H174.648V28.336ZM184.645 28.336H182.449V26.644H180.649V24.466H182.449V22.774H184.645V24.466H186.445V26.644H184.645V28.336ZM194.642 28.336H192.446V26.644H190.646V24.466H192.446V22.774H194.642V24.466H196.442V26.644H194.642V28.336ZM204.639 28.336H202.443V26.644H200.643V24.466H202.443V22.774H204.639V24.466H206.439V26.644H204.639V28.336ZM214.636 28.336H212.44V26.644H210.64V24.466H212.44V22.774H214.636V24.466H216.436V26.644H214.636V28.336ZM224.633 28.336H222.437V26.644H220.637V24.466H222.437V22.774H224.633V24.466H226.433V26.644H224.633V28.336ZM234.63 28.336H232.434V26.644H230.634V24.466H232.434V22.774H234.63V24.466H236.43V26.644H234.63V28.336ZM244.627 28.336H242.431V26.644H240.631V24.466H242.431V22.774H244.627V24.466H246.427V26.644H244.627V28.336Z" fill="white"/>
<path d="M4.698 36.336H2.502V34.644H0.702V32.466H2.502V30.774H4.698V32.466H6.498V34.644H4.698V36.336ZM14.695 36.336H12.499V34.644H10.699V32.466H12.499V30.774H14.695V32.466H16.495V34.644H14.695V36.336ZM24.6921 36.336H22.4961V34.644H20.6961V32.466H22.4961V30.774H24.6921V32.466H26.4921V34.644H24.6921V36.336ZM34.6891 36.336H32.4931V34.644H30.6931V32.466H32.4931V30.774H34.6891V32.466H36.4891V34.644H34.6891V36.336ZM44.6861 36.336H42.4901V34.644H40.6901V32.466H42.4901V30.774H44.6861V32.466H46.4861V34.644H44.6861V36.336ZM54.6832 36.336H52.4872V34.644H50.6872V32.466H52.4872V30.774H54.6832V32.466H56.4832V34.644H54.6832V36.336ZM64.6802 36.336H62.4842V34.644H60.6842V32.466H62.4842V30.774H64.6802V32.466H66.4802V34.644H64.6802V36.336ZM74.6772 36.336H72.4812V34.644H70.6812V32.466H72.4812V30.774H74.6772V32.466H76.4772V34.644H74.6772V36.336ZM84.6742 36.336H82.4782V34.644H80.6782V32.466H82.4782V30.774H84.6742V32.466H86.4743V34.644H84.6742V36.336ZM94.6713 36.336H92.4753V34.644H90.6753V32.466H92.4753V30.774H94.6713V32.466H96.4713V34.644H94.6713V36.336ZM104.668 36.336H102.472V34.644H100.672V32.466H102.472V30.774H104.668V32.466H106.468V34.644H104.668V36.336ZM114.665 36.336H112.469V34.644H110.669V32.466H112.469V30.774H114.665V32.466H116.465V34.644H114.665V36.336ZM124.662 36.336H122.466V34.644H120.666V32.466H122.466V30.774H124.662V32.466H126.462V34.644H124.662V36.336ZM134.659 36.336H132.463V34.644H130.663V32.466H132.463V30.774H134.659V32.466H136.459V34.644H134.659V36.336ZM144.656 36.336H142.46V34.644H140.66V32.466H142.46V30.774H144.656V32.466H146.456V34.644H144.656V36.336ZM154.653 36.336H152.457V34.644H150.657V32.466H152.457V30.774H154.653V32.466H156.453V34.644H154.653V36.336ZM164.65 36.336H162.454V34.644H160.654V32.466H162.454V30.774H164.65V32.466H166.45V34.644H164.65V36.336ZM174.648 36.336H172.452V34.644H170.652V32.466H172.452V30.774H174.648V32.466H176.448V34.644H174.648V36.336ZM184.645 36.336H182.449V34.644H180.649V32.466H182.449V30.774H184.645V32.466H186.445V34.644H184.645V36.336ZM194.642 36.336H192.446V34.644H190.646V32.466H192.446V30.774H194.642V32.466H196.442V34.644H194.642V36.336ZM204.639 36.336H202.443V34.644H200.643V32.466H202.443V30.774H204.639V32.466H206.439V34.644H204.639V36.336ZM214.636 36.336H212.44V34.644H210.64V32.466H212.44V30.774H214.636V32.466H216.436V34.644H214.636V36.336ZM224.633 36.336H222.437V34.644H220.637V32.466H222.437V30.774H224.633V32.466H226.433V34.644H224.633V36.336ZM234.63 36.336H232.434V34.644H230.634V32.466H232.434V30.774H234.63V32.466H236.43V34.644H234.63V36.336ZM244.627 36.336H242.431V34.644H240.631V32.466H242.431V30.774H244.627V32.466H246.427V34.644H244.627V36.336Z" fill="white"/>
<path d="M4.698 44.336H2.502V42.644H0.702V40.466H2.502V38.774H4.698V40.466H6.498V42.644H4.698V44.336ZM14.695 44.336H12.499V42.644H10.699V40.466H12.499V38.774H14.695V40.466H16.495V42.644H14.695V44.336ZM24.6921 44.336H22.4961V42.644H20.6961V40.466H22.4961V38.774H24.6921V40.466H26.4921V42.644H24.6921V44.336ZM34.6891 44.336H32.4931V42.644H30.6931V40.466H32.4931V38.774H34.6891V40.466H36.4891V42.644H34.6891V44.336ZM44.6861 44.336H42.4901V42.644H40.6901V40.466H42.4901V38.774H44.6861V40.466H46.4861V42.644H44.6861V44.336ZM54.6832 44.336H52.4872V42.644H50.6872V40.466H52.4872V38.774H54.6832V40.466H56.4832V42.644H54.6832V44.336ZM64.6802 44.336H62.4842V42.644H60.6842V40.466H62.4842V38.774H64.6802V40.466H66.4802V42.644H64.6802V44.336ZM74.6772 44.336H72.4812V42.644H70.6812V40.466H72.4812V38.774H74.6772V40.466H76.4772V42.644H74.6772V44.336ZM84.6742 44.336H82.4782V42.644H80.6782V40.466H82.4782V38.774H84.6742V40.466H86.4743V42.644H84.6742V44.336ZM94.6713 44.336H92.4753V42.644H90.6753V40.466H92.4753V38.774H94.6713V40.466H96.4713V42.644H94.6713V44.336ZM104.668 44.336H102.472V42.644H100.672V40.466H102.472V38.774H104.668V40.466H106.468V42.644H104.668V44.336ZM114.665 44.336H112.469V42.644H110.669V40.466H112.469V38.774H114.665V40.466H116.465V42.644H114.665V44.336ZM124.662 44.336H122.466V42.644H120.666V40.466H122.466V38.774H124.662V40.466H126.462V42.644H124.662V44.336ZM134.659 44.336H132.463V42.644H130.663V40.466H132.463V38.774H134.659V40.466H136.459V42.644H134.659V44.336ZM144.656 44.336H142.46V42.644H140.66V40.466H142.46V38.774H144.656V40.466H146.456V42.644H144.656V44.336ZM154.653 44.336H152.457V42.644H150.657V40.466H152.457V38.774H154.653V40.466H156.453V42.644H154.653V44.336ZM164.65 44.336H162.454V42.644H160.654V40.466H162.454V38.774H164.65V40.466H166.45V42.644H164.65V44.336ZM174.648 44.336H172.452V42.644H170.652V40.466H172.452V38.774H174.648V40.466H176.448V42.644H174.648V44.336ZM184.645 44.336H182.449V42.644H180.649V40.466H182.449V38.774H184.645V40.466H186.445V42.644H184.645V44.336ZM194.642 44.336H192.446V42.644H190.646V40.466H192.446V38.774H194.642V40.466H196.442V42.644H194.642V44.336ZM204.639 44.336H202.443V42.644H200.643V40.466H202.443V38.774H204.639V40.466H206.439V42.644H204.639V44.336ZM214.636 44.336H212.44V42.644H210.64V40.466H212.44V38.774H214.636V40.466H216.436V42.644H214.636V44.336ZM224.633 44.336H222.437V42.644H220.637V40.466H222.437V38.774H224.633V40.466H226.433V42.644H224.633V44.336ZM234.63 44.336H232.434V42.644H230.634V40.466H232.434V38.774H234.63V40.466H236.43V42.644H234.63V44.336ZM244.627 44.336H242.431V42.644H240.631V40.466H242.431V38.774H244.627V40.466H246.427V42.644H244.627V44.336Z" fill="white"/>
<path d="M4.698 52.336H2.502V50.644H0.702V48.466H2.502V46.774H4.698V48.466H6.498V50.644H4.698V52.336ZM14.695 52.336H12.499V50.644H10.699V48.466H12.499V46.774H14.695V48.466H16.495V50.644H14.695V52.336ZM24.6921 52.336H22.4961V50.644H20.6961V48.466H22.4961V46.774H24.6921V48.466H26.4921V50.644H24.6921V52.336ZM34.6891 52.336H32.4931V50.644H30.6931V48.466H32.4931V46.774H34.6891V48.466H36.4891V50.644H34.6891V52.336ZM44.6861 52.336H42.4901V50.644H40.6901V48.466H42.4901V46.774H44.6861V48.466H46.4861V50.644H44.6861V52.336ZM54.6832 52.336H52.4872V50.644H50.6872V48.466H52.4872V46.774H54.6832V48.466H56.4832V50.644H54.6832V52.336ZM64.6802 52.336H62.4842V50.644H60.6842V48.466H62.4842V46.774H64.6802V48.466H66.4802V50.644H64.6802V52.336ZM74.6772 52.336H72.4812V50.644H70.6812V48.466H72.4812V46.774H74.6772V48.466H76.4772V50.644H74.6772V52.336ZM84.6742 52.336H82.4782V50.644H80.6782V48.466H82.4782V46.774H84.6742V48.466H86.4743V50.644H84.6742V52.336ZM94.6713 52.336H92.4753V50.644H90.6753V48.466H92.4753V46.774H94.6713V48.466H96.4713V50.644H94.6713V52.336ZM104.668 52.336H102.472V50.644H100.672V48.466H102.472V46.774H104.668V48.466H106.468V50.644H104.668V52.336ZM114.665 52.336H112.469V50.644H110.669V48.466H112.469V46.774H114.665V48.466H116.465V50.644H114.665V52.336ZM124.662 52.336H122.466V50.644H120.666V48.466H122.466V46.774H124.662V48.466H126.462V50.644H124.662V52.336ZM134.659 52.336H132.463V50.644H130.663V48.466H132.463V46.774H134.659V48.466H136.459V50.644H134.659V52.336ZM144.656 52.336H142.46V50.644H140.66V48.466H142.46V46.774H144.656V48.466H146.456V50.644H144.656V52.336ZM154.653 52.336H152.457V50.644H150.657V48.466H152.457V46.774H154.653V48.466H156.453V50.644H154.653V52.336ZM164.65 52.336H162.454V50.644H160.654V48.466H162.454V46.774H164.65V48.466H166.45V50.644H164.65V52.336ZM174.648 52.336H172.452V50.644H170.652V48.466H172.452V46.774H174.648V48.466H176.448V50.644H174.648V52.336ZM184.645 52.336H182.449V50.644H180.649V48.466H182.449V46.774H184.645V48.466H186.445V50.644H184.645V52.336ZM194.642 52.336H192.446V50.644H190.646V48.466H192.446V46.774H194.642V48.466H196.442V50.644H194.642V52.336ZM204.639 52.336H202.443V50.644H200.643V48.466H202.443V46.774H204.639V48.466H206.439V50.644H204.639V52.336ZM214.636 52.336H212.44V50.644H210.64V48.466H212.44V46.774H214.636V48.466H216.436V50.644H214.636V52.336ZM224.633 52.336H222.437V50.644H220.637V48.466H222.437V46.774H224.633V48.466H226.433V50.644H224.633V52.336ZM234.63 52.336H232.434V50.644H230.634V48.466H232.434V46.774H234.63V48.466H236.43V50.644H234.63V52.336ZM244.627 52.336H242.431V50.644H240.631V48.466H242.431V46.774H244.627V48.466H246.427V50.644H244.627V52.336Z" fill="white"/>
<path d="M4.698 60.336H2.502V58.644H0.702V56.466H2.502V54.774H4.698V56.466H6.498V58.644H4.698V60.336ZM14.695 60.336H12.499V58.644H10.699V56.466H12.499V54.774H14.695V56.466H16.495V58.644H14.695V60.336ZM24.6921 60.336H22.4961V58.644H20.6961V56.466H22.4961V54.774H24.6921V56.466H26.4921V58.644H24.6921V60.336ZM34.6891 60.336H32.4931V58.644H30.6931V56.466H32.4931V54.774H34.6891V56.466H36.4891V58.644H34.6891V60.336ZM44.6861 60.336H42.4901V58.644H40.6901V56.466H42.4901V54.774H44.6861V56.466H46.4861V58.644H44.6861V60.336ZM54.6832 60.336H52.4872V58.644H50.6872V56.466H52.4872V54.774H54.6832V56.466H56.4832V58.644H54.6832V60.336ZM64.6802 60.336H62.4842V58.644H60.6842V56.466H62.4842V54.774H64.6802V56.466H66.4802V58.644H64.6802V60.336ZM74.6772 60.336H72.4812V58.644H70.6812V56.466H72.4812V54.774H74.6772V56.466H76.4772V58.644H74.6772V60.336ZM84.6742 60.336H82.4782V58.644H80.6782V56.466H82.4782V54.774H84.6742V56.466H86.4743V58.644H84.6742V60.336ZM94.6713 60.336H92.4753V58.644H90.6753V56.466H92.4753V54.774H94.6713V56.466H96.4713V58.644H94.6713V60.336ZM104.668 60.336H102.472V58.644H100.672V56.466H102.472V54.774H104.668V56.466H106.468V58.644H104.668V60.336ZM114.665 60.336H112.469V58.644H110.669V56.466H112.469V54.774H114.665V56.466H116.465V58.644H114.665V60.336ZM124.662 60.336H122.466V58.644H120.666V56.466H122.466V54.774H124.662V56.466H126.462V58.644H124.662V60.336ZM134.659 60.336H132.463V58.644H130.663V56.466H132.463V54.774H134.659V56.466H136.459V58.644H134.659V60.336ZM144.656 60.336H142.46V58.644H140.66V56.466H142.46V54.774H144.656V56.466H146.456V58.644H144.656V60.336ZM154.653 60.336H152.457V58.644H150.657V56.466H152.457V54.774H154.653V56.466H156.453V58.644H154.653V60.336ZM164.65 60.336H162.454V58.644H160.654V56.466H162.454V54.774H164.65V56.466H166.45V58.644H164.65V60.336ZM174.648 60.336H172.452V58.644H170.652V56.466H172.452V54.774H174.648V56.466H176.448V58.644H174.648V60.336ZM184.645 60.336H182.449V58.644H180.649V56.466H182.449V54.774H184.645V56.466H186.445V58.644H184.645V60.336ZM194.642 60.336H192.446V58.644H190.646V56.466H192.446V54.774H194.642V56.466H196.442V58.644H194.642V60.336ZM204.639 60.336H202.443V58.644H200.643V56.466H202.443V54.774H204.639V56.466H206.439V58.644H204.639V60.336ZM214.636 60.336H212.44V58.644H210.64V56.466H212.44V54.774H214.636V56.466H216.436V58.644H214.636V60.336ZM224.633 60.336H222.437V58.644H220.637V56.466H222.437V54.774H224.633V56.466H226.433V58.644H224.633V60.336ZM234.63 60.336H232.434V58.644H230.634V56.466H232.434V54.774H234.63V56.466H236.43V58.644H234.63V60.336ZM244.627 60.336H242.431V58.644H240.631V56.466H242.431V54.774H244.627V56.466H246.427V58.644H244.627V60.336Z" fill="white"/>
<path d="M4.698 68.336H2.502V66.644H0.702V64.466H2.502V62.774H4.698V64.466H6.498V66.644H4.698V68.336ZM14.695 68.336H12.499V66.644H10.699V64.466H12.499V62.774H14.695V64.466H16.495V66.644H14.695V68.336ZM24.6921 68.336H22.4961V66.644H20.6961V64.466H22.4961V62.774H24.6921V64.466H26.4921V66.644H24.6921V68.336ZM34.6891 68.336H32.4931V66.644H30.6931V64.466H32.4931V62.774H34.6891V64.466H36.4891V66.644H34.6891V68.336ZM44.6861 68.336H42.4901V66.644H40.6901V64.466H42.4901V62.774H44.6861V64.466H46.4861V66.644H44.6861V68.336ZM54.6832 68.336H52.4872V66.644H50.6872V64.466H52.4872V62.774H54.6832V64.466H56.4832V66.644H54.6832V68.336ZM64.6802 68.336H62.4842V66.644H60.6842V64.466H62.4842V62.774H64.6802V64.466H66.4802V66.644H64.6802V68.336ZM74.6772 68.336H72.4812V66.644H70.6812V64.466H72.4812V62.774H74.6772V64.466H76.4772V66.644H74.6772V68.336ZM84.6742 68.336H82.4782V66.644H80.6782V64.466H82.4782V62.774H84.6742V64.466H86.4743V66.644H84.6742V68.336ZM94.6713 68.336H92.4753V66.644H90.6753V64.466H92.4753V62.774H94.6713V64.466H96.4713V66.644H94.6713V68.336ZM104.668 68.336H102.472V66.644H100.672V64.466H102.472V62.774H104.668V64.466H106.468V66.644H104.668V68.336ZM114.665 68.336H112.469V66.644H110.669V64.466H112.469V62.774H114.665V64.466H116.465V66.644H114.665V68.336ZM124.662 68.336H122.466V66.644H120.666V64.466H122.466V62.774H124.662V64.466H126.462V66.644H124.662V68.336ZM134.659 68.336H132.463V66.644H130.663V64.466H132.463V62.774H134.659V64.466H136.459V66.644H134.659V68.336ZM144.656 68.336H142.46V66.644H140.66V64.466H142.46V62.774H144.656V64.466H146.456V66.644H144.656V68.336ZM154.653 68.336H152.457V66.644H150.657V64.466H152.457V62.774H154.653V64.466H156.453V66.644H154.653V68.336ZM164.65 68.336H162.454V66.644H160.654V64.466H162.454V62.774H164.65V64.466H166.45V66.644H164.65V68.336ZM174.648 68.336H172.452V66.644H170.652V64.466H172.452V62.774H174.648V64.466H176.448V66.644H174.648V68.336ZM184.645 68.336H182.449V66.644H180.649V64.466H182.449V62.774H184.645V64.466H186.445V66.644H184.645V68.336ZM194.642 68.336H192.446V66.644H190.646V64.466H192.446V62.774H194.642V64.466H196.442V66.644H194.642V68.336ZM204.639 68.336H202.443V66.644H200.643V64.466H202.443V62.774H204.639V64.466H206.439V66.644H204.639V68.336ZM214.636 68.336H212.44V66.644H210.64V64.466H212.44V62.774H214.636V64.466H216.436V66.644H214.636V68.336ZM224.633 68.336H222.437V66.644H220.637V64.466H222.437V62.774H224.633V64.466H226.433V66.644H224.633V68.336ZM234.63 68.336H232.434V66.644H230.634V64.466H232.434V62.774H234.63V64.466H236.43V66.644H234.63V68.336ZM244.627 68.336H242.431V66.644H240.631V64.466H242.431V62.774H244.627V64.466H246.427V66.644H244.627V68.336Z" fill="white"/>
<path d="M4.698 76.336H2.502V74.644H0.702V72.466H2.502V70.774H4.698V72.466H6.498V74.644H4.698V76.336ZM14.695 76.336H12.499V74.644H10.699V72.466H12.499V70.774H14.695V72.466H16.495V74.644H14.695V76.336ZM24.6921 76.336H22.4961V74.644H20.6961V72.466H22.4961V70.774H24.6921V72.466H26.4921V74.644H24.6921V76.336ZM34.6891 76.336H32.4931V74.644H30.6931V72.466H32.4931V70.774H34.6891V72.466H36.4891V74.644H34.6891V76.336ZM44.6861 76.336H42.4901V74.644H40.6901V72.466H42.4901V70.774H44.6861V72.466H46.4861V74.644H44.6861V76.336ZM54.6832 76.336H52.4872V74.644H50.6872V72.466H52.4872V70.774H54.6832V72.466H56.4832V74.644H54.6832V76.336ZM64.6802 76.336H62.4842V74.644H60.6842V72.466H62.4842V70.774H64.6802V72.466H66.4802V74.644H64.6802V76.336ZM74.6772 76.336H72.4812V74.644H70.6812V72.466H72.4812V70.774H74.6772V72.466H76.4772V74.644H74.6772V76.336ZM84.6742 76.336H82.4782V74.644H80.6782V72.466H82.4782V70.774H84.6742V72.466H86.4743V74.644H84.6742V76.336ZM94.6713 76.336H92.4753V74.644H90.6753V72.466H92.4753V70.774H94.6713V72.466H96.4713V74.644H94.6713V76.336ZM104.668 76.336H102.472V74.644H100.672V72.466H102.472V70.774H104.668V72.466H106.468V74.644H104.668V76.336ZM114.665 76.336H112.469V74.644H110.669V72.466H112.469V70.774H114.665V72.466H116.465V74.644H114.665V76.336ZM124.662 76.336H122.466V74.644H120.666V72.466H122.466V70.774H124.662V72.466H126.462V74.644H124.662V76.336ZM134.659 76.336H132.463V74.644H130.663V72.466H132.463V70.774H134.659V72.466H136.459V74.644H134.659V76.336ZM144.656 76.336H142.46V74.644H140.66V72.466H142.46V70.774H144.656V72.466H146.456V74.644H144.656V76.336ZM154.653 76.336H152.457V74.644H150.657V72.466H152.457V70.774H154.653V72.466H156.453V74.644H154.653V76.336ZM164.65 76.336H162.454V74.644H160.654V72.466H162.454V70.774H164.65V72.466H166.45V74.644H164.65V76.336ZM174.648 76.336H172.452V74.644H170.652V72.466H172.452V70.774H174.648V72.466H176.448V74.644H174.648V76.336ZM184.645 76.336H182.449V74.644H180.649V72.466H182.449V70.774H184.645V72.466H186.445V74.644H184.645V76.336ZM194.642 76.336H192.446V74.644H190.646V72.466H192.446V70.774H194.642V72.466H196.442V74.644H194.642V76.336ZM204.639 76.336H202.443V74.644H200.643V72.466H202.443V70.774H204.639V72.466H206.439V74.644H204.639V76.336ZM214.636 76.336H212.44V74.644H210.64V72.466H212.44V70.774H214.636V72.466H216.436V74.644H214.636V76.336ZM224.633 76.336H222.437V74.644H220.637V72.466H222.437V70.774H224.633V72.466H226.433V74.644H224.633V76.336ZM234.63 76.336H232.434V74.644H230.634V72.466H232.434V70.774H234.63V72.466H236.43V74.644H234.63V76.336ZM244.627 76.336H242.431V74.644H240.631V72.466H242.431V70.774H244.627V72.466H246.427V74.644H244.627V76.336Z" fill="white"/>
<path d="M4.698 84.336H2.502V82.644H0.702V80.466H2.502V78.774H4.698V80.466H6.498V82.644H4.698V84.336ZM14.695 84.336H12.499V82.644H10.699V80.466H12.499V78.774H14.695V80.466H16.495V82.644H14.695V84.336ZM24.6921 84.336H22.4961V82.644H20.6961V80.466H22.4961V78.774H24.6921V80.466H26.4921V82.644H24.6921V84.336ZM34.6891 84.336H32.4931V82.644H30.6931V80.466H32.4931V78.774H34.6891V80.466H36.4891V82.644H34.6891V84.336ZM44.6861 84.336H42.4901V82.644H40.6901V80.466H42.4901V78.774H44.6861V80.466H46.4861V82.644H44.6861V84.336ZM54.6832 84.336H52.4872V82.644H50.6872V80.466H52.4872V78.774H54.6832V80.466H56.4832V82.644H54.6832V84.336ZM64.6802 84.336H62.4842V82.644H60.6842V80.466H62.4842V78.774H64.6802V80.466H66.4802V82.644H64.6802V84.336ZM74.6772 84.336H72.4812V82.644H70.6812V80.466H72.4812V78.774H74.6772V80.466H76.4772V82.644H74.6772V84.336ZM84.6742 84.336H82.4782V82.644H80.6782V80.466H82.4782V78.774H84.6742V80.466H86.4743V82.644H84.6742V84.336ZM94.6713 84.336H92.4753V82.644H90.6753V80.466H92.4753V78.774H94.6713V80.466H96.4713V82.644H94.6713V84.336ZM104.668 84.336H102.472V82.644H100.672V80.466H102.472V78.774H104.668V80.466H106.468V82.644H104.668V84.336ZM114.665 84.336H112.469V82.644H110.669V80.466H112.469V78.774H114.665V80.466H116.465V82.644H114.665V84.336ZM124.662 84.336H122.466V82.644H120.666V80.466H122.466V78.774H124.662V80.466H126.462V82.644H124.662V84.336ZM134.659 84.336H132.463V82.644H130.663V80.466H132.463V78.774H134.659V80.466H136.459V82.644H134.659V84.336ZM144.656 84.336H142.46V82.644H140.66V80.466H142.46V78.774H144.656V80.466H146.456V82.644H144.656V84.336ZM154.653 84.336H152.457V82.644H150.657V80.466H152.457V78.774H154.653V80.466H156.453V82.644H154.653V84.336ZM164.65 84.336H162.454V82.644H160.654V80.466H162.454V78.774H164.65V80.466H166.45V82.644H164.65V84.336ZM174.648 84.336H172.452V82.644H170.652V80.466H172.452V78.774H174.648V80.466H176.448V82.644H174.648V84.336ZM184.645 84.336H182.449V82.644H180.649V80.466H182.449V78.774H184.645V80.466H186.445V82.644H184.645V84.336ZM194.642 84.336H192.446V82.644H190.646V80.466H192.446V78.774H194.642V80.466H196.442V82.644H194.642V84.336ZM204.639 84.336H202.443V82.644H200.643V80.466H202.443V78.774H204.639V80.466H206.439V82.644H204.639V84.336ZM214.636 84.336H212.44V82.644H210.64V80.466H212.44V78.774H214.636V80.466H216.436V82.644H214.636V84.336ZM224.633 84.336H222.437V82.644H220.637V80.466H222.437V78.774H224.633V80.466H226.433V82.644H224.633V84.336ZM234.63 84.336H232.434V82.644H230.634V80.466H232.434V78.774H234.63V80.466H236.43V82.644H234.63V84.336ZM244.627 84.336H242.431V82.644H240.631V80.466H242.431V78.774H244.627V80.466H246.427V82.644H244.627V84.336Z" fill="white"/>
<path d="M4.698 92.336H2.502V90.644H0.702V88.466H2.502V86.774H4.698V88.466H6.498V90.644H4.698V92.336ZM14.695 92.336H12.499V90.644H10.699V88.466H12.499V86.774H14.695V88.466H16.495V90.644H14.695V92.336ZM24.6921 92.336H22.4961V90.644H20.6961V88.466H22.4961V86.774H24.6921V88.466H26.4921V90.644H24.6921V92.336ZM34.6891 92.336H32.4931V90.644H30.6931V88.466H32.4931V86.774H34.6891V88.466H36.4891V90.644H34.6891V92.336ZM44.6861 92.336H42.4901V90.644H40.6901V88.466H42.4901V86.774H44.6861V88.466H46.4861V90.644H44.6861V92.336ZM54.6832 92.336H52.4872V90.644H50.6872V88.466H52.4872V86.774H54.6832V88.466H56.4832V90.644H54.6832V92.336ZM64.6802 92.336H62.4842V90.644H60.6842V88.466H62.4842V86.774H64.6802V88.466H66.4802V90.644H64.6802V92.336ZM74.6772 92.336H72.4812V90.644H70.6812V88.466H72.4812V86.774H74.6772V88.466H76.4772V90.644H74.6772V92.336ZM84.6742 92.336H82.4782V90.644H80.6782V88.466H82.4782V86.774H84.6742V88.466H86.4743V90.644H84.6742V92.336ZM94.6713 92.336H92.4753V90.644H90.6753V88.466H92.4753V86.774H94.6713V88.466H96.4713V90.644H94.6713V92.336ZM104.668 92.336H102.472V90.644H100.672V88.466H102.472V86.774H104.668V88.466H106.468V90.644H104.668V92.336ZM114.665 92.336H112.469V90.644H110.669V88.466H112.469V86.774H114.665V88.466H116.465V90.644H114.665V92.336ZM124.662 92.336H122.466V90.644H120.666V88.466H122.466V86.774H124.662V88.466H126.462V90.644H124.662V92.336ZM134.659 92.336H132.463V90.644H130.663V88.466H132.463V86.774H134.659V88.466H136.459V90.644H134.659V92.336ZM144.656 92.336H142.46V90.644H140.66V88.466H142.46V86.774H144.656V88.466H146.456V90.644H144.656V92.336ZM154.653 92.336H152.457V90.644H150.657V88.466H152.457V86.774H154.653V88.466H156.453V90.644H154.653V92.336ZM164.65 92.336H162.454V90.644H160.654V88.466H162.454V86.774H164.65V88.466H166.45V90.644H164.65V92.336ZM174.648 92.336H172.452V90.644H170.652V88.466H172.452V86.774H174.648V88.466H176.448V90.644H174.648V92.336ZM184.645 92.336H182.449V90.644H180.649V88.466H182.449V86.774H184.645V88.466H186.445V90.644H184.645V92.336ZM194.642 92.336H192.446V90.644H190.646V88.466H192.446V86.774H194.642V88.466H196.442V90.644H194.642V92.336ZM204.639 92.336H202.443V90.644H200.643V88.466H202.443V86.774H204.639V88.466H206.439V90.644H204.639V92.336ZM214.636 92.336H212.44V90.644H210.64V88.466H212.44V86.774H214.636V88.466H216.436V90.644H214.636V92.336ZM224.633 92.336H222.437V90.644H220.637V88.466H222.437V86.774H224.633V88.466H226.433V90.644H224.633V92.336ZM234.63 92.336H232.434V90.644H230.634V88.466H232.434V86.774H234.63V88.466H236.43V90.644H234.63V92.336ZM244.627 92.336H242.431V90.644H240.631V88.466H242.431V86.774H244.627V88.466H246.427V90.644H244.627V92.336Z" fill="white"/>
<path d="M4.698 100.336H2.502V98.644H0.702V96.466H2.502V94.774H4.698V96.466H6.498V98.644H4.698V100.336ZM14.695 100.336H12.499V98.644H10.699V96.466H12.499V94.774H14.695V96.466H16.495V98.644H14.695V100.336ZM24.6921 100.336H22.4961V98.644H20.6961V96.466H22.4961V94.774H24.6921V96.466H26.4921V98.644H24.6921V100.336ZM34.6891 100.336H32.4931V98.644H30.6931V96.466H32.4931V94.774H34.6891V96.466H36.4891V98.644H34.6891V100.336ZM44.6861 100.336H42.4901V98.644H40.6901V96.466H42.4901V94.774H44.6861V96.466H46.4861V98.644H44.6861V100.336ZM54.6832 100.336H52.4872V98.644H50.6872V96.466H52.4872V94.774H54.6832V96.466H56.4832V98.644H54.6832V100.336ZM64.6802 100.336H62.4842V98.644H60.6842V96.466H62.4842V94.774H64.6802V96.466H66.4802V98.644H64.6802V100.336ZM74.6772 100.336H72.4812V98.644H70.6812V96.466H72.4812V94.774H74.6772V96.466H76.4772V98.644H74.6772V100.336ZM84.6742 100.336H82.4782V98.644H80.6782V96.466H82.4782V94.774H84.6742V96.466H86.4743V98.644H84.6742V100.336ZM94.6713 100.336H92.4753V98.644H90.6753V96.466H92.4753V94.774H94.6713V96.466H96.4713V98.644H94.6713V100.336ZM104.668 100.336H102.472V98.644H100.672V96.466H102.472V94.774H104.668V96.466H106.468V98.644H104.668V100.336ZM114.665 100.336H112.469V98.644H110.669V96.466H112.469V94.774H114.665V96.466H116.465V98.644H114.665V100.336ZM124.662 100.336H122.466V98.644H120.666V96.466H122.466V94.774H124.662V96.466H126.462V98.644H124.662V100.336ZM134.659 100.336H132.463V98.644H130.663V96.466H132.463V94.774H134.659V96.466H136.459V98.644H134.659V100.336ZM144.656 100.336H142.46V98.644H140.66V96.466H142.46V94.774H144.656V96.466H146.456V98.644H144.656V100.336ZM154.653 100.336H152.457V98.644H150.657V96.466H152.457V94.774H154.653V96.466H156.453V98.644H154.653V100.336ZM164.65 100.336H162.454V98.644H160.654V96.466H162.454V94.774H164.65V96.466H166.45V98.644H164.65V100.336ZM174.648 100.336H172.452V98.644H170.652V96.466H172.452V94.774H174.648V96.466H176.448V98.644H174.648V100.336ZM184.645 100.336H182.449V98.644H180.649V96.466H182.449V94.774H184.645V96.466H186.445V98.644H184.645V100.336ZM194.642 100.336H192.446V98.644H190.646V96.466H192.446V94.774H194.642V96.466H196.442V98.644H194.642V100.336ZM204.639 100.336H202.443V98.644H200.643V96.466H202.443V94.774H204.639V96.466H206.439V98.644H204.639V100.336ZM214.636 100.336H212.44V98.644H210.64V96.466H212.44V94.774H214.636V96.466H216.436V98.644H214.636V100.336ZM224.633 100.336H222.437V98.644H220.637V96.466H222.437V94.774H224.633V96.466H226.433V98.644H224.633V100.336ZM234.63 100.336H232.434V98.644H230.634V96.466H232.434V94.774H234.63V96.466H236.43V98.644H234.63V100.336ZM244.627 100.336H242.431V98.644H240.631V96.466H242.431V94.774H244.627V96.466H246.427V98.644H244.627V100.336Z" fill="white"/>
<path d="M4.698 108.336H2.502V106.644H0.702V104.466H2.502V102.774H4.698V104.466H6.498V106.644H4.698V108.336ZM14.695 108.336H12.499V106.644H10.699V104.466H12.499V102.774H14.695V104.466H16.495V106.644H14.695V108.336ZM24.6921 108.336H22.4961V106.644H20.6961V104.466H22.4961V102.774H24.6921V104.466H26.4921V106.644H24.6921V108.336ZM34.6891 108.336H32.4931V106.644H30.6931V104.466H32.4931V102.774H34.6891V104.466H36.4891V106.644H34.6891V108.336ZM44.6861 108.336H42.4901V106.644H40.6901V104.466H42.4901V102.774H44.6861V104.466H46.4861V106.644H44.6861V108.336ZM54.6832 108.336H52.4872V106.644H50.6872V104.466H52.4872V102.774H54.6832V104.466H56.4832V106.644H54.6832V108.336ZM64.6802 108.336H62.4842V106.644H60.6842V104.466H62.4842V102.774H64.6802V104.466H66.4802V106.644H64.6802V108.336ZM74.6772 108.336H72.4812V106.644H70.6812V104.466H72.4812V102.774H74.6772V104.466H76.4772V106.644H74.6772V108.336ZM84.6742 108.336H82.4782V106.644H80.6782V104.466H82.4782V102.774H84.6742V104.466H86.4743V106.644H84.6742V108.336ZM94.6713 108.336H92.4753V106.644H90.6753V104.466H92.4753V102.774H94.6713V104.466H96.4713V106.644H94.6713V108.336ZM104.668 108.336H102.472V106.644H100.672V104.466H102.472V102.774H104.668V104.466H106.468V106.644H104.668V108.336ZM114.665 108.336H112.469V106.644H110.669V104.466H112.469V102.774H114.665V104.466H116.465V106.644H114.665V108.336ZM124.662 108.336H122.466V106.644H120.666V104.466H122.466V102.774H124.662V104.466H126.462V106.644H124.662V108.336ZM134.659 108.336H132.463V106.644H130.663V104.466H132.463V102.774H134.659V104.466H136.459V106.644H134.659V108.336ZM144.656 108.336H142.46V106.644H140.66V104.466H142.46V102.774H144.656V104.466H146.456V106.644H144.656V108.336ZM154.653 108.336H152.457V106.644H150.657V104.466H152.457V102.774H154.653V104.466H156.453V106.644H154.653V108.336ZM164.65 108.336H162.454V106.644H160.654V104.466H162.454V102.774H164.65V104.466H166.45V106.644H164.65V108.336ZM174.648 108.336H172.452V106.644H170.652V104.466H172.452V102.774H174.648V104.466H176.448V106.644H174.648V108.336ZM184.645 108.336H182.449V106.644H180.649V104.466H182.449V102.774H184.645V104.466H186.445V106.644H184.645V108.336ZM194.642 108.336H192.446V106.644H190.646V104.466H192.446V102.774H194.642V104.466H196.442V106.644H194.642V108.336ZM204.639 108.336H202.443V106.644H200.643V104.466H202.443V102.774H204.639V104.466H206.439V106.644H204.639V108.336ZM214.636 108.336H212.44V106.644H210.64V104.466H212.44V102.774H214.636V104.466H216.436V106.644H214.636V108.336ZM224.633 108.336H222.437V106.644H220.637V104.466H222.437V102.774H224.633V104.466H226.433V106.644H224.633V108.336ZM234.63 108.336H232.434V106.644H230.634V104.466H232.434V102.774H234.63V104.466H236.43V106.644H234.63V108.336ZM244.627 108.336H242.431V106.644H240.631V104.466H242.431V102.774H244.627V104.466H246.427V106.644H244.627V108.336Z" fill="white"/>
<path d="M4.698 116.336H2.502V114.644H0.702V112.466H2.502V110.774H4.698V112.466H6.498V114.644H4.698V116.336ZM14.695 116.336H12.499V114.644H10.699V112.466H12.499V110.774H14.695V112.466H16.495V114.644H14.695V116.336ZM24.6921 116.336H22.4961V114.644H20.6961V112.466H22.4961V110.774H24.6921V112.466H26.4921V114.644H24.6921V116.336ZM34.6891 116.336H32.4931V114.644H30.6931V112.466H32.4931V110.774H34.6891V112.466H36.4891V114.644H34.6891V116.336ZM44.6861 116.336H42.4901V114.644H40.6901V112.466H42.4901V110.774H44.6861V112.466H46.4861V114.644H44.6861V116.336ZM54.6832 116.336H52.4872V114.644H50.6872V112.466H52.4872V110.774H54.6832V112.466H56.4832V114.644H54.6832V116.336ZM64.6802 116.336H62.4842V114.644H60.6842V112.466H62.4842V110.774H64.6802V112.466H66.4802V114.644H64.6802V116.336ZM74.6772 116.336H72.4812V114.644H70.6812V112.466H72.4812V110.774H74.6772V112.466H76.4772V114.644H74.6772V116.336ZM84.6742 116.336H82.4782V114.644H80.6782V112.466H82.4782V110.774H84.6742V112.466H86.4743V114.644H84.6742V116.336ZM94.6713 116.336H92.4753V114.644H90.6753V112.466H92.4753V110.774H94.6713V112.466H96.4713V114.644H94.6713V116.336ZM104.668 116.336H102.472V114.644H100.672V112.466H102.472V110.774H104.668V112.466H106.468V114.644H104.668V116.336ZM114.665 116.336H112.469V114.644H110.669V112.466H112.469V110.774H114.665V112.466H116.465V114.644H114.665V116.336ZM124.662 116.336H122.466V114.644H120.666V112.466H122.466V110.774H124.662V112.466H126.462V114.644H124.662V116.336ZM134.659 116.336H132.463V114.644H130.663V112.466H132.463V110.774H134.659V112.466H136.459V114.644H134.659V116.336ZM144.656 116.336H142.46V114.644H140.66V112.466H142.46V110.774H144.656V112.466H146.456V114.644H144.656V116.336ZM154.653 116.336H152.457V114.644H150.657V112.466H152.457V110.774H154.653V112.466H156.453V114.644H154.653V116.336ZM164.65 116.336H162.454V114.644H160.654V112.466H162.454V110.774H164.65V112.466H166.45V114.644H164.65V116.336ZM174.648 116.336H172.452V114.644H170.652V112.466H172.452V110.774H174.648V112.466H176.448V114.644H174.648V116.336ZM184.645 116.336H182.449V114.644H180.649V112.466H182.449V110.774H184.645V112.466H186.445V114.644H184.645V116.336ZM194.642 116.336H192.446V114.644H190.646V112.466H192.446V110.774H194.642V112.466H196.442V114.644H194.642V116.336ZM204.639 116.336H202.443V114.644H200.643V112.466H202.443V110.774H204.639V112.466H206.439V114.644H204.639V116.336ZM214.636 116.336H212.44V114.644H210.64V112.466H212.44V110.774H214.636V112.466H216.436V114.644H214.636V116.336ZM224.633 116.336H222.437V114.644H220.637V112.466H222.437V110.774H224.633V112.466H226.433V114.644H224.633V116.336ZM234.63 116.336H232.434V114.644H230.634V112.466H232.434V110.774H234.63V112.466H236.43V114.644H234.63V116.336ZM244.627 116.336H242.431V114.644H240.631V112.466H242.431V110.774H244.627V112.466H246.427V114.644H244.627V116.336Z" fill="white"/>
<path d="M4.698 124.336H2.502V122.644H0.702V120.466H2.502V118.774H4.698V120.466H6.498V122.644H4.698V124.336ZM14.695 124.336H12.499V122.644H10.699V120.466H12.499V118.774H14.695V120.466H16.495V122.644H14.695V124.336ZM24.6921 124.336H22.4961V122.644H20.6961V120.466H22.4961V118.774H24.6921V120.466H26.4921V122.644H24.6921V124.336ZM34.6891 124.336H32.4931V122.644H30.6931V120.466H32.4931V118.774H34.6891V120.466H36.4891V122.644H34.6891V124.336ZM44.6861 124.336H42.4901V122.644H40.6901V120.466H42.4901V118.774H44.6861V120.466H46.4861V122.644H44.6861V124.336ZM54.6832 124.336H52.4872V122.644H50.6872V120.466H52.4872V118.774H54.6832V120.466H56.4832V122.644H54.6832V124.336ZM64.6802 124.336H62.4842V122.644H60.6842V120.466H62.4842V118.774H64.6802V120.466H66.4802V122.644H64.6802V124.336ZM74.6772 124.336H72.4812V122.644H70.6812V120.466H72.4812V118.774H74.6772V120.466H76.4772V122.644H74.6772V124.336ZM84.6742 124.336H82.4782V122.644H80.6782V120.466H82.4782V118.774H84.6742V120.466H86.4743V122.644H84.6742V124.336ZM94.6713 124.336H92.4753V122.644H90.6753V120.466H92.4753V118.774H94.6713V120.466H96.4713V122.644H94.6713V124.336ZM104.668 124.336H102.472V122.644H100.672V120.466H102.472V118.774H104.668V120.466H106.468V122.644H104.668V124.336ZM114.665 124.336H112.469V122.644H110.669V120.466H112.469V118.774H114.665V120.466H116.465V122.644H114.665V124.336ZM124.662 124.336H122.466V122.644H120.666V120.466H122.466V118.774H124.662V120.466H126.462V122.644H124.662V124.336ZM134.659 124.336H132.463V122.644H130.663V120.466H132.463V118.774H134.659V120.466H136.459V122.644H134.659V124.336ZM144.656 124.336H142.46V122.644H140.66V120.466H142.46V118.774H144.656V120.466H146.456V122.644H144.656V124.336ZM154.653 124.336H152.457V122.644H150.657V120.466H152.457V118.774H154.653V120.466H156.453V122.644H154.653V124.336ZM164.65 124.336H162.454V122.644H160.654V120.466H162.454V118.774H164.65V120.466H166.45V122.644H164.65V124.336ZM174.648 124.336H172.452V122.644H170.652V120.466H172.452V118.774H174.648V120.466H176.448V122.644H174.648V124.336ZM184.645 124.336H182.449V122.644H180.649V120.466H182.449V118.774H184.645V120.466H186.445V122.644H184.645V124.336ZM194.642 124.336H192.446V122.644H190.646V120.466H192.446V118.774H194.642V120.466H196.442V122.644H194.642V124.336ZM204.639 124.336H202.443V122.644H200.643V120.466H202.443V118.774H204.639V120.466H206.439V122.644H204.639V124.336ZM214.636 124.336H212.44V122.644H210.64V120.466H212.44V118.774H214.636V120.466H216.436V122.644H214.636V124.336ZM224.633 124.336H222.437V122.644H220.637V120.466H222.437V118.774H224.633V120.466H226.433V122.644H224.633V124.336ZM234.63 124.336H232.434V122.644H230.634V120.466H232.434V118.774H234.63V120.466H236.43V122.644H234.63V124.336ZM244.627 124.336H242.431V122.644H240.631V120.466H242.431V118.774H244.627V120.466H246.427V122.644H244.627V124.336Z" fill="white"/>
<path d="M4.698 132.336H2.502V130.644H0.702V128.466H2.502V126.774H4.698V128.466H6.498V130.644H4.698V132.336ZM14.695 132.336H12.499V130.644H10.699V128.466H12.499V126.774H14.695V128.466H16.495V130.644H14.695V132.336ZM24.6921 132.336H22.4961V130.644H20.6961V128.466H22.4961V126.774H24.6921V128.466H26.4921V130.644H24.6921V132.336ZM34.6891 132.336H32.4931V130.644H30.6931V128.466H32.4931V126.774H34.6891V128.466H36.4891V130.644H34.6891V132.336ZM44.6861 132.336H42.4901V130.644H40.6901V128.466H42.4901V126.774H44.6861V128.466H46.4861V130.644H44.6861V132.336ZM54.6832 132.336H52.4872V130.644H50.6872V128.466H52.4872V126.774H54.6832V128.466H56.4832V130.644H54.6832V132.336ZM64.6802 132.336H62.4842V130.644H60.6842V128.466H62.4842V126.774H64.6802V128.466H66.4802V130.644H64.6802V132.336ZM74.6772 132.336H72.4812V130.644H70.6812V128.466H72.4812V126.774H74.6772V128.466H76.4772V130.644H74.6772V132.336ZM84.6742 132.336H82.4782V130.644H80.6782V128.466H82.4782V126.774H84.6742V128.466H86.4743V130.644H84.6742V132.336ZM94.6713 132.336H92.4753V130.644H90.6753V128.466H92.4753V126.774H94.6713V128.466H96.4713V130.644H94.6713V132.336ZM104.668 132.336H102.472V130.644H100.672V128.466H102.472V126.774H104.668V128.466H106.468V130.644H104.668V132.336ZM114.665 132.336H112.469V130.644H110.669V128.466H112.469V126.774H114.665V128.466H116.465V130.644H114.665V132.336ZM124.662 132.336H122.466V130.644H120.666V128.466H122.466V126.774H124.662V128.466H126.462V130.644H124.662V132.336ZM134.659 132.336H132.463V130.644H130.663V128.466H132.463V126.774H134.659V128.466H136.459V130.644H134.659V132.336ZM144.656 132.336H142.46V130.644H140.66V128.466H142.46V126.774H144.656V128.466H146.456V130.644H144.656V132.336ZM154.653 132.336H152.457V130.644H150.657V128.466H152.457V126.774H154.653V128.466H156.453V130.644H154.653V132.336ZM164.65 132.336H162.454V130.644H160.654V128.466H162.454V126.774H164.65V128.466H166.45V130.644H164.65V132.336ZM174.648 132.336H172.452V130.644H170.652V128.466H172.452V126.774H174.648V128.466H176.448V130.644H174.648V132.336ZM184.645 132.336H182.449V130.644H180.649V128.466H182.449V126.774H184.645V128.466H186.445V130.644H184.645V132.336ZM194.642 132.336H192.446V130.644H190.646V128.466H192.446V126.774H194.642V128.466H196.442V130.644H194.642V132.336ZM204.639 132.336H202.443V130.644H200.643V128.466H202.443V126.774H204.639V128.466H206.439V130.644H204.639V132.336ZM214.636 132.336H212.44V130.644H210.64V128.466H212.44V126.774H214.636V128.466H216.436V130.644H214.636V132.336ZM224.633 132.336H222.437V130.644H220.637V128.466H222.437V126.774H224.633V128.466H226.433V130.644H224.633V132.336ZM234.63 132.336H232.434V130.644H230.634V128.466H232.434V126.774H234.63V128.466H236.43V130.644H234.63V132.336ZM244.627 132.336H242.431V130.644H240.631V128.466H242.431V126.774H244.627V128.466H246.427V130.644H244.627V132.336Z" fill="white"/>
</g>
<defs>
<clipPath id="clip0">
<rect width="247" height="135" fill="white"/>
</clipPath>
</defs>
</svg>
