<svg width="1107" height="117" viewBox="0 0 1107 117" fill="none" xmlns="http://www.w3.org/2000/svg">
<g clip-path="url(#clip0)">
<path d="M548.616 -8.53223L619.616 124.468" stroke="black" stroke-width="15"/>
<path d="M583.518 -7.71045L657.518 122.29" stroke="black" stroke-width="15"/>
<path d="M621.518 -7.71045L695.518 122.29" stroke="black" stroke-width="15"/>
<path d="M660.518 -6.71045L734.518 123.29" stroke="black" stroke-width="15"/>
<path d="M698.518 -7.71045L772.518 122.29" stroke="black" stroke-width="15"/>
<path d="M737.518 -5.71045L811.518 124.29" stroke="black" stroke-width="15"/>
<path d="M774.518 -7.71045L848.518 122.29" stroke="black" stroke-width="15"/>
<path d="M812.518 -7.71045L886.518 122.29" stroke="black" stroke-width="15"/>
<path d="M851.518 -6.71045L925.518 123.29" stroke="black" stroke-width="15"/>
<path d="M889.518 -7.71045L963.518 122.29" stroke="black" stroke-width="15"/>
<path d="M928.518 -5.71045L1002.52 124.29" stroke="black" stroke-width="15"/>
<path d="M965.518 -7.71045L1039.52 122.29" stroke="black" stroke-width="15"/>
<path d="M1004.52 -6.71045L1078.52 123.29" stroke="black" stroke-width="15"/>
<path d="M1042.52 -7.71045L1116.52 122.29" stroke="black" stroke-width="15"/>
<path d="M1081.52 -5.71045L1155.52 124.29" stroke="black" stroke-width="15"/>
<path d="M-23.3837 -8.53223L47.6163 124.468" stroke="black" stroke-width="15"/>
<path d="M-59.3837 -8.53223L11.6163 124.468" stroke="black" stroke-width="15"/>
<path d="M11.5179 -7.71045L85.5179 122.29" stroke="black" stroke-width="15"/>
<path d="M49.5179 -7.71045L123.518 122.29" stroke="black" stroke-width="15"/>
<path d="M88.5179 -6.71045L162.518 123.29" stroke="black" stroke-width="15"/>
<path d="M126.518 -7.71045L200.518 122.29" stroke="black" stroke-width="15"/>
<path d="M165.518 -5.71045L239.518 124.29" stroke="black" stroke-width="15"/>
<path d="M202.518 -7.71045L276.518 122.29" stroke="black" stroke-width="15"/>
<path d="M240.518 -7.71045L314.518 122.29" stroke="black" stroke-width="15"/>
<path d="M279.518 -6.71045L353.518 123.29" stroke="black" stroke-width="15"/>
<path d="M317.518 -7.71045L391.518 122.29" stroke="black" stroke-width="15"/>
<path d="M356.518 -5.71045L430.518 124.29" stroke="black" stroke-width="15"/>
<path d="M393.518 -7.71045L467.518 122.29" stroke="black" stroke-width="15"/>
<path d="M432.518 -6.71045L506.518 123.29" stroke="black" stroke-width="15"/>
<path d="M470.518 -7.71045L544.518 122.29" stroke="black" stroke-width="15"/>
<path d="M509.518 -5.71045L583.518 124.29" stroke="black" stroke-width="15"/>
</g>
<defs>
<clipPath id="clip0">
<rect width="1107" height="117" fill="white"/>
</clipPath>
</defs>
</svg>
