<svg width="1107" height="117" viewBox="0 0 1107 117" fill="none" xmlns="http://www.w3.org/2000/svg">
<g clip-path="url(#clip0)">
<path d="M554.622 -5.47852L487.622 120.521" stroke="#001AED" stroke-width="15"/>
<path d="M523.524 -13.2998L447.524 120.7" stroke="#001AED" stroke-width="15"/>
<path d="M482.524 -9.2998L406.524 124.7" stroke="#001AED" stroke-width="15"/>
<path d="M444.524 -9.2998L368.524 124.7" stroke="#001AED" stroke-width="15"/>
<path d="M408.524 -13.2998L332.524 120.7" stroke="#001AED" stroke-width="15"/>
<path d="M370.524 -13.2998L294.524 120.7" stroke="#001AED" stroke-width="15"/>
<path d="M329.524 -9.2998L253.524 124.7" stroke="#001AED" stroke-width="15"/>
<path d="M291.524 -9.2998L215.524 124.7" stroke="#001AED" stroke-width="15"/>
<path d="M255.524 -13.2998L179.524 120.7" stroke="#001AED" stroke-width="15"/>
<path d="M215.524 -9.2998L139.524 124.7" stroke="#001AED" stroke-width="15"/>
<path d="M179.524 -13.2998L103.524 120.7" stroke="#001AED" stroke-width="15"/>
<path d="M141.524 -13.2998L65.5237 120.7" stroke="#001AED" stroke-width="15"/>
<path d="M100.524 -9.2998L24.5237 124.7" stroke="#001AED" stroke-width="15"/>
<path d="M62.5237 -9.2998L-13.4763 124.7" stroke="#001AED" stroke-width="15"/>
<path d="M26.5237 -13.2998L-49.4763 120.7" stroke="#001AED" stroke-width="15"/>
<path d="M1122.62 -5.47852L1055.62 120.521" stroke="#001AED" stroke-width="15"/>
<path d="M1156.62 -5.47852L1089.62 120.521" stroke="#001AED" stroke-width="15"/>
<path d="M1091.52 -13.2998L1015.52 120.7" stroke="#001AED" stroke-width="15"/>
<path d="M1050.52 -9.2998L974.524 124.7" stroke="#001AED" stroke-width="15"/>
<path d="M1012.52 -9.2998L936.524 124.7" stroke="#001AED" stroke-width="15"/>
<path d="M976.524 -13.2998L900.524 120.7" stroke="#001AED" stroke-width="15"/>
<path d="M938.524 -13.2998L862.524 120.7" stroke="#001AED" stroke-width="15"/>
<path d="M897.524 -9.2998L821.524 124.7" stroke="#001AED" stroke-width="15"/>
<path d="M859.524 -9.2998L783.524 124.7" stroke="#001AED" stroke-width="15"/>
<path d="M823.524 -13.2998L747.524 120.7" stroke="#001AED" stroke-width="15"/>
<path d="M783.524 -9.2998L707.524 124.7" stroke="#001AED" stroke-width="15"/>
<path d="M747.524 -13.2998L671.524 120.7" stroke="#001AED" stroke-width="15"/>
<path d="M709.524 -13.2998L633.524 120.7" stroke="#001AED" stroke-width="15"/>
<path d="M668.524 -9.2998L592.524 124.7" stroke="#001AED" stroke-width="15"/>
<path d="M630.524 -9.2998L554.524 124.7" stroke="#001AED" stroke-width="15"/>
<path d="M594.524 -13.2998L518.524 120.7" stroke="#001AED" stroke-width="15"/>
</g>
<defs>
<clipPath id="clip0">
<rect width="1107" height="117" fill="white"/>
</clipPath>
</defs>
</svg>
