<svg width="1107" height="117" viewBox="0 0 1107 117" fill="none" xmlns="http://www.w3.org/2000/svg">
<g clip-path="url(#clip0)">
<line x1="554.622" y1="-5.47877" x2="487.622" y2="120.521" stroke="white" stroke-width="15"/>
<line x1="523.524" y1="-13.2999" x2="447.524" y2="120.7" stroke="white" stroke-width="15"/>
<line x1="482.524" y1="-9.29995" x2="406.524" y2="124.7" stroke="white" stroke-width="15"/>
<line x1="444.524" y1="-9.29995" x2="368.524" y2="124.7" stroke="white" stroke-width="15"/>
<line x1="408.524" y1="-13.2999" x2="332.524" y2="120.7" stroke="white" stroke-width="15"/>
<line x1="370.524" y1="-13.2999" x2="294.524" y2="120.7" stroke="white" stroke-width="15"/>
<line x1="329.524" y1="-9.29995" x2="253.524" y2="124.7" stroke="white" stroke-width="15"/>
<line x1="291.524" y1="-9.29995" x2="215.524" y2="124.7" stroke="white" stroke-width="15"/>
<line x1="255.524" y1="-13.2999" x2="179.524" y2="120.7" stroke="white" stroke-width="15"/>
<line x1="215.524" y1="-9.29995" x2="139.524" y2="124.7" stroke="white" stroke-width="15"/>
<line x1="179.524" y1="-13.2999" x2="103.524" y2="120.7" stroke="white" stroke-width="15"/>
<line x1="141.524" y1="-13.2999" x2="65.5238" y2="120.7" stroke="white" stroke-width="15"/>
<line x1="100.524" y1="-9.29995" x2="24.5238" y2="124.7" stroke="white" stroke-width="15"/>
<line x1="62.5238" y1="-9.29995" x2="-13.4762" y2="124.7" stroke="white" stroke-width="15"/>
<line x1="26.5238" y1="-13.2999" x2="-49.4762" y2="120.7" stroke="white" stroke-width="15"/>
<line x1="1122.62" y1="-5.47877" x2="1055.62" y2="120.521" stroke="white" stroke-width="15"/>
<line x1="1156.62" y1="-5.47877" x2="1089.62" y2="120.521" stroke="white" stroke-width="15"/>
<line x1="1091.52" y1="-13.2999" x2="1015.52" y2="120.7" stroke="white" stroke-width="15"/>
<line x1="1050.52" y1="-9.29995" x2="974.524" y2="124.7" stroke="white" stroke-width="15"/>
<line x1="1012.52" y1="-9.29995" x2="936.524" y2="124.7" stroke="white" stroke-width="15"/>
<line x1="976.524" y1="-13.2999" x2="900.524" y2="120.7" stroke="white" stroke-width="15"/>
<line x1="938.524" y1="-13.2999" x2="862.524" y2="120.7" stroke="white" stroke-width="15"/>
<line x1="897.524" y1="-9.29995" x2="821.524" y2="124.7" stroke="white" stroke-width="15"/>
<line x1="859.524" y1="-9.29995" x2="783.524" y2="124.7" stroke="white" stroke-width="15"/>
<line x1="823.524" y1="-13.2999" x2="747.524" y2="120.7" stroke="white" stroke-width="15"/>
<line x1="783.524" y1="-9.29995" x2="707.524" y2="124.7" stroke="white" stroke-width="15"/>
<line x1="747.524" y1="-13.2999" x2="671.524" y2="120.7" stroke="white" stroke-width="15"/>
<line x1="709.524" y1="-13.2999" x2="633.524" y2="120.7" stroke="white" stroke-width="15"/>
<line x1="668.524" y1="-9.29995" x2="592.524" y2="124.7" stroke="white" stroke-width="15"/>
<line x1="630.524" y1="-9.29995" x2="554.524" y2="124.7" stroke="white" stroke-width="15"/>
<line x1="594.524" y1="-13.2999" x2="518.524" y2="120.7" stroke="white" stroke-width="15"/>
</g>
<defs>
<clipPath id="clip0">
<rect width="1107" height="117" fill="white"/>
</clipPath>
</defs>
</svg>
