<svg width="1107" height="117" viewBox="0 0 1107 117" fill="none" xmlns="http://www.w3.org/2000/svg">
<g clip-path="url(#clip0)">
<line x1="554.622" y1="-5.47877" x2="487.622" y2="120.521" stroke="white" stroke-width="15"/>
<line x1="523.524" y1="-13.2999" x2="447.524" y2="120.7" stroke="white" stroke-width="15"/>
<line x1="482.524" y1="-9.29995" x2="406.524" y2="124.7" stroke="white" stroke-width="15"/>
<line x1="444.524" y1="-9.29995" x2="368.524" y2="124.7" stroke="white" stroke-width="15"/>
<line x1="408.524" y1="-13.2999" x2="332.524" y2="120.7" stroke="white" stroke-width="15"/>
<line x1="370.524" y1="-13.2999" x2="294.524" y2="120.7" stroke="white" stroke-width="15"/>
<line x1="329.524" y1="-9.29995" x2="253.524" y2="124.7" stroke="white" stroke-width="15"/>
<line x1="291.524" y1="-9.29995" x2="215.524" y2="124.7" stroke="white" stroke-width="15"/>
<line x1="255.524" y1="-13.2999" x2="179.524" y2="120.7" stroke="white" stroke-width="15"/>
<line x1="215.524" y1="-9.29995" x2="139.524" y2="124.7" stroke="white" stroke-width="15"/>
<line x1="179.524" y1="-13.2999" x2="103.524" y2="120.7" stroke="white" stroke-width="15"/>
<line x1="141.524" y1="-13.2999" x2="65.5238" y2="120.7" stroke="white" stroke-width="15"/>
<line x1="100.524" y1="-9.29995" x2="24.5238" y2="124.7" stroke="white" stroke-width="15"/>
<line x1="62.5238" y1="-9.29995" x2="-13.4762" y2="124.7" stroke="white" stroke-width="15"/>
<line x1="26.5238" y1="-13.2999" x2="-49.4762" y2="120.7" stroke="white" stroke-width="15"/>
<line x1="548.616" y1="-8.53199" x2="619.616" y2="124.468" stroke="white" stroke-width="15"/>
<line x1="583.518" y1="-7.71024" x2="657.518" y2="122.29" stroke="white" stroke-width="15"/>
<line x1="621.518" y1="-7.71024" x2="695.518" y2="122.29" stroke="white" stroke-width="15"/>
<line x1="660.518" y1="-6.71024" x2="734.518" y2="123.29" stroke="white" stroke-width="15"/>
<line x1="698.518" y1="-7.71024" x2="772.518" y2="122.29" stroke="white" stroke-width="15"/>
<line x1="737.518" y1="-5.71024" x2="811.518" y2="124.29" stroke="white" stroke-width="15"/>
<line x1="774.518" y1="-7.71024" x2="848.518" y2="122.29" stroke="white" stroke-width="15"/>
<line x1="812.518" y1="-7.71024" x2="886.518" y2="122.29" stroke="white" stroke-width="15"/>
<line x1="851.518" y1="-6.71024" x2="925.518" y2="123.29" stroke="white" stroke-width="15"/>
<line x1="889.518" y1="-7.71024" x2="963.518" y2="122.29" stroke="white" stroke-width="15"/>
<line x1="928.518" y1="-5.71024" x2="1002.52" y2="124.29" stroke="white" stroke-width="15"/>
<line x1="965.518" y1="-7.71024" x2="1039.52" y2="122.29" stroke="white" stroke-width="15"/>
<line x1="1004.52" y1="-6.71024" x2="1078.52" y2="123.29" stroke="white" stroke-width="15"/>
<line x1="1042.52" y1="-7.71024" x2="1116.52" y2="122.29" stroke="white" stroke-width="15"/>
<line x1="1081.52" y1="-5.71024" x2="1155.52" y2="124.29" stroke="white" stroke-width="15"/>
<path d="M552.5 50L584.976 119.75H520.024L552.5 50Z" fill="white"/>
</g>
<defs>
<clipPath id="clip0">
<rect width="1107" height="117" fill="white"/>
</clipPath>
</defs>
</svg>
