<svg width="247" height="135" viewBox="0 0 247 135" fill="none" xmlns="http://www.w3.org/2000/svg">
<path d="M4.69803 12.3359H2.50203V10.6439H0.702026V8.46593H2.50203V6.77393H4.69803V8.46593H6.49803V10.6439H4.69803V12.3359ZM14.695 12.3359H12.499V10.6439H10.699V8.46593H12.499V6.77393H14.695V8.46593H16.495V10.6439H14.695V12.3359ZM24.6921 12.3359H22.4961V10.6439H20.6961V8.46593H22.4961V6.77393H24.6921V8.46593H26.4921V10.6439H24.6921V12.3359ZM34.6891 12.3359H32.4931V10.6439H30.6931V8.46593H32.4931V6.77393H34.6891V8.46593H36.4891V10.6439H34.6891V12.3359ZM44.6861 12.3359H42.4901V10.6439H40.6901V8.46593H42.4901V6.77393H44.6861V8.46593H46.4861V10.6439H44.6861V12.3359ZM54.6832 12.3359H52.4872V10.6439H50.6872V8.46593H52.4872V6.77393H54.6832V8.46593H56.4832V10.6439H54.6832V12.3359ZM64.6802 12.3359H62.4842V10.6439H60.6842V8.46593H62.4842V6.77393H64.6802V8.46593H66.4802V10.6439H64.6802V12.3359ZM74.6772 12.3359H72.4812V10.6439H70.6812V8.46593H72.4812V6.77393H74.6772V8.46593H76.4772V10.6439H74.6772V12.3359ZM84.6742 12.3359H82.4782V10.6439H80.6782V8.46593H82.4782V6.77393H84.6742V8.46593H86.4743V10.6439H84.6742V12.3359ZM94.6713 12.3359H92.4753V10.6439H90.6753V8.46593H92.4753V6.77393H94.6713V8.46593H96.4713V10.6439H94.6713V12.3359ZM104.668 12.3359H102.472V10.6439H100.672V8.46593H102.472V6.77393H104.668V8.46593H106.468V10.6439H104.668V12.3359ZM114.665 12.3359H112.469V10.6439H110.669V8.46593H112.469V6.77393H114.665V8.46593H116.465V10.6439H114.665V12.3359ZM124.662 12.3359H122.466V10.6439H120.666V8.46593H122.466V6.77393H124.662V8.46593H126.462V10.6439H124.662V12.3359ZM134.659 12.3359H132.463V10.6439H130.663V8.46593H132.463V6.77393H134.659V8.46593H136.459V10.6439H134.659V12.3359ZM144.656 12.3359H142.46V10.6439H140.66V8.46593H142.46V6.77393H144.656V8.46593H146.456V10.6439H144.656V12.3359ZM154.653 12.3359H152.457V10.6439H150.657V8.46593H152.457V6.77393H154.653V8.46593H156.453V10.6439H154.653V12.3359ZM164.65 12.3359H162.454V10.6439H160.654V8.46593H162.454V6.77393H164.65V8.46593H166.45V10.6439H164.65V12.3359ZM174.648 12.3359H172.452V10.6439H170.652V8.46593H172.452V6.77393H174.648V8.46593H176.448V10.6439H174.648V12.3359ZM184.645 12.3359H182.449V10.6439H180.649V8.46593H182.449V6.77393H184.645V8.46593H186.445V10.6439H184.645V12.3359ZM194.642 12.3359H192.446V10.6439H190.646V8.46593H192.446V6.77393H194.642V8.46593H196.442V10.6439H194.642V12.3359ZM204.639 12.3359H202.443V10.6439H200.643V8.46593H202.443V6.77393H204.639V8.46593H206.439V10.6439H204.639V12.3359ZM214.636 12.3359H212.44V10.6439H210.64V8.46593H212.44V6.77393H214.636V8.46593H216.436V10.6439H214.636V12.3359ZM224.633 12.3359H222.437V10.6439H220.637V8.46593H222.437V6.77393H224.633V8.46593H226.433V10.6439H224.633V12.3359ZM234.63 12.3359H232.434V10.6439H230.634V8.46593H232.434V6.77393H234.63V8.46593H236.43V10.6439H234.63V12.3359ZM244.627 12.3359H242.431V10.6439H240.631V8.46593H242.431V6.77393H244.627V8.46593H246.427V10.6439H244.627V12.3359Z" fill="black"/>
<path d="M4.69803 20.3359H2.50203V18.6439H0.702026V16.4659H2.50203V14.7739H4.69803V16.4659H6.49803V18.6439H4.69803V20.3359ZM14.695 20.3359H12.499V18.6439H10.699V16.4659H12.499V14.7739H14.695V16.4659H16.495V18.6439H14.695V20.3359ZM24.6921 20.3359H22.4961V18.6439H20.6961V16.4659H22.4961V14.7739H24.6921V16.4659H26.4921V18.6439H24.6921V20.3359ZM34.6891 20.3359H32.4931V18.6439H30.6931V16.4659H32.4931V14.7739H34.6891V16.4659H36.4891V18.6439H34.6891V20.3359ZM44.6861 20.3359H42.4901V18.6439H40.6901V16.4659H42.4901V14.7739H44.6861V16.4659H46.4861V18.6439H44.6861V20.3359ZM54.6832 20.3359H52.4872V18.6439H50.6872V16.4659H52.4872V14.7739H54.6832V16.4659H56.4832V18.6439H54.6832V20.3359ZM64.6802 20.3359H62.4842V18.6439H60.6842V16.4659H62.4842V14.7739H64.6802V16.4659H66.4802V18.6439H64.6802V20.3359ZM74.6772 20.3359H72.4812V18.6439H70.6812V16.4659H72.4812V14.7739H74.6772V16.4659H76.4772V18.6439H74.6772V20.3359ZM84.6742 20.3359H82.4782V18.6439H80.6782V16.4659H82.4782V14.7739H84.6742V16.4659H86.4743V18.6439H84.6742V20.3359ZM94.6713 20.3359H92.4753V18.6439H90.6753V16.4659H92.4753V14.7739H94.6713V16.4659H96.4713V18.6439H94.6713V20.3359ZM104.668 20.3359H102.472V18.6439H100.672V16.4659H102.472V14.7739H104.668V16.4659H106.468V18.6439H104.668V20.3359ZM114.665 20.3359H112.469V18.6439H110.669V16.4659H112.469V14.7739H114.665V16.4659H116.465V18.6439H114.665V20.3359ZM124.662 20.3359H122.466V18.6439H120.666V16.4659H122.466V14.7739H124.662V16.4659H126.462V18.6439H124.662V20.3359ZM134.659 20.3359H132.463V18.6439H130.663V16.4659H132.463V14.7739H134.659V16.4659H136.459V18.6439H134.659V20.3359ZM144.656 20.3359H142.46V18.6439H140.66V16.4659H142.46V14.7739H144.656V16.4659H146.456V18.6439H144.656V20.3359ZM154.653 20.3359H152.457V18.6439H150.657V16.4659H152.457V14.7739H154.653V16.4659H156.453V18.6439H154.653V20.3359ZM164.65 20.3359H162.454V18.6439H160.654V16.4659H162.454V14.7739H164.65V16.4659H166.45V18.6439H164.65V20.3359ZM174.648 20.3359H172.452V18.6439H170.652V16.4659H172.452V14.7739H174.648V16.4659H176.448V18.6439H174.648V20.3359ZM184.645 20.3359H182.449V18.6439H180.649V16.4659H182.449V14.7739H184.645V16.4659H186.445V18.6439H184.645V20.3359ZM194.642 20.3359H192.446V18.6439H190.646V16.4659H192.446V14.7739H194.642V16.4659H196.442V18.6439H194.642V20.3359ZM204.639 20.3359H202.443V18.6439H200.643V16.4659H202.443V14.7739H204.639V16.4659H206.439V18.6439H204.639V20.3359ZM214.636 20.3359H212.44V18.6439H210.64V16.4659H212.44V14.7739H214.636V16.4659H216.436V18.6439H214.636V20.3359ZM224.633 20.3359H222.437V18.6439H220.637V16.4659H222.437V14.7739H224.633V16.4659H226.433V18.6439H224.633V20.3359ZM234.63 20.3359H232.434V18.6439H230.634V16.4659H232.434V14.7739H234.63V16.4659H236.43V18.6439H234.63V20.3359ZM244.627 20.3359H242.431V18.6439H240.631V16.4659H242.431V14.7739H244.627V16.4659H246.427V18.6439H244.627V20.3359Z" fill="black"/>
<path d="M4.69803 28.3359H2.50203V26.6439H0.702026V24.4659H2.50203V22.7739H4.69803V24.4659H6.49803V26.6439H4.69803V28.3359ZM14.695 28.3359H12.499V26.6439H10.699V24.4659H12.499V22.7739H14.695V24.4659H16.495V26.6439H14.695V28.3359ZM24.6921 28.3359H22.4961V26.6439H20.6961V24.4659H22.4961V22.7739H24.6921V24.4659H26.4921V26.6439H24.6921V28.3359ZM34.6891 28.3359H32.4931V26.6439H30.6931V24.4659H32.4931V22.7739H34.6891V24.4659H36.4891V26.6439H34.6891V28.3359ZM44.6861 28.3359H42.4901V26.6439H40.6901V24.4659H42.4901V22.7739H44.6861V24.4659H46.4861V26.6439H44.6861V28.3359ZM54.6832 28.3359H52.4872V26.6439H50.6872V24.4659H52.4872V22.7739H54.6832V24.4659H56.4832V26.6439H54.6832V28.3359ZM64.6802 28.3359H62.4842V26.6439H60.6842V24.4659H62.4842V22.7739H64.6802V24.4659H66.4802V26.6439H64.6802V28.3359ZM74.6772 28.3359H72.4812V26.6439H70.6812V24.4659H72.4812V22.7739H74.6772V24.4659H76.4772V26.6439H74.6772V28.3359ZM84.6742 28.3359H82.4782V26.6439H80.6782V24.4659H82.4782V22.7739H84.6742V24.4659H86.4743V26.6439H84.6742V28.3359ZM94.6713 28.3359H92.4753V26.6439H90.6753V24.4659H92.4753V22.7739H94.6713V24.4659H96.4713V26.6439H94.6713V28.3359ZM104.668 28.3359H102.472V26.6439H100.672V24.4659H102.472V22.7739H104.668V24.4659H106.468V26.6439H104.668V28.3359ZM114.665 28.3359H112.469V26.6439H110.669V24.4659H112.469V22.7739H114.665V24.4659H116.465V26.6439H114.665V28.3359ZM124.662 28.3359H122.466V26.6439H120.666V24.4659H122.466V22.7739H124.662V24.4659H126.462V26.6439H124.662V28.3359ZM134.659 28.3359H132.463V26.6439H130.663V24.4659H132.463V22.7739H134.659V24.4659H136.459V26.6439H134.659V28.3359ZM144.656 28.3359H142.46V26.6439H140.66V24.4659H142.46V22.7739H144.656V24.4659H146.456V26.6439H144.656V28.3359ZM154.653 28.3359H152.457V26.6439H150.657V24.4659H152.457V22.7739H154.653V24.4659H156.453V26.6439H154.653V28.3359ZM164.65 28.3359H162.454V26.6439H160.654V24.4659H162.454V22.7739H164.65V24.4659H166.45V26.6439H164.65V28.3359ZM174.648 28.3359H172.452V26.6439H170.652V24.4659H172.452V22.7739H174.648V24.4659H176.448V26.6439H174.648V28.3359ZM184.645 28.3359H182.449V26.6439H180.649V24.4659H182.449V22.7739H184.645V24.4659H186.445V26.6439H184.645V28.3359ZM194.642 28.3359H192.446V26.6439H190.646V24.4659H192.446V22.7739H194.642V24.4659H196.442V26.6439H194.642V28.3359ZM204.639 28.3359H202.443V26.6439H200.643V24.4659H202.443V22.7739H204.639V24.4659H206.439V26.6439H204.639V28.3359ZM214.636 28.3359H212.44V26.6439H210.64V24.4659H212.44V22.7739H214.636V24.4659H216.436V26.6439H214.636V28.3359ZM224.633 28.3359H222.437V26.6439H220.637V24.4659H222.437V22.7739H224.633V24.4659H226.433V26.6439H224.633V28.3359ZM234.63 28.3359H232.434V26.6439H230.634V24.4659H232.434V22.7739H234.63V24.4659H236.43V26.6439H234.63V28.3359ZM244.627 28.3359H242.431V26.6439H240.631V24.4659H242.431V22.7739H244.627V24.4659H246.427V26.6439H244.627V28.3359Z" fill="black"/>
<path d="M4.69803 36.3359H2.50203V34.6439H0.702026V32.4659H2.50203V30.7739H4.69803V32.4659H6.49803V34.6439H4.69803V36.3359ZM14.695 36.3359H12.499V34.6439H10.699V32.4659H12.499V30.7739H14.695V32.4659H16.495V34.6439H14.695V36.3359ZM24.6921 36.3359H22.4961V34.6439H20.6961V32.4659H22.4961V30.7739H24.6921V32.4659H26.4921V34.6439H24.6921V36.3359ZM34.6891 36.3359H32.4931V34.6439H30.6931V32.4659H32.4931V30.7739H34.6891V32.4659H36.4891V34.6439H34.6891V36.3359ZM44.6861 36.3359H42.4901V34.6439H40.6901V32.4659H42.4901V30.7739H44.6861V32.4659H46.4861V34.6439H44.6861V36.3359ZM54.6832 36.3359H52.4872V34.6439H50.6872V32.4659H52.4872V30.7739H54.6832V32.4659H56.4832V34.6439H54.6832V36.3359ZM64.6802 36.3359H62.4842V34.6439H60.6842V32.4659H62.4842V30.7739H64.6802V32.4659H66.4802V34.6439H64.6802V36.3359ZM74.6772 36.3359H72.4812V34.6439H70.6812V32.4659H72.4812V30.7739H74.6772V32.4659H76.4772V34.6439H74.6772V36.3359ZM84.6742 36.3359H82.4782V34.6439H80.6782V32.4659H82.4782V30.7739H84.6742V32.4659H86.4743V34.6439H84.6742V36.3359ZM94.6713 36.3359H92.4753V34.6439H90.6753V32.4659H92.4753V30.7739H94.6713V32.4659H96.4713V34.6439H94.6713V36.3359ZM104.668 36.3359H102.472V34.6439H100.672V32.4659H102.472V30.7739H104.668V32.4659H106.468V34.6439H104.668V36.3359ZM114.665 36.3359H112.469V34.6439H110.669V32.4659H112.469V30.7739H114.665V32.4659H116.465V34.6439H114.665V36.3359ZM124.662 36.3359H122.466V34.6439H120.666V32.4659H122.466V30.7739H124.662V32.4659H126.462V34.6439H124.662V36.3359ZM134.659 36.3359H132.463V34.6439H130.663V32.4659H132.463V30.7739H134.659V32.4659H136.459V34.6439H134.659V36.3359ZM144.656 36.3359H142.46V34.6439H140.66V32.4659H142.46V30.7739H144.656V32.4659H146.456V34.6439H144.656V36.3359ZM154.653 36.3359H152.457V34.6439H150.657V32.4659H152.457V30.7739H154.653V32.4659H156.453V34.6439H154.653V36.3359ZM164.65 36.3359H162.454V34.6439H160.654V32.4659H162.454V30.7739H164.65V32.4659H166.45V34.6439H164.65V36.3359ZM174.648 36.3359H172.452V34.6439H170.652V32.4659H172.452V30.7739H174.648V32.4659H176.448V34.6439H174.648V36.3359ZM184.645 36.3359H182.449V34.6439H180.649V32.4659H182.449V30.7739H184.645V32.4659H186.445V34.6439H184.645V36.3359ZM194.642 36.3359H192.446V34.6439H190.646V32.4659H192.446V30.7739H194.642V32.4659H196.442V34.6439H194.642V36.3359ZM204.639 36.3359H202.443V34.6439H200.643V32.4659H202.443V30.7739H204.639V32.4659H206.439V34.6439H204.639V36.3359ZM214.636 36.3359H212.44V34.6439H210.64V32.4659H212.44V30.7739H214.636V32.4659H216.436V34.6439H214.636V36.3359ZM224.633 36.3359H222.437V34.6439H220.637V32.4659H222.437V30.7739H224.633V32.4659H226.433V34.6439H224.633V36.3359ZM234.63 36.3359H232.434V34.6439H230.634V32.4659H232.434V30.7739H234.63V32.4659H236.43V34.6439H234.63V36.3359ZM244.627 36.3359H242.431V34.6439H240.631V32.4659H242.431V30.7739H244.627V32.4659H246.427V34.6439H244.627V36.3359Z" fill="black"/>
<path d="M4.69803 44.3359H2.50203V42.6439H0.702026V40.4659H2.50203V38.7739H4.69803V40.4659H6.49803V42.6439H4.69803V44.3359ZM14.695 44.3359H12.499V42.6439H10.699V40.4659H12.499V38.7739H14.695V40.4659H16.495V42.6439H14.695V44.3359ZM24.6921 44.3359H22.4961V42.6439H20.6961V40.4659H22.4961V38.7739H24.6921V40.4659H26.4921V42.6439H24.6921V44.3359ZM34.6891 44.3359H32.4931V42.6439H30.6931V40.4659H32.4931V38.7739H34.6891V40.4659H36.4891V42.6439H34.6891V44.3359ZM44.6861 44.3359H42.4901V42.6439H40.6901V40.4659H42.4901V38.7739H44.6861V40.4659H46.4861V42.6439H44.6861V44.3359ZM54.6832 44.3359H52.4872V42.6439H50.6872V40.4659H52.4872V38.7739H54.6832V40.4659H56.4832V42.6439H54.6832V44.3359ZM64.6802 44.3359H62.4842V42.6439H60.6842V40.4659H62.4842V38.7739H64.6802V40.4659H66.4802V42.6439H64.6802V44.3359ZM74.6772 44.3359H72.4812V42.6439H70.6812V40.4659H72.4812V38.7739H74.6772V40.4659H76.4772V42.6439H74.6772V44.3359ZM84.6742 44.3359H82.4782V42.6439H80.6782V40.4659H82.4782V38.7739H84.6742V40.4659H86.4743V42.6439H84.6742V44.3359ZM94.6713 44.3359H92.4753V42.6439H90.6753V40.4659H92.4753V38.7739H94.6713V40.4659H96.4713V42.6439H94.6713V44.3359ZM104.668 44.3359H102.472V42.6439H100.672V40.4659H102.472V38.7739H104.668V40.4659H106.468V42.6439H104.668V44.3359ZM114.665 44.3359H112.469V42.6439H110.669V40.4659H112.469V38.7739H114.665V40.4659H116.465V42.6439H114.665V44.3359ZM124.662 44.3359H122.466V42.6439H120.666V40.4659H122.466V38.7739H124.662V40.4659H126.462V42.6439H124.662V44.3359ZM134.659 44.3359H132.463V42.6439H130.663V40.4659H132.463V38.7739H134.659V40.4659H136.459V42.6439H134.659V44.3359ZM144.656 44.3359H142.46V42.6439H140.66V40.4659H142.46V38.7739H144.656V40.4659H146.456V42.6439H144.656V44.3359ZM154.653 44.3359H152.457V42.6439H150.657V40.4659H152.457V38.7739H154.653V40.4659H156.453V42.6439H154.653V44.3359ZM164.65 44.3359H162.454V42.6439H160.654V40.4659H162.454V38.7739H164.65V40.4659H166.45V42.6439H164.65V44.3359ZM174.648 44.3359H172.452V42.6439H170.652V40.4659H172.452V38.7739H174.648V40.4659H176.448V42.6439H174.648V44.3359ZM184.645 44.3359H182.449V42.6439H180.649V40.4659H182.449V38.7739H184.645V40.4659H186.445V42.6439H184.645V44.3359ZM194.642 44.3359H192.446V42.6439H190.646V40.4659H192.446V38.7739H194.642V40.4659H196.442V42.6439H194.642V44.3359ZM204.639 44.3359H202.443V42.6439H200.643V40.4659H202.443V38.7739H204.639V40.4659H206.439V42.6439H204.639V44.3359ZM214.636 44.3359H212.44V42.6439H210.64V40.4659H212.44V38.7739H214.636V40.4659H216.436V42.6439H214.636V44.3359ZM224.633 44.3359H222.437V42.6439H220.637V40.4659H222.437V38.7739H224.633V40.4659H226.433V42.6439H224.633V44.3359ZM234.63 44.3359H232.434V42.6439H230.634V40.4659H232.434V38.7739H234.63V40.4659H236.43V42.6439H234.63V44.3359ZM244.627 44.3359H242.431V42.6439H240.631V40.4659H242.431V38.7739H244.627V40.4659H246.427V42.6439H244.627V44.3359Z" fill="black"/>
<path d="M4.69803 52.3359H2.50203V50.6439H0.702026V48.4659H2.50203V46.7739H4.69803V48.4659H6.49803V50.6439H4.69803V52.3359ZM14.695 52.3359H12.499V50.6439H10.699V48.4659H12.499V46.7739H14.695V48.4659H16.495V50.6439H14.695V52.3359ZM24.6921 52.3359H22.4961V50.6439H20.6961V48.4659H22.4961V46.7739H24.6921V48.4659H26.4921V50.6439H24.6921V52.3359ZM34.6891 52.3359H32.4931V50.6439H30.6931V48.4659H32.4931V46.7739H34.6891V48.4659H36.4891V50.6439H34.6891V52.3359ZM44.6861 52.3359H42.4901V50.6439H40.6901V48.4659H42.4901V46.7739H44.6861V48.4659H46.4861V50.6439H44.6861V52.3359ZM54.6832 52.3359H52.4872V50.6439H50.6872V48.4659H52.4872V46.7739H54.6832V48.4659H56.4832V50.6439H54.6832V52.3359ZM64.6802 52.3359H62.4842V50.6439H60.6842V48.4659H62.4842V46.7739H64.6802V48.4659H66.4802V50.6439H64.6802V52.3359ZM74.6772 52.3359H72.4812V50.6439H70.6812V48.4659H72.4812V46.7739H74.6772V48.4659H76.4772V50.6439H74.6772V52.3359ZM84.6742 52.3359H82.4782V50.6439H80.6782V48.4659H82.4782V46.7739H84.6742V48.4659H86.4743V50.6439H84.6742V52.3359ZM94.6713 52.3359H92.4753V50.6439H90.6753V48.4659H92.4753V46.7739H94.6713V48.4659H96.4713V50.6439H94.6713V52.3359ZM104.668 52.3359H102.472V50.6439H100.672V48.4659H102.472V46.7739H104.668V48.4659H106.468V50.6439H104.668V52.3359ZM114.665 52.3359H112.469V50.6439H110.669V48.4659H112.469V46.7739H114.665V48.4659H116.465V50.6439H114.665V52.3359ZM124.662 52.3359H122.466V50.6439H120.666V48.4659H122.466V46.7739H124.662V48.4659H126.462V50.6439H124.662V52.3359ZM134.659 52.3359H132.463V50.6439H130.663V48.4659H132.463V46.7739H134.659V48.4659H136.459V50.6439H134.659V52.3359ZM144.656 52.3359H142.46V50.6439H140.66V48.4659H142.46V46.7739H144.656V48.4659H146.456V50.6439H144.656V52.3359ZM154.653 52.3359H152.457V50.6439H150.657V48.4659H152.457V46.7739H154.653V48.4659H156.453V50.6439H154.653V52.3359ZM164.65 52.3359H162.454V50.6439H160.654V48.4659H162.454V46.7739H164.65V48.4659H166.45V50.6439H164.65V52.3359ZM174.648 52.3359H172.452V50.6439H170.652V48.4659H172.452V46.7739H174.648V48.4659H176.448V50.6439H174.648V52.3359ZM184.645 52.3359H182.449V50.6439H180.649V48.4659H182.449V46.7739H184.645V48.4659H186.445V50.6439H184.645V52.3359ZM194.642 52.3359H192.446V50.6439H190.646V48.4659H192.446V46.7739H194.642V48.4659H196.442V50.6439H194.642V52.3359ZM204.639 52.3359H202.443V50.6439H200.643V48.4659H202.443V46.7739H204.639V48.4659H206.439V50.6439H204.639V52.3359ZM214.636 52.3359H212.44V50.6439H210.64V48.4659H212.44V46.7739H214.636V48.4659H216.436V50.6439H214.636V52.3359ZM224.633 52.3359H222.437V50.6439H220.637V48.4659H222.437V46.7739H224.633V48.4659H226.433V50.6439H224.633V52.3359ZM234.63 52.3359H232.434V50.6439H230.634V48.4659H232.434V46.7739H234.63V48.4659H236.43V50.6439H234.63V52.3359ZM244.627 52.3359H242.431V50.6439H240.631V48.4659H242.431V46.7739H244.627V48.4659H246.427V50.6439H244.627V52.3359Z" fill="black"/>
<path d="M4.69803 60.3359H2.50203V58.6439H0.702026V56.4659H2.50203V54.7739H4.69803V56.4659H6.49803V58.6439H4.69803V60.3359ZM14.695 60.3359H12.499V58.6439H10.699V56.4659H12.499V54.7739H14.695V56.4659H16.495V58.6439H14.695V60.3359ZM24.6921 60.3359H22.4961V58.6439H20.6961V56.4659H22.4961V54.7739H24.6921V56.4659H26.4921V58.6439H24.6921V60.3359ZM34.6891 60.3359H32.4931V58.6439H30.6931V56.4659H32.4931V54.7739H34.6891V56.4659H36.4891V58.6439H34.6891V60.3359ZM44.6861 60.3359H42.4901V58.6439H40.6901V56.4659H42.4901V54.7739H44.6861V56.4659H46.4861V58.6439H44.6861V60.3359ZM54.6832 60.3359H52.4872V58.6439H50.6872V56.4659H52.4872V54.7739H54.6832V56.4659H56.4832V58.6439H54.6832V60.3359ZM64.6802 60.3359H62.4842V58.6439H60.6842V56.4659H62.4842V54.7739H64.6802V56.4659H66.4802V58.6439H64.6802V60.3359ZM74.6772 60.3359H72.4812V58.6439H70.6812V56.4659H72.4812V54.7739H74.6772V56.4659H76.4772V58.6439H74.6772V60.3359ZM84.6742 60.3359H82.4782V58.6439H80.6782V56.4659H82.4782V54.7739H84.6742V56.4659H86.4743V58.6439H84.6742V60.3359ZM94.6713 60.3359H92.4753V58.6439H90.6753V56.4659H92.4753V54.7739H94.6713V56.4659H96.4713V58.6439H94.6713V60.3359ZM104.668 60.3359H102.472V58.6439H100.672V56.4659H102.472V54.7739H104.668V56.4659H106.468V58.6439H104.668V60.3359ZM114.665 60.3359H112.469V58.6439H110.669V56.4659H112.469V54.7739H114.665V56.4659H116.465V58.6439H114.665V60.3359ZM124.662 60.3359H122.466V58.6439H120.666V56.4659H122.466V54.7739H124.662V56.4659H126.462V58.6439H124.662V60.3359ZM134.659 60.3359H132.463V58.6439H130.663V56.4659H132.463V54.7739H134.659V56.4659H136.459V58.6439H134.659V60.3359ZM144.656 60.3359H142.46V58.6439H140.66V56.4659H142.46V54.7739H144.656V56.4659H146.456V58.6439H144.656V60.3359ZM154.653 60.3359H152.457V58.6439H150.657V56.4659H152.457V54.7739H154.653V56.4659H156.453V58.6439H154.653V60.3359ZM164.65 60.3359H162.454V58.6439H160.654V56.4659H162.454V54.7739H164.65V56.4659H166.45V58.6439H164.65V60.3359ZM174.648 60.3359H172.452V58.6439H170.652V56.4659H172.452V54.7739H174.648V56.4659H176.448V58.6439H174.648V60.3359ZM184.645 60.3359H182.449V58.6439H180.649V56.4659H182.449V54.7739H184.645V56.4659H186.445V58.6439H184.645V60.3359ZM194.642 60.3359H192.446V58.6439H190.646V56.4659H192.446V54.7739H194.642V56.4659H196.442V58.6439H194.642V60.3359ZM204.639 60.3359H202.443V58.6439H200.643V56.4659H202.443V54.7739H204.639V56.4659H206.439V58.6439H204.639V60.3359ZM214.636 60.3359H212.44V58.6439H210.64V56.4659H212.44V54.7739H214.636V56.4659H216.436V58.6439H214.636V60.3359ZM224.633 60.3359H222.437V58.6439H220.637V56.4659H222.437V54.7739H224.633V56.4659H226.433V58.6439H224.633V60.3359ZM234.63 60.3359H232.434V58.6439H230.634V56.4659H232.434V54.7739H234.63V56.4659H236.43V58.6439H234.63V60.3359ZM244.627 60.3359H242.431V58.6439H240.631V56.4659H242.431V54.7739H244.627V56.4659H246.427V58.6439H244.627V60.3359Z" fill="black"/>
<path d="M4.69803 68.3359H2.50203V66.6439H0.702026V64.4659H2.50203V62.7739H4.69803V64.4659H6.49803V66.6439H4.69803V68.3359ZM14.695 68.3359H12.499V66.6439H10.699V64.4659H12.499V62.7739H14.695V64.4659H16.495V66.6439H14.695V68.3359ZM24.6921 68.3359H22.4961V66.6439H20.6961V64.4659H22.4961V62.7739H24.6921V64.4659H26.4921V66.6439H24.6921V68.3359ZM34.6891 68.3359H32.4931V66.6439H30.6931V64.4659H32.4931V62.7739H34.6891V64.4659H36.4891V66.6439H34.6891V68.3359ZM44.6861 68.3359H42.4901V66.6439H40.6901V64.4659H42.4901V62.7739H44.6861V64.4659H46.4861V66.6439H44.6861V68.3359ZM54.6832 68.3359H52.4872V66.6439H50.6872V64.4659H52.4872V62.7739H54.6832V64.4659H56.4832V66.6439H54.6832V68.3359ZM64.6802 68.3359H62.4842V66.6439H60.6842V64.4659H62.4842V62.7739H64.6802V64.4659H66.4802V66.6439H64.6802V68.3359ZM74.6772 68.3359H72.4812V66.6439H70.6812V64.4659H72.4812V62.7739H74.6772V64.4659H76.4772V66.6439H74.6772V68.3359ZM84.6742 68.3359H82.4782V66.6439H80.6782V64.4659H82.4782V62.7739H84.6742V64.4659H86.4743V66.6439H84.6742V68.3359ZM94.6713 68.3359H92.4753V66.6439H90.6753V64.4659H92.4753V62.7739H94.6713V64.4659H96.4713V66.6439H94.6713V68.3359ZM104.668 68.3359H102.472V66.6439H100.672V64.4659H102.472V62.7739H104.668V64.4659H106.468V66.6439H104.668V68.3359ZM114.665 68.3359H112.469V66.6439H110.669V64.4659H112.469V62.7739H114.665V64.4659H116.465V66.6439H114.665V68.3359ZM124.662 68.3359H122.466V66.6439H120.666V64.4659H122.466V62.7739H124.662V64.4659H126.462V66.6439H124.662V68.3359ZM134.659 68.3359H132.463V66.6439H130.663V64.4659H132.463V62.7739H134.659V64.4659H136.459V66.6439H134.659V68.3359ZM144.656 68.3359H142.46V66.6439H140.66V64.4659H142.46V62.7739H144.656V64.4659H146.456V66.6439H144.656V68.3359ZM154.653 68.3359H152.457V66.6439H150.657V64.4659H152.457V62.7739H154.653V64.4659H156.453V66.6439H154.653V68.3359ZM164.65 68.3359H162.454V66.6439H160.654V64.4659H162.454V62.7739H164.65V64.4659H166.45V66.6439H164.65V68.3359ZM174.648 68.3359H172.452V66.6439H170.652V64.4659H172.452V62.7739H174.648V64.4659H176.448V66.6439H174.648V68.3359ZM184.645 68.3359H182.449V66.6439H180.649V64.4659H182.449V62.7739H184.645V64.4659H186.445V66.6439H184.645V68.3359ZM194.642 68.3359H192.446V66.6439H190.646V64.4659H192.446V62.7739H194.642V64.4659H196.442V66.6439H194.642V68.3359ZM204.639 68.3359H202.443V66.6439H200.643V64.4659H202.443V62.7739H204.639V64.4659H206.439V66.6439H204.639V68.3359ZM214.636 68.3359H212.44V66.6439H210.64V64.4659H212.44V62.7739H214.636V64.4659H216.436V66.6439H214.636V68.3359ZM224.633 68.3359H222.437V66.6439H220.637V64.4659H222.437V62.7739H224.633V64.4659H226.433V66.6439H224.633V68.3359ZM234.63 68.3359H232.434V66.6439H230.634V64.4659H232.434V62.7739H234.63V64.4659H236.43V66.6439H234.63V68.3359ZM244.627 68.3359H242.431V66.6439H240.631V64.4659H242.431V62.7739H244.627V64.4659H246.427V66.6439H244.627V68.3359Z" fill="black"/>
<path d="M4.69803 76.3359H2.50203V74.6439H0.702026V72.4659H2.50203V70.7739H4.69803V72.4659H6.49803V74.6439H4.69803V76.3359ZM14.695 76.3359H12.499V74.6439H10.699V72.4659H12.499V70.7739H14.695V72.4659H16.495V74.6439H14.695V76.3359ZM24.6921 76.3359H22.4961V74.6439H20.6961V72.4659H22.4961V70.7739H24.6921V72.4659H26.4921V74.6439H24.6921V76.3359ZM34.6891 76.3359H32.4931V74.6439H30.6931V72.4659H32.4931V70.7739H34.6891V72.4659H36.4891V74.6439H34.6891V76.3359ZM44.6861 76.3359H42.4901V74.6439H40.6901V72.4659H42.4901V70.7739H44.6861V72.4659H46.4861V74.6439H44.6861V76.3359ZM54.6832 76.3359H52.4872V74.6439H50.6872V72.4659H52.4872V70.7739H54.6832V72.4659H56.4832V74.6439H54.6832V76.3359ZM64.6802 76.3359H62.4842V74.6439H60.6842V72.4659H62.4842V70.7739H64.6802V72.4659H66.4802V74.6439H64.6802V76.3359ZM74.6772 76.3359H72.4812V74.6439H70.6812V72.4659H72.4812V70.7739H74.6772V72.4659H76.4772V74.6439H74.6772V76.3359ZM84.6742 76.3359H82.4782V74.6439H80.6782V72.4659H82.4782V70.7739H84.6742V72.4659H86.4743V74.6439H84.6742V76.3359ZM94.6713 76.3359H92.4753V74.6439H90.6753V72.4659H92.4753V70.7739H94.6713V72.4659H96.4713V74.6439H94.6713V76.3359ZM104.668 76.3359H102.472V74.6439H100.672V72.4659H102.472V70.7739H104.668V72.4659H106.468V74.6439H104.668V76.3359ZM114.665 76.3359H112.469V74.6439H110.669V72.4659H112.469V70.7739H114.665V72.4659H116.465V74.6439H114.665V76.3359ZM124.662 76.3359H122.466V74.6439H120.666V72.4659H122.466V70.7739H124.662V72.4659H126.462V74.6439H124.662V76.3359ZM134.659 76.3359H132.463V74.6439H130.663V72.4659H132.463V70.7739H134.659V72.4659H136.459V74.6439H134.659V76.3359ZM144.656 76.3359H142.46V74.6439H140.66V72.4659H142.46V70.7739H144.656V72.4659H146.456V74.6439H144.656V76.3359ZM154.653 76.3359H152.457V74.6439H150.657V72.4659H152.457V70.7739H154.653V72.4659H156.453V74.6439H154.653V76.3359ZM164.65 76.3359H162.454V74.6439H160.654V72.4659H162.454V70.7739H164.65V72.4659H166.45V74.6439H164.65V76.3359ZM174.648 76.3359H172.452V74.6439H170.652V72.4659H172.452V70.7739H174.648V72.4659H176.448V74.6439H174.648V76.3359ZM184.645 76.3359H182.449V74.6439H180.649V72.4659H182.449V70.7739H184.645V72.4659H186.445V74.6439H184.645V76.3359ZM194.642 76.3359H192.446V74.6439H190.646V72.4659H192.446V70.7739H194.642V72.4659H196.442V74.6439H194.642V76.3359ZM204.639 76.3359H202.443V74.6439H200.643V72.4659H202.443V70.7739H204.639V72.4659H206.439V74.6439H204.639V76.3359ZM214.636 76.3359H212.44V74.6439H210.64V72.4659H212.44V70.7739H214.636V72.4659H216.436V74.6439H214.636V76.3359ZM224.633 76.3359H222.437V74.6439H220.637V72.4659H222.437V70.7739H224.633V72.4659H226.433V74.6439H224.633V76.3359ZM234.63 76.3359H232.434V74.6439H230.634V72.4659H232.434V70.7739H234.63V72.4659H236.43V74.6439H234.63V76.3359ZM244.627 76.3359H242.431V74.6439H240.631V72.4659H242.431V70.7739H244.627V72.4659H246.427V74.6439H244.627V76.3359Z" fill="black"/>
<path d="M4.69803 84.3359H2.50203V82.6439H0.702026V80.4659H2.50203V78.7739H4.69803V80.4659H6.49803V82.6439H4.69803V84.3359ZM14.695 84.3359H12.499V82.6439H10.699V80.4659H12.499V78.7739H14.695V80.4659H16.495V82.6439H14.695V84.3359ZM24.6921 84.3359H22.4961V82.6439H20.6961V80.4659H22.4961V78.7739H24.6921V80.4659H26.4921V82.6439H24.6921V84.3359ZM34.6891 84.3359H32.4931V82.6439H30.6931V80.4659H32.4931V78.7739H34.6891V80.4659H36.4891V82.6439H34.6891V84.3359ZM44.6861 84.3359H42.4901V82.6439H40.6901V80.4659H42.4901V78.7739H44.6861V80.4659H46.4861V82.6439H44.6861V84.3359ZM54.6832 84.3359H52.4872V82.6439H50.6872V80.4659H52.4872V78.7739H54.6832V80.4659H56.4832V82.6439H54.6832V84.3359ZM64.6802 84.3359H62.4842V82.6439H60.6842V80.4659H62.4842V78.7739H64.6802V80.4659H66.4802V82.6439H64.6802V84.3359ZM74.6772 84.3359H72.4812V82.6439H70.6812V80.4659H72.4812V78.7739H74.6772V80.4659H76.4772V82.6439H74.6772V84.3359ZM84.6742 84.3359H82.4782V82.6439H80.6782V80.4659H82.4782V78.7739H84.6742V80.4659H86.4743V82.6439H84.6742V84.3359ZM94.6713 84.3359H92.4753V82.6439H90.6753V80.4659H92.4753V78.7739H94.6713V80.4659H96.4713V82.6439H94.6713V84.3359ZM104.668 84.3359H102.472V82.6439H100.672V80.4659H102.472V78.7739H104.668V80.4659H106.468V82.6439H104.668V84.3359ZM114.665 84.3359H112.469V82.6439H110.669V80.4659H112.469V78.7739H114.665V80.4659H116.465V82.6439H114.665V84.3359ZM124.662 84.3359H122.466V82.6439H120.666V80.4659H122.466V78.7739H124.662V80.4659H126.462V82.6439H124.662V84.3359ZM134.659 84.3359H132.463V82.6439H130.663V80.4659H132.463V78.7739H134.659V80.4659H136.459V82.6439H134.659V84.3359ZM144.656 84.3359H142.46V82.6439H140.66V80.4659H142.46V78.7739H144.656V80.4659H146.456V82.6439H144.656V84.3359ZM154.653 84.3359H152.457V82.6439H150.657V80.4659H152.457V78.7739H154.653V80.4659H156.453V82.6439H154.653V84.3359ZM164.65 84.3359H162.454V82.6439H160.654V80.4659H162.454V78.7739H164.65V80.4659H166.45V82.6439H164.65V84.3359ZM174.648 84.3359H172.452V82.6439H170.652V80.4659H172.452V78.7739H174.648V80.4659H176.448V82.6439H174.648V84.3359ZM184.645 84.3359H182.449V82.6439H180.649V80.4659H182.449V78.7739H184.645V80.4659H186.445V82.6439H184.645V84.3359ZM194.642 84.3359H192.446V82.6439H190.646V80.4659H192.446V78.7739H194.642V80.4659H196.442V82.6439H194.642V84.3359ZM204.639 84.3359H202.443V82.6439H200.643V80.4659H202.443V78.7739H204.639V80.4659H206.439V82.6439H204.639V84.3359ZM214.636 84.3359H212.44V82.6439H210.64V80.4659H212.44V78.7739H214.636V80.4659H216.436V82.6439H214.636V84.3359ZM224.633 84.3359H222.437V82.6439H220.637V80.4659H222.437V78.7739H224.633V80.4659H226.433V82.6439H224.633V84.3359ZM234.63 84.3359H232.434V82.6439H230.634V80.4659H232.434V78.7739H234.63V80.4659H236.43V82.6439H234.63V84.3359ZM244.627 84.3359H242.431V82.6439H240.631V80.4659H242.431V78.7739H244.627V80.4659H246.427V82.6439H244.627V84.3359Z" fill="black"/>
<path d="M4.69803 92.3359H2.50203V90.6439H0.702026V88.4659H2.50203V86.7739H4.69803V88.4659H6.49803V90.6439H4.69803V92.3359ZM14.695 92.3359H12.499V90.6439H10.699V88.4659H12.499V86.7739H14.695V88.4659H16.495V90.6439H14.695V92.3359ZM24.6921 92.3359H22.4961V90.6439H20.6961V88.4659H22.4961V86.7739H24.6921V88.4659H26.4921V90.6439H24.6921V92.3359ZM34.6891 92.3359H32.4931V90.6439H30.6931V88.4659H32.4931V86.7739H34.6891V88.4659H36.4891V90.6439H34.6891V92.3359ZM44.6861 92.3359H42.4901V90.6439H40.6901V88.4659H42.4901V86.7739H44.6861V88.4659H46.4861V90.6439H44.6861V92.3359ZM54.6832 92.3359H52.4872V90.6439H50.6872V88.4659H52.4872V86.7739H54.6832V88.4659H56.4832V90.6439H54.6832V92.3359ZM64.6802 92.3359H62.4842V90.6439H60.6842V88.4659H62.4842V86.7739H64.6802V88.4659H66.4802V90.6439H64.6802V92.3359ZM74.6772 92.3359H72.4812V90.6439H70.6812V88.4659H72.4812V86.7739H74.6772V88.4659H76.4772V90.6439H74.6772V92.3359ZM84.6742 92.3359H82.4782V90.6439H80.6782V88.4659H82.4782V86.7739H84.6742V88.4659H86.4743V90.6439H84.6742V92.3359ZM94.6713 92.3359H92.4753V90.6439H90.6753V88.4659H92.4753V86.7739H94.6713V88.4659H96.4713V90.6439H94.6713V92.3359ZM104.668 92.3359H102.472V90.6439H100.672V88.4659H102.472V86.7739H104.668V88.4659H106.468V90.6439H104.668V92.3359ZM114.665 92.3359H112.469V90.6439H110.669V88.4659H112.469V86.7739H114.665V88.4659H116.465V90.6439H114.665V92.3359ZM124.662 92.3359H122.466V90.6439H120.666V88.4659H122.466V86.7739H124.662V88.4659H126.462V90.6439H124.662V92.3359ZM134.659 92.3359H132.463V90.6439H130.663V88.4659H132.463V86.7739H134.659V88.4659H136.459V90.6439H134.659V92.3359ZM144.656 92.3359H142.46V90.6439H140.66V88.4659H142.46V86.7739H144.656V88.4659H146.456V90.6439H144.656V92.3359ZM154.653 92.3359H152.457V90.6439H150.657V88.4659H152.457V86.7739H154.653V88.4659H156.453V90.6439H154.653V92.3359ZM164.65 92.3359H162.454V90.6439H160.654V88.4659H162.454V86.7739H164.65V88.4659H166.45V90.6439H164.65V92.3359ZM174.648 92.3359H172.452V90.6439H170.652V88.4659H172.452V86.7739H174.648V88.4659H176.448V90.6439H174.648V92.3359ZM184.645 92.3359H182.449V90.6439H180.649V88.4659H182.449V86.7739H184.645V88.4659H186.445V90.6439H184.645V92.3359ZM194.642 92.3359H192.446V90.6439H190.646V88.4659H192.446V86.7739H194.642V88.4659H196.442V90.6439H194.642V92.3359ZM204.639 92.3359H202.443V90.6439H200.643V88.4659H202.443V86.7739H204.639V88.4659H206.439V90.6439H204.639V92.3359ZM214.636 92.3359H212.44V90.6439H210.64V88.4659H212.44V86.7739H214.636V88.4659H216.436V90.6439H214.636V92.3359ZM224.633 92.3359H222.437V90.6439H220.637V88.4659H222.437V86.7739H224.633V88.4659H226.433V90.6439H224.633V92.3359ZM234.63 92.3359H232.434V90.6439H230.634V88.4659H232.434V86.7739H234.63V88.4659H236.43V90.6439H234.63V92.3359ZM244.627 92.3359H242.431V90.6439H240.631V88.4659H242.431V86.7739H244.627V88.4659H246.427V90.6439H244.627V92.3359Z" fill="black"/>
<path d="M4.69803 100.336H2.50203V98.6439H0.702026V96.4659H2.50203V94.7739H4.69803V96.4659H6.49803V98.6439H4.69803V100.336ZM14.695 100.336H12.499V98.6439H10.699V96.4659H12.499V94.7739H14.695V96.4659H16.495V98.6439H14.695V100.336ZM24.6921 100.336H22.4961V98.6439H20.6961V96.4659H22.4961V94.7739H24.6921V96.4659H26.4921V98.6439H24.6921V100.336ZM34.6891 100.336H32.4931V98.6439H30.6931V96.4659H32.4931V94.7739H34.6891V96.4659H36.4891V98.6439H34.6891V100.336ZM44.6861 100.336H42.4901V98.6439H40.6901V96.4659H42.4901V94.7739H44.6861V96.4659H46.4861V98.6439H44.6861V100.336ZM54.6832 100.336H52.4872V98.6439H50.6872V96.4659H52.4872V94.7739H54.6832V96.4659H56.4832V98.6439H54.6832V100.336ZM64.6802 100.336H62.4842V98.6439H60.6842V96.4659H62.4842V94.7739H64.6802V96.4659H66.4802V98.6439H64.6802V100.336ZM74.6772 100.336H72.4812V98.6439H70.6812V96.4659H72.4812V94.7739H74.6772V96.4659H76.4772V98.6439H74.6772V100.336ZM84.6742 100.336H82.4782V98.6439H80.6782V96.4659H82.4782V94.7739H84.6742V96.4659H86.4743V98.6439H84.6742V100.336ZM94.6713 100.336H92.4753V98.6439H90.6753V96.4659H92.4753V94.7739H94.6713V96.4659H96.4713V98.6439H94.6713V100.336ZM104.668 100.336H102.472V98.6439H100.672V96.4659H102.472V94.7739H104.668V96.4659H106.468V98.6439H104.668V100.336ZM114.665 100.336H112.469V98.6439H110.669V96.4659H112.469V94.7739H114.665V96.4659H116.465V98.6439H114.665V100.336ZM124.662 100.336H122.466V98.6439H120.666V96.4659H122.466V94.7739H124.662V96.4659H126.462V98.6439H124.662V100.336ZM134.659 100.336H132.463V98.6439H130.663V96.4659H132.463V94.7739H134.659V96.4659H136.459V98.6439H134.659V100.336ZM144.656 100.336H142.46V98.6439H140.66V96.4659H142.46V94.7739H144.656V96.4659H146.456V98.6439H144.656V100.336ZM154.653 100.336H152.457V98.6439H150.657V96.4659H152.457V94.7739H154.653V96.4659H156.453V98.6439H154.653V100.336ZM164.65 100.336H162.454V98.6439H160.654V96.4659H162.454V94.7739H164.65V96.4659H166.45V98.6439H164.65V100.336ZM174.648 100.336H172.452V98.6439H170.652V96.4659H172.452V94.7739H174.648V96.4659H176.448V98.6439H174.648V100.336ZM184.645 100.336H182.449V98.6439H180.649V96.4659H182.449V94.7739H184.645V96.4659H186.445V98.6439H184.645V100.336ZM194.642 100.336H192.446V98.6439H190.646V96.4659H192.446V94.7739H194.642V96.4659H196.442V98.6439H194.642V100.336ZM204.639 100.336H202.443V98.6439H200.643V96.4659H202.443V94.7739H204.639V96.4659H206.439V98.6439H204.639V100.336ZM214.636 100.336H212.44V98.6439H210.64V96.4659H212.44V94.7739H214.636V96.4659H216.436V98.6439H214.636V100.336ZM224.633 100.336H222.437V98.6439H220.637V96.4659H222.437V94.7739H224.633V96.4659H226.433V98.6439H224.633V100.336ZM234.63 100.336H232.434V98.6439H230.634V96.4659H232.434V94.7739H234.63V96.4659H236.43V98.6439H234.63V100.336ZM244.627 100.336H242.431V98.6439H240.631V96.4659H242.431V94.7739H244.627V96.4659H246.427V98.6439H244.627V100.336Z" fill="black"/>
<path d="M4.69803 108.336H2.50203V106.644H0.702026V104.466H2.50203V102.774H4.69803V104.466H6.49803V106.644H4.69803V108.336ZM14.695 108.336H12.499V106.644H10.699V104.466H12.499V102.774H14.695V104.466H16.495V106.644H14.695V108.336ZM24.6921 108.336H22.4961V106.644H20.6961V104.466H22.4961V102.774H24.6921V104.466H26.4921V106.644H24.6921V108.336ZM34.6891 108.336H32.4931V106.644H30.6931V104.466H32.4931V102.774H34.6891V104.466H36.4891V106.644H34.6891V108.336ZM44.6861 108.336H42.4901V106.644H40.6901V104.466H42.4901V102.774H44.6861V104.466H46.4861V106.644H44.6861V108.336ZM54.6832 108.336H52.4872V106.644H50.6872V104.466H52.4872V102.774H54.6832V104.466H56.4832V106.644H54.6832V108.336ZM64.6802 108.336H62.4842V106.644H60.6842V104.466H62.4842V102.774H64.6802V104.466H66.4802V106.644H64.6802V108.336ZM74.6772 108.336H72.4812V106.644H70.6812V104.466H72.4812V102.774H74.6772V104.466H76.4772V106.644H74.6772V108.336ZM84.6742 108.336H82.4782V106.644H80.6782V104.466H82.4782V102.774H84.6742V104.466H86.4743V106.644H84.6742V108.336ZM94.6713 108.336H92.4753V106.644H90.6753V104.466H92.4753V102.774H94.6713V104.466H96.4713V106.644H94.6713V108.336ZM104.668 108.336H102.472V106.644H100.672V104.466H102.472V102.774H104.668V104.466H106.468V106.644H104.668V108.336ZM114.665 108.336H112.469V106.644H110.669V104.466H112.469V102.774H114.665V104.466H116.465V106.644H114.665V108.336ZM124.662 108.336H122.466V106.644H120.666V104.466H122.466V102.774H124.662V104.466H126.462V106.644H124.662V108.336ZM134.659 108.336H132.463V106.644H130.663V104.466H132.463V102.774H134.659V104.466H136.459V106.644H134.659V108.336ZM144.656 108.336H142.46V106.644H140.66V104.466H142.46V102.774H144.656V104.466H146.456V106.644H144.656V108.336ZM154.653 108.336H152.457V106.644H150.657V104.466H152.457V102.774H154.653V104.466H156.453V106.644H154.653V108.336ZM164.65 108.336H162.454V106.644H160.654V104.466H162.454V102.774H164.65V104.466H166.45V106.644H164.65V108.336ZM174.648 108.336H172.452V106.644H170.652V104.466H172.452V102.774H174.648V104.466H176.448V106.644H174.648V108.336ZM184.645 108.336H182.449V106.644H180.649V104.466H182.449V102.774H184.645V104.466H186.445V106.644H184.645V108.336ZM194.642 108.336H192.446V106.644H190.646V104.466H192.446V102.774H194.642V104.466H196.442V106.644H194.642V108.336ZM204.639 108.336H202.443V106.644H200.643V104.466H202.443V102.774H204.639V104.466H206.439V106.644H204.639V108.336ZM214.636 108.336H212.44V106.644H210.64V104.466H212.44V102.774H214.636V104.466H216.436V106.644H214.636V108.336ZM224.633 108.336H222.437V106.644H220.637V104.466H222.437V102.774H224.633V104.466H226.433V106.644H224.633V108.336ZM234.63 108.336H232.434V106.644H230.634V104.466H232.434V102.774H234.63V104.466H236.43V106.644H234.63V108.336ZM244.627 108.336H242.431V106.644H240.631V104.466H242.431V102.774H244.627V104.466H246.427V106.644H244.627V108.336Z" fill="black"/>
<path d="M4.69803 116.336H2.50203V114.644H0.702026V112.466H2.50203V110.774H4.69803V112.466H6.49803V114.644H4.69803V116.336ZM14.695 116.336H12.499V114.644H10.699V112.466H12.499V110.774H14.695V112.466H16.495V114.644H14.695V116.336ZM24.6921 116.336H22.4961V114.644H20.6961V112.466H22.4961V110.774H24.6921V112.466H26.4921V114.644H24.6921V116.336ZM34.6891 116.336H32.4931V114.644H30.6931V112.466H32.4931V110.774H34.6891V112.466H36.4891V114.644H34.6891V116.336ZM44.6861 116.336H42.4901V114.644H40.6901V112.466H42.4901V110.774H44.6861V112.466H46.4861V114.644H44.6861V116.336ZM54.6832 116.336H52.4872V114.644H50.6872V112.466H52.4872V110.774H54.6832V112.466H56.4832V114.644H54.6832V116.336ZM64.6802 116.336H62.4842V114.644H60.6842V112.466H62.4842V110.774H64.6802V112.466H66.4802V114.644H64.6802V116.336ZM74.6772 116.336H72.4812V114.644H70.6812V112.466H72.4812V110.774H74.6772V112.466H76.4772V114.644H74.6772V116.336ZM84.6742 116.336H82.4782V114.644H80.6782V112.466H82.4782V110.774H84.6742V112.466H86.4743V114.644H84.6742V116.336ZM94.6713 116.336H92.4753V114.644H90.6753V112.466H92.4753V110.774H94.6713V112.466H96.4713V114.644H94.6713V116.336ZM104.668 116.336H102.472V114.644H100.672V112.466H102.472V110.774H104.668V112.466H106.468V114.644H104.668V116.336ZM114.665 116.336H112.469V114.644H110.669V112.466H112.469V110.774H114.665V112.466H116.465V114.644H114.665V116.336ZM124.662 116.336H122.466V114.644H120.666V112.466H122.466V110.774H124.662V112.466H126.462V114.644H124.662V116.336ZM134.659 116.336H132.463V114.644H130.663V112.466H132.463V110.774H134.659V112.466H136.459V114.644H134.659V116.336ZM144.656 116.336H142.46V114.644H140.66V112.466H142.46V110.774H144.656V112.466H146.456V114.644H144.656V116.336ZM154.653 116.336H152.457V114.644H150.657V112.466H152.457V110.774H154.653V112.466H156.453V114.644H154.653V116.336ZM164.65 116.336H162.454V114.644H160.654V112.466H162.454V110.774H164.65V112.466H166.45V114.644H164.65V116.336ZM174.648 116.336H172.452V114.644H170.652V112.466H172.452V110.774H174.648V112.466H176.448V114.644H174.648V116.336ZM184.645 116.336H182.449V114.644H180.649V112.466H182.449V110.774H184.645V112.466H186.445V114.644H184.645V116.336ZM194.642 116.336H192.446V114.644H190.646V112.466H192.446V110.774H194.642V112.466H196.442V114.644H194.642V116.336ZM204.639 116.336H202.443V114.644H200.643V112.466H202.443V110.774H204.639V112.466H206.439V114.644H204.639V116.336ZM214.636 116.336H212.44V114.644H210.64V112.466H212.44V110.774H214.636V112.466H216.436V114.644H214.636V116.336ZM224.633 116.336H222.437V114.644H220.637V112.466H222.437V110.774H224.633V112.466H226.433V114.644H224.633V116.336ZM234.63 116.336H232.434V114.644H230.634V112.466H232.434V110.774H234.63V112.466H236.43V114.644H234.63V116.336ZM244.627 116.336H242.431V114.644H240.631V112.466H242.431V110.774H244.627V112.466H246.427V114.644H244.627V116.336Z" fill="black"/>
<path d="M4.69803 124.336H2.50203V122.644H0.702026V120.466H2.50203V118.774H4.69803V120.466H6.49803V122.644H4.69803V124.336ZM14.695 124.336H12.499V122.644H10.699V120.466H12.499V118.774H14.695V120.466H16.495V122.644H14.695V124.336ZM24.6921 124.336H22.4961V122.644H20.6961V120.466H22.4961V118.774H24.6921V120.466H26.4921V122.644H24.6921V124.336ZM34.6891 124.336H32.4931V122.644H30.6931V120.466H32.4931V118.774H34.6891V120.466H36.4891V122.644H34.6891V124.336ZM44.6861 124.336H42.4901V122.644H40.6901V120.466H42.4901V118.774H44.6861V120.466H46.4861V122.644H44.6861V124.336ZM54.6832 124.336H52.4872V122.644H50.6872V120.466H52.4872V118.774H54.6832V120.466H56.4832V122.644H54.6832V124.336ZM64.6802 124.336H62.4842V122.644H60.6842V120.466H62.4842V118.774H64.6802V120.466H66.4802V122.644H64.6802V124.336ZM74.6772 124.336H72.4812V122.644H70.6812V120.466H72.4812V118.774H74.6772V120.466H76.4772V122.644H74.6772V124.336ZM84.6742 124.336H82.4782V122.644H80.6782V120.466H82.4782V118.774H84.6742V120.466H86.4743V122.644H84.6742V124.336ZM94.6713 124.336H92.4753V122.644H90.6753V120.466H92.4753V118.774H94.6713V120.466H96.4713V122.644H94.6713V124.336ZM104.668 124.336H102.472V122.644H100.672V120.466H102.472V118.774H104.668V120.466H106.468V122.644H104.668V124.336ZM114.665 124.336H112.469V122.644H110.669V120.466H112.469V118.774H114.665V120.466H116.465V122.644H114.665V124.336ZM124.662 124.336H122.466V122.644H120.666V120.466H122.466V118.774H124.662V120.466H126.462V122.644H124.662V124.336ZM134.659 124.336H132.463V122.644H130.663V120.466H132.463V118.774H134.659V120.466H136.459V122.644H134.659V124.336ZM144.656 124.336H142.46V122.644H140.66V120.466H142.46V118.774H144.656V120.466H146.456V122.644H144.656V124.336ZM154.653 124.336H152.457V122.644H150.657V120.466H152.457V118.774H154.653V120.466H156.453V122.644H154.653V124.336ZM164.65 124.336H162.454V122.644H160.654V120.466H162.454V118.774H164.65V120.466H166.45V122.644H164.65V124.336ZM174.648 124.336H172.452V122.644H170.652V120.466H172.452V118.774H174.648V120.466H176.448V122.644H174.648V124.336ZM184.645 124.336H182.449V122.644H180.649V120.466H182.449V118.774H184.645V120.466H186.445V122.644H184.645V124.336ZM194.642 124.336H192.446V122.644H190.646V120.466H192.446V118.774H194.642V120.466H196.442V122.644H194.642V124.336ZM204.639 124.336H202.443V122.644H200.643V120.466H202.443V118.774H204.639V120.466H206.439V122.644H204.639V124.336ZM214.636 124.336H212.44V122.644H210.64V120.466H212.44V118.774H214.636V120.466H216.436V122.644H214.636V124.336ZM224.633 124.336H222.437V122.644H220.637V120.466H222.437V118.774H224.633V120.466H226.433V122.644H224.633V124.336ZM234.63 124.336H232.434V122.644H230.634V120.466H232.434V118.774H234.63V120.466H236.43V122.644H234.63V124.336ZM244.627 124.336H242.431V122.644H240.631V120.466H242.431V118.774H244.627V120.466H246.427V122.644H244.627V124.336Z" fill="black"/>
<path d="M4.69803 132.336H2.50203V130.644H0.702026V128.466H2.50203V126.774H4.69803V128.466H6.49803V130.644H4.69803V132.336ZM14.695 132.336H12.499V130.644H10.699V128.466H12.499V126.774H14.695V128.466H16.495V130.644H14.695V132.336ZM24.6921 132.336H22.4961V130.644H20.6961V128.466H22.4961V126.774H24.6921V128.466H26.4921V130.644H24.6921V132.336ZM34.6891 132.336H32.4931V130.644H30.6931V128.466H32.4931V126.774H34.6891V128.466H36.4891V130.644H34.6891V132.336ZM44.6861 132.336H42.4901V130.644H40.6901V128.466H42.4901V126.774H44.6861V128.466H46.4861V130.644H44.6861V132.336ZM54.6832 132.336H52.4872V130.644H50.6872V128.466H52.4872V126.774H54.6832V128.466H56.4832V130.644H54.6832V132.336ZM64.6802 132.336H62.4842V130.644H60.6842V128.466H62.4842V126.774H64.6802V128.466H66.4802V130.644H64.6802V132.336ZM74.6772 132.336H72.4812V130.644H70.6812V128.466H72.4812V126.774H74.6772V128.466H76.4772V130.644H74.6772V132.336ZM84.6742 132.336H82.4782V130.644H80.6782V128.466H82.4782V126.774H84.6742V128.466H86.4743V130.644H84.6742V132.336ZM94.6713 132.336H92.4753V130.644H90.6753V128.466H92.4753V126.774H94.6713V128.466H96.4713V130.644H94.6713V132.336ZM104.668 132.336H102.472V130.644H100.672V128.466H102.472V126.774H104.668V128.466H106.468V130.644H104.668V132.336ZM114.665 132.336H112.469V130.644H110.669V128.466H112.469V126.774H114.665V128.466H116.465V130.644H114.665V132.336ZM124.662 132.336H122.466V130.644H120.666V128.466H122.466V126.774H124.662V128.466H126.462V130.644H124.662V132.336ZM134.659 132.336H132.463V130.644H130.663V128.466H132.463V126.774H134.659V128.466H136.459V130.644H134.659V132.336ZM144.656 132.336H142.46V130.644H140.66V128.466H142.46V126.774H144.656V128.466H146.456V130.644H144.656V132.336ZM154.653 132.336H152.457V130.644H150.657V128.466H152.457V126.774H154.653V128.466H156.453V130.644H154.653V132.336ZM164.65 132.336H162.454V130.644H160.654V128.466H162.454V126.774H164.65V128.466H166.45V130.644H164.65V132.336ZM174.648 132.336H172.452V130.644H170.652V128.466H172.452V126.774H174.648V128.466H176.448V130.644H174.648V132.336ZM184.645 132.336H182.449V130.644H180.649V128.466H182.449V126.774H184.645V128.466H186.445V130.644H184.645V132.336ZM194.642 132.336H192.446V130.644H190.646V128.466H192.446V126.774H194.642V128.466H196.442V130.644H194.642V132.336ZM204.639 132.336H202.443V130.644H200.643V128.466H202.443V126.774H204.639V128.466H206.439V130.644H204.639V132.336ZM214.636 132.336H212.44V130.644H210.64V128.466H212.44V126.774H214.636V128.466H216.436V130.644H214.636V132.336ZM224.633 132.336H222.437V130.644H220.637V128.466H222.437V126.774H224.633V128.466H226.433V130.644H224.633V132.336ZM234.63 132.336H232.434V130.644H230.634V128.466H232.434V126.774H234.63V128.466H236.43V130.644H234.63V132.336ZM244.627 132.336H242.431V130.644H240.631V128.466H242.431V126.774H244.627V128.466H246.427V130.644H244.627V132.336Z" fill="black"/>
</svg>
