<svg width="137" height="38" viewBox="0 0 137 38" fill="none" xmlns="http://www.w3.org/2000/svg">
<path d="M20.07 3.4H15.696L10.422 12.292L5.148 3.4H0.774V16H4.014V7.36L9.252 16H11.592L16.83 7.36V16H20.07V3.4ZM44.01 16H47.592L41.076 3.4H36.702L30.204 16H33.768L35.118 13.318H42.66L44.01 16ZM36.324 10.906L38.898 5.794L41.454 10.906H36.324ZM69.6514 3.4H54.1714V6.118H60.2914V16H63.5314V6.118H69.6514V3.4ZM83.3167 3.4H80.0767V16H83.3167V3.4ZM107.246 16H110.828L104.312 3.4H99.9383L93.4403 16H97.0043L98.3543 13.318H105.896L107.246 16ZM99.5603 10.906L102.134 5.794L104.69 10.906H99.5603ZM119.816 11.662C119.816 15.298 122.894 16.18 128.06 16.18C132.722 16.18 135.908 15.496 135.908 12.13C135.908 8.944 132.83 8.674 127.862 8.404C124.19 8.188 123.434 8.008 123.434 7.036C123.434 6.1 124.19 5.794 127.376 5.794C130.742 5.794 132.128 6.136 132.128 7.522H135.368C135.368 4.408 132.488 3.22 127.736 3.22C123.02 3.22 120.194 4.102 120.194 6.874C120.194 9.7 122.372 10.564 127.862 10.816C131.948 11.014 132.668 11.194 132.668 12.238C132.668 13.228 131.642 13.606 128.24 13.606C124.136 13.606 123.056 12.994 123.056 11.662H119.816Z" fill="white"/>
<path d="M20.498 24.026C20.498 21.218 18.536 19.4 15.674 19.4H5.774V32H9.014V28.634H14.234L16.268 32H20.084L17.762 28.256C19.454 27.59 20.498 26.078 20.498 24.026ZM9.014 22.118H14.774C15.746 22.118 17.258 22.118 17.258 24.026C17.258 25.916 15.746 25.916 14.774 25.916H9.014V22.118ZM38.6592 32.18C44.1852 32.18 46.5792 29.858 46.5792 25.682C46.5792 21.524 44.1852 19.22 38.6592 19.22C33.1152 19.22 30.7392 21.506 30.7392 25.682C30.7392 29.876 33.1152 32.18 38.6592 32.18ZM38.6592 29.462C35.2932 29.462 33.9792 28.274 33.9792 25.682C33.9792 23.108 35.2752 21.938 38.6592 21.938C42.0432 21.938 43.3392 23.126 43.3392 25.682C43.3392 28.256 42.0252 29.462 38.6592 29.462ZM71.905 19.4H62.689V22.118H68.665V25.682C68.665 27.428 68.179 29.462 64.345 29.462C60.511 29.462 60.025 27.446 60.025 25.682H56.785C56.785 30.074 59.161 32.18 64.345 32.18C69.511 32.18 71.905 30.056 71.905 25.682V19.4ZM94.6245 32H98.2065L91.6905 19.4H87.3165L80.8185 32H84.3825L85.7325 29.318H93.2745L94.6245 32ZM86.9385 26.906L89.5125 21.794L92.0685 26.906H86.9385ZM107.194 27.662C107.194 31.298 110.272 32.18 115.438 32.18C120.1 32.18 123.286 31.496 123.286 28.13C123.286 24.944 120.208 24.674 115.24 24.404C111.568 24.188 110.812 24.008 110.812 23.036C110.812 22.1 111.568 21.794 114.754 21.794C118.12 21.794 119.506 22.136 119.506 23.522H122.746C122.746 20.408 119.866 19.22 115.114 19.22C110.398 19.22 107.572 20.102 107.572 22.874C107.572 25.7 109.75 26.564 115.24 26.816C119.326 27.014 120.046 27.194 120.046 28.238C120.046 29.228 119.02 29.606 115.618 29.606C111.514 29.606 110.434 28.994 110.434 27.662H107.194Z" fill="white"/>
</svg>
